<?xml version="1.0" encoding="UTF-8" standalone="no"?>
<!DOCTYPE svg PUBLIC "-//W3C//DTD SVG 1.1//EN" "http://www.w3.org/Graphics/SVG/1.1/DTD/svg11.dtd">
<svg width="100%" height="100%" viewBox="0 0 23 23" version="1.1" xmlns="http://www.w3.org/2000/svg" xmlns:xlink="http://www.w3.org/1999/xlink" xml:space="preserve" xmlns:serif="http://www.serif.com/" style="fill-rule:evenodd;clip-rule:evenodd;">
    <g transform="matrix(1,0,0,1,-10371.8,-24999.9)">
        <g transform="matrix(1,0,0,1,-0.0845185,-3.63798e-12)">
            <g transform="matrix(1,0,0,1,10371,24999)">
                <path d="M7.737,6.061L7.737,4.421C7.737,3.636 8.373,3 9.158,3L19.579,3C20.364,3 21,3.636 21,4.421L21,14.842C21,15.627 20.364,16.263 19.579,16.263L17.939,16.263M3,9.158L3,19.579C3,20.364 3.636,21 4.421,21L14.842,21C15.627,21 16.263,20.364 16.263,19.579L16.263,9.158C16.263,8.373 15.627,7.737 14.842,7.737L4.421,7.737C3.636,7.737 3,8.373 3,9.158Z" style="fill:none;fill-rule:nonzero;stroke:rgb(108,109,109);stroke-width:1px;"/>
            </g>
        </g>
    </g>
</svg>
