<?xml version="1.0" encoding="UTF-8" standalone="no"?>
<!DOCTYPE svg PUBLIC "-//W3C//DTD SVG 1.1//EN" "http://www.w3.org/Graphics/SVG/1.1/DTD/svg11.dtd">
<svg width="100%" height="100%" viewBox="0 0 12 12" version="1.1" xmlns="http://www.w3.org/2000/svg" xmlns:xlink="http://www.w3.org/1999/xlink" xml:space="preserve" xmlns:serif="http://www.serif.com/" style="fill-rule:evenodd;clip-rule:evenodd;">
    <g transform="matrix(1,0,0,1,-55303.4,-27348.6)">
        <g transform="matrix(1,0,0,1,-0.265107,-0.302452)">
            <g transform="matrix(1,0,0,1,55304.3,27349.8)">
                <path d="M9,8.823L1,8.823L1,0.823" style="fill:none;fill-rule:nonzero;stroke:rgb(64,65,65);stroke-width:0.8px;"/>
            </g>
        </g>
        <g transform="matrix(1,0,0,1,-0.265107,-0.302452)">
            <g transform="matrix(1,0,0,1,55304.3,27349.8)">
                <path d="M3.276,6.549L8.619,1.204" style="fill:none;fill-rule:nonzero;stroke:rgb(64,65,65);stroke-width:0.8px;"/>
            </g>
        </g>
        <g transform="matrix(1,0,0,1,-0.265107,-0.302452)">
            <g transform="matrix(1,0,0,1,55304.3,27349.8)">
                <path d="M5.09,1.204L8.618,1.204L8.618,4.734" style="fill:none;fill-rule:nonzero;stroke:rgb(64,65,65);stroke-width:0.8px;"/>
            </g>
        </g>
    </g>
</svg>
