<?xml version="1.0" encoding="UTF-8" standalone="no"?>
<!DOCTYPE svg PUBLIC "-//W3C//DTD SVG 1.1//EN" "http://www.w3.org/Graphics/SVG/1.1/DTD/svg11.dtd">
<svg width="100%" height="100%" viewBox="0 0 209 24" version="1.1" xmlns="http://www.w3.org/2000/svg" xmlns:xlink="http://www.w3.org/1999/xlink" xml:space="preserve" xmlns:serif="http://www.serif.com/" style="fill-rule:evenodd;clip-rule:evenodd;stroke-linejoin:round;stroke-miterlimit:2;">
    <g transform="matrix(1,0,0,1,-54853,-27194.9)">
        <g transform="matrix(1,0,0,1,-0.265107,-0.302452)">
            <g transform="matrix(1,0,0,1,54853.2,27195.2)">
                <path d="M0.271,24L5.719,24L10.726,4.936L0.04,23.596C-0.07,23.782 0.062,24 0.271,24Z" style="fill:url(#_Linear1);fill-rule:nonzero;"/>
            </g>
            <g transform="matrix(1,0,0,1,54853.2,27195.2)">
                <path d="M24.933,19L5.717,24.001L27.376,24.001C27.585,24.001 27.718,23.783 27.607,23.597L24.933,19Z" style="fill:url(#_Linear2);fill-rule:nonzero;"/>
            </g>
            <g transform="matrix(1,0,0,1,54853.2,27195.2)">
                <path d="M21.987,16.085L24.936,19L13.952,0.132C13.853,-0.043 13.589,-0.043 13.479,0.132L10.727,4.936L21.987,16.085Z" style="fill:url(#_Linear3);fill-rule:nonzero;"/>
            </g>
            <g transform="matrix(1,0,0,1,54853.2,27195.2)">
                <path d="M5.717,23.996L9.678,22.958L9.656,9.015L5.717,23.996Z" style="fill:url(#_Linear4);fill-rule:nonzero;"/>
            </g>
            <g transform="matrix(1,0,0,1,54853.2,27195.2)">
                <path d="M9.661,9.019L21.988,16.084L10.729,4.936L9.661,9.019Z" style="fill:url(#_Linear5);fill-rule:nonzero;"/>
            </g>
            <g transform="matrix(1,0,0,1,54853.2,27195.2)">
                <path d="M9.678,22.96L24.932,18.996L21.982,16.081L9.678,22.96Z" style="fill:url(#_Linear6);fill-rule:nonzero;"/>
            </g>
            <g transform="matrix(1,0,0,1,54853.2,27195.2)">
                <path d="M9.683,22.964L12.324,21.49L9.661,11.98L9.683,22.964Z" style="fill:url(#_Linear7);fill-rule:nonzero;"/>
            </g>
            <g transform="matrix(1,0,0,1,54853.2,27195.2)">
                <path d="M21.984,16.09L19.387,14.605L12.321,21.494L21.984,16.09Z" style="fill:url(#_Linear8);fill-rule:nonzero;"/>
            </g>
            <g transform="matrix(1,0,0,1,54853.2,27195.2)">
                <path d="M9.659,11.996L19.388,14.617L9.659,9.037L9.659,11.996Z" style="fill:url(#_Linear9);fill-rule:nonzero;"/>
            </g>
            <g transform="matrix(1,0,0,1,54853.2,27195.2)">
                <path d="M15.835,14.043L17.343,14.043L9.661,11.98L10.233,14.032L15.835,14.043Z" style="fill:url(#_Linear10);fill-rule:nonzero;"/>
            </g>
            <g transform="matrix(1,0,0,1,54853.2,27195.2)">
                <path d="M10.234,14.03L12.325,21.488L13.8,20.047L11.027,15.352L10.234,14.03Z" style="fill:url(#_Linear11);fill-rule:nonzero;"/>
            </g>
            <g transform="matrix(1,0,0,1,54853.2,27195.2)">
                <path d="M17.342,14.042L13.798,20.048L19.389,14.599L17.342,14.042Z" style="fill:url(#_Linear12);fill-rule:nonzero;"/>
            </g>
            <g transform="matrix(1,0,0,1,54853.2,27195.2)">
                <path d="M15.847,14.041L10.234,14.03L11.027,15.351L15.847,14.041Z" style="fill:url(#_Linear13);fill-rule:nonzero;"/>
            </g>
            <g transform="matrix(1,0,0,1,54853.2,27195.2)">
                <path d="M14.536,18.783L11.026,15.344L13.799,20.039L14.536,18.783Z" style="fill:url(#_Linear14);fill-rule:nonzero;"/>
            </g>
            <g transform="matrix(1,0,0,1,54853.2,27195.2)">
                <path d="M17.343,14.042L15.847,14.042L14.537,18.792L17.343,14.042Z" style="fill:url(#_Linear15);fill-rule:nonzero;"/>
            </g>
            <g transform="matrix(1,0,0,1,54853.2,27195.2)">
                <path d="M0.271,24L5.719,24L10.726,4.936L0.04,23.596C-0.07,23.771 0.062,24 0.271,24Z" style="fill:url(#_Linear16);fill-rule:nonzero;"/>
            </g>
            <g transform="matrix(1,0,0,1,54853.2,27195.2)">
                <path d="M24.933,19L5.717,24.001L27.376,24.001C27.585,24.001 27.718,23.783 27.607,23.597L24.933,19Z" style="fill:url(#_Linear17);fill-rule:nonzero;"/>
            </g>
            <g transform="matrix(1,0,0,1,54853.2,27195.2)">
                <path d="M21.987,16.085L24.936,19L13.952,0.132C13.853,-0.043 13.589,-0.043 13.479,0.132L10.727,4.936L21.987,16.085Z" style="fill:url(#_Linear18);fill-rule:nonzero;"/>
            </g>
            <g transform="matrix(1,0,0,1,54853.2,27195.2)">
                <path d="M5.717,23.996L9.678,22.958L9.656,9.015L5.717,23.996Z" style="fill:url(#_Linear19);fill-rule:nonzero;"/>
            </g>
            <g transform="matrix(1,0,0,1,54853.2,27195.2)">
                <path d="M9.678,22.96L24.932,18.996L21.982,16.081L9.678,22.96Z" style="fill:url(#_Linear20);fill-rule:nonzero;"/>
            </g>
            <g transform="matrix(1,0,0,1,54853.2,27195.2)">
                <path d="M9.683,22.964L12.324,21.49L9.661,11.98L9.683,22.964Z" style="fill:url(#_Linear21);fill-rule:nonzero;"/>
            </g>
            <g transform="matrix(1,0,0,1,54853.2,27195.2)">
                <path d="M21.984,16.09L19.387,14.605L12.321,21.494L21.984,16.09Z" style="fill:url(#_Linear22);fill-rule:nonzero;"/>
            </g>
            <g transform="matrix(1,0,0,1,54853.2,27195.2)">
                <path d="M10.234,14.03L12.325,21.488L13.8,20.047L11.027,15.352L10.234,14.03Z" style="fill:url(#_Linear23);fill-rule:nonzero;"/>
            </g>
            <g transform="matrix(1,0,0,1,54853.2,27195.2)">
                <path d="M17.342,14.042L13.798,20.048L19.389,14.599L17.342,14.042Z" style="fill:url(#_Linear24);fill-rule:nonzero;"/>
            </g>
            <g transform="matrix(1,0,0,1,54853.2,27195.2)">
                <path d="M14.536,18.783L11.026,15.344L13.799,20.039L14.536,18.783Z" style="fill:url(#_Linear25);fill-rule:nonzero;"/>
            </g>
            <g transform="matrix(1,0,0,1,54853.2,27195.2)">
                <path d="M17.343,14.042L15.847,14.042L14.537,18.792L17.343,14.042Z" style="fill:url(#_Linear26);fill-rule:nonzero;"/>
            </g>
            <g transform="matrix(1,0,0,1,54853.2,27195.2)">
                <path d="M39.208,5.183C39.043,5.085 38.878,5.041 38.68,5.041C38.504,5.041 38.317,5.085 38.174,5.172C38.009,5.27 37.899,5.401 37.811,5.576L31.735,18.974L32.605,18.974C33.078,18.974 33.507,18.701 33.705,18.275L35.004,15.392L42.444,15.392L43.71,18.275C43.908,18.712 44.337,18.996 44.81,18.996L45.658,18.996L39.572,5.587C39.495,5.412 39.373,5.281 39.208,5.183ZM41.839,14.082L35.576,14.082L35.587,14.038L38.691,7.039L41.806,14.038L41.839,14.082Z" style="fill:rgb(243,243,243);fill-rule:nonzero;"/>
            </g>
            <g transform="matrix(1,0,0,1,54853.2,27195.2)">
                <path d="M56.611,6.218C55.808,5.52 54.674,5.159 53.221,5.159L48.566,5.159C48.324,5.159 48.126,5.225 47.961,5.367C47.818,5.509 47.73,5.694 47.73,5.934L47.73,18.994L48.137,18.994C48.797,18.994 49.336,18.459 49.336,17.803L49.336,13.261L53.199,13.261C54.641,13.261 55.775,12.901 56.578,12.191C57.393,11.47 57.789,10.488 57.789,9.199C57.811,7.911 57.415,6.917 56.611,6.218ZM53.067,11.94L49.358,11.94L49.358,6.491L53.067,6.491C55.18,6.491 56.237,7.398 56.237,9.21C56.215,11.034 55.169,11.94 53.067,11.94Z" style="fill:rgb(243,243,243);fill-rule:nonzero;"/>
            </g>
            <g transform="matrix(1,0,0,1,54853.2,27195.2)">
                <path d="M61.021,5.159L60.614,5.159L60.614,17.814C60.614,18.47 61.154,19.005 61.814,19.005L62.221,19.005L62.221,6.349C62.21,5.694 61.671,5.159 61.021,5.159Z" style="fill:rgb(243,243,243);fill-rule:nonzero;"/>
            </g>
            <g transform="matrix(1,0,0,1,54853.2,27195.2)">
                <path d="M73.775,13.125C73.335,12.557 72.696,12.153 71.86,11.924C72.564,11.662 73.125,11.236 73.511,10.658C73.907,10.068 74.116,9.369 74.116,8.572C74.116,7.513 73.742,6.65 73.004,6.039C72.267,5.406 71.265,5.1 70,5.1C69.185,5.1 68.393,5.242 67.634,5.526C67.303,5.657 66.995,5.788 66.72,5.952C66.115,6.29 65.95,7.076 66.324,7.644L66.456,7.819C67.028,7.349 67.6,7.011 68.173,6.781C68.745,6.552 69.339,6.443 69.956,6.443C70.77,6.443 71.397,6.639 71.838,7.043C72.278,7.437 72.509,8.004 72.509,8.747C72.509,9.588 72.234,10.243 71.695,10.68C71.133,11.138 70.363,11.346 69.328,11.346L68.602,11.346C68.393,11.346 68.228,11.411 68.096,11.542C67.964,11.673 67.92,11.837 67.92,12.012C67.92,12.186 67.986,12.35 68.096,12.481C68.228,12.612 68.393,12.689 68.602,12.689L69.637,12.689C71.75,12.689 72.817,13.529 72.817,15.211C72.817,16.041 72.575,16.674 72.058,17.111C71.552,17.548 70.814,17.777 69.846,17.777C69.174,17.777 68.547,17.668 67.975,17.449C67.402,17.22 66.808,16.882 66.203,16.39L66.071,16.565C65.674,17.155 65.873,17.93 66.478,18.268C66.753,18.432 67.072,18.563 67.391,18.672C68.184,18.967 68.987,19.098 69.835,19.098C71.232,19.098 72.344,18.76 73.147,18.072C73.962,17.384 74.358,16.445 74.358,15.244C74.424,14.414 74.215,13.704 73.775,13.125Z" style="fill:rgb(243,243,243);fill-rule:nonzero;"/>
            </g>
            <g transform="matrix(1,0,0,1,54853.2,27195.2)">
                <path d="M89.529,7.163L84.035,7.163C83.96,7.163 83.928,7.195 83.928,7.269L83.928,10.511C83.928,10.585 83.96,10.617 84.035,10.617L89.604,10.617C90.194,10.617 90.718,11.095 90.718,11.722C90.718,12.275 90.236,12.753 89.679,12.753L84.046,12.753C83.971,12.753 83.938,12.785 83.938,12.859L83.938,16.249C83.938,16.323 83.971,16.355 84.046,16.355L89.647,16.355C90.761,16.355 91.693,17.28 91.693,18.385C91.693,18.459 91.661,18.491 91.586,18.491L81.678,18.491C81.603,18.491 81.571,18.459 81.571,18.385L81.571,5.176C81.571,5.102 81.603,5.07 81.678,5.07L91.468,5.07C91.543,5.07 91.575,5.102 91.575,5.176C91.565,6.281 90.676,7.163 89.529,7.163Z" style="fill:rgb(243,243,243);fill-rule:nonzero;"/>
            </g>
            <g transform="matrix(1,0,0,1,54853.2,27195.2)">
                <path d="M105.361,17.31C105.011,17.606 104.631,17.86 104.221,18.04C103.801,18.262 103.351,18.41 102.871,18.516C102.391,18.622 101.832,18.664 101.242,18.664C100.302,18.664 99.472,18.485 98.683,18.114C97.883,17.744 97.233,17.268 96.643,16.643C96.093,16.019 95.643,15.289 95.293,14.442C94.983,13.596 94.814,12.686 94.814,11.733C94.814,10.781 94.983,9.903 95.293,9.056C95.603,8.209 96.053,7.479 96.643,6.855C97.233,6.231 97.893,5.723 98.683,5.352C99.482,4.982 100.342,4.802 101.312,4.802C101.902,4.802 102.421,4.834 102.901,4.95C103.381,5.056 103.801,5.204 104.221,5.395C104.601,5.574 104.981,5.797 105.331,6.051C105.641,6.273 105.921,6.527 106.2,6.823C106.23,6.855 106.23,6.929 106.2,7.003L105.681,7.627C105.231,8.178 104.471,8.283 103.881,7.881C103.671,7.733 103.431,7.585 103.221,7.479C102.671,7.183 102.012,7.035 101.282,7.035C100.692,7.035 100.142,7.141 99.622,7.405C99.102,7.659 98.653,7.987 98.303,8.432C97.923,8.876 97.643,9.352 97.433,9.934C97.223,10.516 97.123,11.109 97.123,11.765C97.123,12.421 97.223,13.045 97.433,13.638C97.643,14.22 97.913,14.739 98.303,15.141C98.683,15.585 99.132,15.913 99.622,16.167C100.142,16.421 100.692,16.537 101.282,16.537C102.042,16.537 102.701,16.389 103.251,16.061C103.561,15.881 103.871,15.691 104.151,15.437C104.601,15.109 105.191,15.141 105.571,15.543L106.23,16.241C106.26,16.273 106.26,16.347 106.23,16.389C106.011,16.76 105.671,17.056 105.361,17.31Z" style="fill:white;fill-rule:nonzero;"/>
            </g>
            <g transform="matrix(1,0,0,1,54853.2,27195.2)">
                <path d="M116.14,18.932C114.839,18.932 113.699,18.645 112.717,18.072C111.748,17.498 110.996,16.695 110.461,15.663C109.926,14.617 109.658,13.394 109.658,11.992C109.658,10.934 109.811,9.984 110.117,9.143C110.423,8.289 110.856,7.562 111.417,6.963C111.991,6.351 112.673,5.886 113.463,5.567C114.266,5.236 115.158,5.07 116.14,5.07C117.452,5.07 118.593,5.357 119.562,5.93C120.531,6.491 121.283,7.288 121.818,8.321C122.353,9.353 122.621,10.57 122.621,11.973C122.621,13.031 122.468,13.987 122.162,14.841C121.856,15.695 121.417,16.427 120.843,17.039C120.282,17.651 119.6,18.123 118.797,18.454C118.007,18.773 117.121,18.932 116.14,18.932ZM116.14,16.829C116.968,16.829 117.669,16.638 118.243,16.255C118.829,15.873 119.275,15.319 119.581,14.592C119.9,13.865 120.059,12.999 120.059,11.992C120.059,10.462 119.715,9.277 119.027,8.435C118.351,7.594 117.389,7.173 116.14,7.173C115.324,7.173 114.623,7.364 114.036,7.747C113.45,8.117 112.998,8.665 112.679,9.391C112.373,10.105 112.22,10.972 112.22,11.992C112.22,13.509 112.564,14.694 113.252,15.548C113.941,16.402 114.903,16.829 116.14,16.829Z" style="fill:white;fill-rule:nonzero;"/>
            </g>
            <g transform="matrix(1,0,0,1,54853.2,27195.2)">
                <path d="M131.75,18.932C131.189,18.932 130.628,18.888 130.067,18.798C129.506,18.722 128.977,18.601 128.48,18.435C127.983,18.257 127.537,18.04 127.142,17.785C126.912,17.632 126.753,17.447 126.664,17.231C126.574,17.014 126.543,16.804 126.568,16.6C126.606,16.383 126.689,16.198 126.817,16.045C126.957,15.879 127.129,15.777 127.333,15.739C127.537,15.701 127.76,15.758 128.002,15.911C128.563,16.243 129.156,16.485 129.78,16.638C130.405,16.791 131.061,16.867 131.75,16.867C132.756,16.867 133.489,16.702 133.948,16.37C134.407,16.026 134.637,15.586 134.637,15.051C134.637,14.605 134.471,14.254 134.139,13.999C133.821,13.744 133.266,13.534 132.476,13.368L130.373,12.929C129.162,12.674 128.257,12.246 127.658,11.647C127.072,11.036 126.778,10.233 126.778,9.238C126.778,8.614 126.906,8.046 127.161,7.537C127.416,7.027 127.773,6.587 128.231,6.217C128.703,5.848 129.258,5.567 129.895,5.376C130.545,5.172 131.259,5.07 132.036,5.07C132.801,5.07 133.528,5.166 134.216,5.357C134.904,5.548 135.522,5.829 136.071,6.198C136.275,6.338 136.408,6.51 136.472,6.714C136.549,6.918 136.568,7.122 136.529,7.326C136.491,7.517 136.402,7.683 136.262,7.823C136.122,7.964 135.943,8.046 135.726,8.072C135.522,8.097 135.287,8.034 135.019,7.881C134.547,7.613 134.069,7.422 133.585,7.307C133.101,7.192 132.578,7.135 132.017,7.135C131.431,7.135 130.927,7.218 130.507,7.384C130.086,7.549 129.761,7.785 129.532,8.091C129.315,8.384 129.207,8.735 129.207,9.143C129.207,9.602 129.36,9.971 129.665,10.252C129.971,10.519 130.494,10.73 131.233,10.883L133.317,11.322C134.579,11.59 135.516,12.011 136.128,12.584C136.753,13.158 137.065,13.923 137.065,14.879C137.065,15.491 136.937,16.045 136.682,16.542C136.44,17.039 136.083,17.466 135.612,17.823C135.153,18.18 134.598,18.454 133.948,18.645C133.298,18.837 132.565,18.932 131.75,18.932Z" style="fill:white;fill-rule:nonzero;"/>
            </g>
            <g transform="matrix(1,0,0,1,54853.2,27195.2)">
                <path d="M139.314,5.07L140.919,5.07C141.673,5.07 142.377,5.448 142.794,6.076L145.562,10.248L148.48,6.038C148.9,5.432 149.591,5.07 150.329,5.07L151.963,5.07L146.789,12.381L146.789,18.567L144.342,18.567L144.342,12.381L139.314,5.07Z" style="fill:rgb(243,243,243);fill-rule:nonzero;"/>
            </g>
            <g transform="matrix(1,0,0,1,54853.2,27195.2)">
                <path d="M159.402,18.933C158.841,18.933 158.28,18.888 157.72,18.799C157.159,18.722 156.63,18.601 156.133,18.435C155.636,18.257 155.189,18.04 154.794,17.785C154.565,17.632 154.405,17.448 154.316,17.231C154.227,17.014 154.195,16.804 154.221,16.6C154.259,16.383 154.342,16.198 154.469,16.045C154.609,15.88 154.782,15.778 154.985,15.739C155.189,15.701 155.412,15.759 155.655,15.912C156.215,16.243 156.808,16.485 157.433,16.638C158.057,16.791 158.714,16.868 159.402,16.868C160.409,16.868 161.142,16.702 161.601,16.37C162.06,16.026 162.289,15.586 162.289,15.051C162.289,14.605 162.123,14.254 161.792,14C161.473,13.745 160.919,13.534 160.129,13.368L158.025,12.929C156.815,12.674 155.91,12.247 155.31,11.648C154.724,11.036 154.431,10.233 154.431,9.239C154.431,8.614 154.558,8.047 154.813,7.537C155.068,7.027 155.425,6.587 155.884,6.218C156.356,5.848 156.91,5.567 157.547,5.376C158.198,5.172 158.911,5.07 159.689,5.07C160.454,5.07 161.18,5.166 161.869,5.357C162.557,5.548 163.175,5.829 163.723,6.198C163.927,6.339 164.061,6.511 164.125,6.715C164.201,6.919 164.22,7.123 164.182,7.327C164.144,7.518 164.055,7.683 163.914,7.824C163.774,7.964 163.596,8.047 163.379,8.072C163.175,8.098 162.939,8.034 162.672,7.881C162.2,7.613 161.722,7.422 161.238,7.307C160.753,7.193 160.231,7.135 159.67,7.135C159.083,7.135 158.58,7.218 158.159,7.384C157.739,7.55 157.414,7.785 157.184,8.091C156.968,8.384 156.859,8.735 156.859,9.143C156.859,9.602 157.012,9.971 157.318,10.252C157.624,10.52 158.147,10.73 158.886,10.883L160.97,11.323C162.232,11.59 163.169,12.011 163.781,12.585C164.405,13.158 164.717,13.923 164.717,14.879C164.717,15.491 164.59,16.045 164.335,16.542C164.093,17.04 163.736,17.467 163.264,17.824C162.805,18.18 162.251,18.455 161.601,18.646C160.951,18.837 160.218,18.933 159.402,18.933Z" style="fill:white;fill-rule:nonzero;"/>
            </g>
            <g transform="matrix(1,0,0,1,54853.2,27195.2)">
                <path d="M174.282,7.35C174.282,7.305 174.318,7.268 174.364,7.268L176.511,7.268C177.643,7.268 178.561,6.35 178.561,5.217L178.561,5.152C178.561,5.107 178.525,5.07 178.479,5.07L169.252,5.07C168.346,5.07 167.612,5.805 167.612,6.711L167.612,7.186C167.612,7.231 167.648,7.268 167.694,7.268L171.809,7.268C171.854,7.268 171.891,7.305 171.891,7.35L171.891,18.485C171.891,18.53 171.928,18.567 171.973,18.567L172.887,18.567C173.657,18.567 174.282,17.942 174.282,17.172L174.282,7.35Z" style="fill:rgb(243,243,243);fill-rule:nonzero;"/>
            </g>
            <g transform="matrix(1,0,0,1,54853.2,27195.2)">
                <path d="M189.891,7.163L184.396,7.163C184.321,7.163 184.289,7.195 184.289,7.27L184.289,10.511C184.289,10.585 184.321,10.617 184.396,10.617L189.966,10.617C190.555,10.617 191.08,11.095 191.08,11.722C191.08,12.275 190.598,12.753 190.041,12.753L184.407,12.753C184.332,12.753 184.3,12.785 184.3,12.859L184.3,16.249C184.3,16.323 184.332,16.355 184.407,16.355L190.009,16.355C191.123,16.355 192.055,17.28 192.055,18.385C192.055,18.459 192.022,18.491 191.947,18.491L182.04,18.491C181.965,18.491 181.933,18.459 181.933,18.385L181.933,5.176C181.933,5.102 181.965,5.07 182.04,5.07L191.83,5.07C191.905,5.07 191.937,5.102 191.937,5.176C191.926,6.281 191.037,7.163 189.891,7.163Z" style="fill:rgb(243,243,243);fill-rule:nonzero;"/>
            </g>
            <g transform="matrix(1,0,0,1,54853.2,27195.2)">
                <path d="M206.323,8.888L206.323,16.516C206.323,17.648 207.241,18.567 208.373,18.567L208.612,18.567C208.657,18.567 208.694,18.53 208.694,18.485L208.694,5.193C208.694,5.125 208.639,5.07 208.571,5.07L207.286,5.07C206.589,5.07 205.94,5.424 205.563,6.01L202.124,11.345C202.091,11.395 202.018,11.395 201.986,11.345L198.561,6.013C198.184,5.425 197.534,5.07 196.836,5.07L195.554,5.07C195.486,5.07 195.431,5.125 195.431,5.193L195.431,18.485C195.431,18.53 195.467,18.567 195.513,18.567L195.712,18.567C196.845,18.567 197.763,17.648 197.763,16.516L197.763,8.926L201.713,14.747C201.876,14.988 202.231,14.987 202.393,14.746L206.323,8.888Z" style="fill:rgb(243,243,243);fill-rule:nonzero;"/>
            </g>
        </g>
    </g>
    <defs>
        <linearGradient id="_Linear1" x1="0" y1="0" x2="1" y2="0" gradientUnits="userSpaceOnUse" gradientTransform="matrix(-1.91271,-18.343,18.343,-1.91271,6.379,23.9302)"><stop offset="0" style="stop-color:rgb(195,196,195);stop-opacity:1"/><stop offset="0.09" style="stop-color:rgb(216,216,216);stop-opacity:1"/><stop offset="0.21" style="stop-color:rgb(233,234,233);stop-opacity:1"/><stop offset="0.35" style="stop-color:rgb(246,246,246);stop-opacity:1"/><stop offset="0.55" style="stop-color:rgb(253,253,253);stop-opacity:1"/><stop offset="1" style="stop-color:white;stop-opacity:1"/></linearGradient>
        <linearGradient id="_Linear2" x1="0" y1="0" x2="1" y2="0" gradientUnits="userSpaceOnUse" gradientTransform="matrix(-14.892,10.9057,-10.9057,-14.892,24.4482,18.3369)"><stop offset="0" style="stop-color:rgb(195,196,195);stop-opacity:1"/><stop offset="0.09" style="stop-color:rgb(216,216,216);stop-opacity:1"/><stop offset="0.21" style="stop-color:rgb(233,234,233);stop-opacity:1"/><stop offset="0.35" style="stop-color:rgb(246,246,246);stop-opacity:1"/><stop offset="0.55" style="stop-color:rgb(253,253,253);stop-opacity:1"/><stop offset="1" style="stop-color:white;stop-opacity:1"/></linearGradient>
        <linearGradient id="_Linear3" x1="0" y1="0" x2="1" y2="0" gradientUnits="userSpaceOnUse" gradientTransform="matrix(17.0801,7.66496,-7.66496,17.0801,10.4459,5.56284)"><stop offset="0" style="stop-color:rgb(195,196,195);stop-opacity:1"/><stop offset="0.09" style="stop-color:rgb(216,216,216);stop-opacity:1"/><stop offset="0.21" style="stop-color:rgb(233,234,233);stop-opacity:1"/><stop offset="0.35" style="stop-color:rgb(246,246,246);stop-opacity:1"/><stop offset="0.55" style="stop-color:rgb(253,253,253);stop-opacity:1"/><stop offset="1" style="stop-color:white;stop-opacity:1"/></linearGradient>
        <linearGradient id="_Linear4" x1="0" y1="0" x2="1" y2="0" gradientUnits="userSpaceOnUse" gradientTransform="matrix(-1.50337,-14.4153,14.4153,-1.50337,8.44755,23.7097)"><stop offset="0" style="stop-color:rgb(183,184,184);stop-opacity:1"/><stop offset="0.11" style="stop-color:rgb(201,202,202);stop-opacity:1"/><stop offset="0.3" style="stop-color:rgb(225,225,225);stop-opacity:1"/><stop offset="0.5" style="stop-color:rgb(242,242,242);stop-opacity:1"/><stop offset="0.73" style="stop-color:rgb(252,252,252);stop-opacity:1"/><stop offset="1" style="stop-color:white;stop-opacity:1"/></linearGradient>
        <linearGradient id="_Linear5" x1="0" y1="0" x2="1" y2="0" gradientUnits="userSpaceOnUse" gradientTransform="matrix(13.536,6.07451,-6.07451,13.536,9.57234,7.51119)"><stop offset="0" style="stop-color:rgb(183,184,184);stop-opacity:1"/><stop offset="0.11" style="stop-color:rgb(201,202,202);stop-opacity:1"/><stop offset="0.3" style="stop-color:rgb(225,225,225);stop-opacity:1"/><stop offset="0.5" style="stop-color:rgb(242,242,242);stop-opacity:1"/><stop offset="0.73" style="stop-color:rgb(252,252,252);stop-opacity:1"/><stop offset="1" style="stop-color:white;stop-opacity:1"/></linearGradient>
        <linearGradient id="_Linear6" x1="0" y1="0" x2="1" y2="0" gradientUnits="userSpaceOnUse" gradientTransform="matrix(-11.8215,8.6571,-8.6571,-11.8215,23.2481,16.6962)"><stop offset="0" style="stop-color:rgb(183,184,184);stop-opacity:1"/><stop offset="0.11" style="stop-color:rgb(201,202,202);stop-opacity:1"/><stop offset="0.3" style="stop-color:rgb(225,225,225);stop-opacity:1"/><stop offset="0.5" style="stop-color:rgb(242,242,242);stop-opacity:1"/><stop offset="0.73" style="stop-color:rgb(252,252,252);stop-opacity:1"/><stop offset="1" style="stop-color:white;stop-opacity:1"/></linearGradient>
        <linearGradient id="_Linear7" x1="0" y1="0" x2="1" y2="0" gradientUnits="userSpaceOnUse" gradientTransform="matrix(-2.89459,-10.1734,10.1734,-2.89459,11.1404,22.5545)"><stop offset="0" style="stop-color:rgb(183,184,184);stop-opacity:1"/><stop offset="0.21" style="stop-color:rgb(206,206,206);stop-opacity:1"/><stop offset="0.52" style="stop-color:rgb(233,233,233);stop-opacity:1"/><stop offset="0.79" style="stop-color:rgb(249,249,249);stop-opacity:1"/><stop offset="1" style="stop-color:white;stop-opacity:1"/></linearGradient>
        <linearGradient id="_Linear8" x1="0" y1="0" x2="1" y2="0" gradientUnits="userSpaceOnUse" gradientTransform="matrix(-7.3258,7.6465,-7.6465,-7.3258,20.846,14.9977)"><stop offset="0" style="stop-color:rgb(183,184,184);stop-opacity:1"/><stop offset="0.21" style="stop-color:rgb(206,206,206);stop-opacity:1"/><stop offset="0.52" style="stop-color:rgb(233,233,233);stop-opacity:1"/><stop offset="0.79" style="stop-color:rgb(249,249,249);stop-opacity:1"/><stop offset="1" style="stop-color:white;stop-opacity:1"/></linearGradient>
        <linearGradient id="_Linear9" x1="0" y1="0" x2="1" y2="0" gradientUnits="userSpaceOnUse" gradientTransform="matrix(10.4749,2.6325,-2.6325,10.4749,9.27907,10.5283)"><stop offset="0" style="stop-color:rgb(183,184,184);stop-opacity:1"/><stop offset="0.21" style="stop-color:rgb(206,206,206);stop-opacity:1"/><stop offset="0.52" style="stop-color:rgb(233,233,233);stop-opacity:1"/><stop offset="0.79" style="stop-color:rgb(249,249,249);stop-opacity:1"/><stop offset="1" style="stop-color:white;stop-opacity:1"/></linearGradient>
        <linearGradient id="_Linear10" x1="0" y1="0" x2="1" y2="0" gradientUnits="userSpaceOnUse" gradientTransform="matrix(7.79711,0.6187,-0.6187,7.79711,9.58199,12.9759)"><stop offset="0" style="stop-color:rgb(171,172,172);stop-opacity:1"/><stop offset="0.18" style="stop-color:rgb(189,189,189);stop-opacity:1"/><stop offset="0.73" style="stop-color:rgb(237,237,237);stop-opacity:1"/><stop offset="1" style="stop-color:white;stop-opacity:1"/></linearGradient>
        <linearGradient id="_Linear11" x1="0" y1="0" x2="1" y2="0" gradientUnits="userSpaceOnUse" gradientTransform="matrix(-3.32143,-6.8631,6.8631,-3.32143,13.2074,21.0621)"><stop offset="0" style="stop-color:rgb(171,172,172);stop-opacity:1"/><stop offset="0.18" style="stop-color:rgb(189,189,189);stop-opacity:1"/><stop offset="0.73" style="stop-color:rgb(237,237,237);stop-opacity:1"/><stop offset="1" style="stop-color:white;stop-opacity:1"/></linearGradient>
        <linearGradient id="_Linear12" x1="0" y1="0" x2="1" y2="0" gradientUnits="userSpaceOnUse" gradientTransform="matrix(-4.2524,6.3547,-6.3547,-4.2524,18.5565,14.0408)"><stop offset="0" style="stop-color:rgb(171,172,172);stop-opacity:1"/><stop offset="0.18" style="stop-color:rgb(189,189,189);stop-opacity:1"/><stop offset="0.73" style="stop-color:rgb(237,237,237);stop-opacity:1"/><stop offset="1" style="stop-color:white;stop-opacity:1"/></linearGradient>
        <linearGradient id="_Linear13" x1="0" y1="0" x2="1" y2="0" gradientUnits="userSpaceOnUse" gradientTransform="matrix(4.9088,-1.8504,1.8504,4.9088,10.5828,14.9466)"><stop offset="0" style="stop-color:rgb(159,160,160);stop-opacity:1"/><stop offset="0.17" style="stop-color:rgb(165,166,166);stop-opacity:1"/><stop offset="0.4" style="stop-color:rgb(182,182,182);stop-opacity:1"/><stop offset="0.66" style="stop-color:rgb(209,209,209);stop-opacity:1"/><stop offset="0.94" style="stop-color:rgb(246,246,246);stop-opacity:1"/><stop offset="1" style="stop-color:white;stop-opacity:1"/></linearGradient>
        <linearGradient id="_Linear14" x1="0" y1="0" x2="1" y2="0" gradientUnits="userSpaceOnUse" gradientTransform="matrix(-3.9358,-3.3283,3.3283,-3.9358,14.3908,19.3374)"><stop offset="0" style="stop-color:rgb(159,160,160);stop-opacity:1"/><stop offset="0.17" style="stop-color:rgb(165,166,166);stop-opacity:1"/><stop offset="0.4" style="stop-color:rgb(182,182,182);stop-opacity:1"/><stop offset="0.66" style="stop-color:rgb(209,209,209);stop-opacity:1"/><stop offset="0.94" style="stop-color:rgb(246,246,246);stop-opacity:1"/><stop offset="1" style="stop-color:white;stop-opacity:1"/></linearGradient>
        <linearGradient id="_Linear15" x1="0" y1="0" x2="1" y2="0" gradientUnits="userSpaceOnUse" gradientTransform="matrix(-0.8888,5.0798,-5.0798,-0.8888,16.3913,13.8798)"><stop offset="0" style="stop-color:rgb(159,160,160);stop-opacity:1"/><stop offset="0.17" style="stop-color:rgb(165,166,166);stop-opacity:1"/><stop offset="0.4" style="stop-color:rgb(182,182,182);stop-opacity:1"/><stop offset="0.66" style="stop-color:rgb(209,209,209);stop-opacity:1"/><stop offset="0.94" style="stop-color:rgb(246,246,246);stop-opacity:1"/><stop offset="1" style="stop-color:white;stop-opacity:1"/></linearGradient>
        <linearGradient id="_Linear16" x1="0" y1="0" x2="1" y2="0" gradientUnits="userSpaceOnUse" gradientTransform="matrix(-1.91271,-18.343,18.343,-1.91271,6.37904,23.9327)"><stop offset="0" style="stop-color:rgb(195,196,195);stop-opacity:1"/><stop offset="0.09" style="stop-color:rgb(216,216,216);stop-opacity:1"/><stop offset="0.21" style="stop-color:rgb(233,234,233);stop-opacity:1"/><stop offset="0.35" style="stop-color:rgb(246,246,246);stop-opacity:1"/><stop offset="0.55" style="stop-color:rgb(253,253,253);stop-opacity:1"/><stop offset="1" style="stop-color:white;stop-opacity:1"/></linearGradient>
        <linearGradient id="_Linear17" x1="0" y1="0" x2="1" y2="0" gradientUnits="userSpaceOnUse" gradientTransform="matrix(-14.892,10.9057,-10.9057,-14.892,24.4482,18.3369)"><stop offset="0" style="stop-color:rgb(195,196,195);stop-opacity:1"/><stop offset="0.09" style="stop-color:rgb(216,216,216);stop-opacity:1"/><stop offset="0.21" style="stop-color:rgb(233,234,233);stop-opacity:1"/><stop offset="0.35" style="stop-color:rgb(246,246,246);stop-opacity:1"/><stop offset="0.55" style="stop-color:rgb(253,253,253);stop-opacity:1"/><stop offset="1" style="stop-color:white;stop-opacity:1"/></linearGradient>
        <linearGradient id="_Linear18" x1="0" y1="0" x2="1" y2="0" gradientUnits="userSpaceOnUse" gradientTransform="matrix(17.0801,7.66496,-7.66496,17.0801,10.4459,5.56284)"><stop offset="0" style="stop-color:rgb(195,196,195);stop-opacity:1"/><stop offset="0.09" style="stop-color:rgb(216,216,216);stop-opacity:1"/><stop offset="0.21" style="stop-color:rgb(233,234,233);stop-opacity:1"/><stop offset="0.35" style="stop-color:rgb(246,246,246);stop-opacity:1"/><stop offset="0.55" style="stop-color:rgb(253,253,253);stop-opacity:1"/><stop offset="1" style="stop-color:white;stop-opacity:1"/></linearGradient>
        <linearGradient id="_Linear19" x1="0" y1="0" x2="1" y2="0" gradientUnits="userSpaceOnUse" gradientTransform="matrix(-1.50337,-14.4153,14.4153,-1.50337,8.44755,23.7097)"><stop offset="0" style="stop-color:rgb(183,184,184);stop-opacity:1"/><stop offset="0.11" style="stop-color:rgb(201,202,202);stop-opacity:1"/><stop offset="0.3" style="stop-color:rgb(225,225,225);stop-opacity:1"/><stop offset="0.5" style="stop-color:rgb(242,242,242);stop-opacity:1"/><stop offset="0.73" style="stop-color:rgb(252,252,252);stop-opacity:1"/><stop offset="1" style="stop-color:white;stop-opacity:1"/></linearGradient>
        <linearGradient id="_Linear20" x1="0" y1="0" x2="1" y2="0" gradientUnits="userSpaceOnUse" gradientTransform="matrix(-11.8215,8.6571,-8.6571,-11.8215,23.2481,16.6962)"><stop offset="0" style="stop-color:rgb(183,184,184);stop-opacity:1"/><stop offset="0.11" style="stop-color:rgb(201,202,202);stop-opacity:1"/><stop offset="0.3" style="stop-color:rgb(225,225,225);stop-opacity:1"/><stop offset="0.5" style="stop-color:rgb(242,242,242);stop-opacity:1"/><stop offset="0.73" style="stop-color:rgb(252,252,252);stop-opacity:1"/><stop offset="1" style="stop-color:white;stop-opacity:1"/></linearGradient>
        <linearGradient id="_Linear21" x1="0" y1="0" x2="1" y2="0" gradientUnits="userSpaceOnUse" gradientTransform="matrix(-2.89459,-10.1734,10.1734,-2.89459,11.1404,22.5545)"><stop offset="0" style="stop-color:rgb(183,184,184);stop-opacity:1"/><stop offset="0.21" style="stop-color:rgb(206,206,206);stop-opacity:1"/><stop offset="0.52" style="stop-color:rgb(233,233,233);stop-opacity:1"/><stop offset="0.79" style="stop-color:rgb(249,249,249);stop-opacity:1"/><stop offset="1" style="stop-color:white;stop-opacity:1"/></linearGradient>
        <linearGradient id="_Linear22" x1="0" y1="0" x2="1" y2="0" gradientUnits="userSpaceOnUse" gradientTransform="matrix(-7.3258,7.6465,-7.6465,-7.3258,20.846,14.9977)"><stop offset="0" style="stop-color:rgb(183,184,184);stop-opacity:1"/><stop offset="0.21" style="stop-color:rgb(206,206,206);stop-opacity:1"/><stop offset="0.52" style="stop-color:rgb(233,233,233);stop-opacity:1"/><stop offset="0.79" style="stop-color:rgb(249,249,249);stop-opacity:1"/><stop offset="1" style="stop-color:white;stop-opacity:1"/></linearGradient>
        <linearGradient id="_Linear23" x1="0" y1="0" x2="1" y2="0" gradientUnits="userSpaceOnUse" gradientTransform="matrix(-3.32143,-6.8631,6.8631,-3.32143,13.2074,21.0621)"><stop offset="0" style="stop-color:rgb(171,172,172);stop-opacity:1"/><stop offset="0.18" style="stop-color:rgb(189,189,189);stop-opacity:1"/><stop offset="0.73" style="stop-color:rgb(237,237,237);stop-opacity:1"/><stop offset="1" style="stop-color:white;stop-opacity:1"/></linearGradient>
        <linearGradient id="_Linear24" x1="0" y1="0" x2="1" y2="0" gradientUnits="userSpaceOnUse" gradientTransform="matrix(-4.2524,6.3547,-6.3547,-4.2524,18.5565,14.0408)"><stop offset="0" style="stop-color:rgb(171,172,172);stop-opacity:1"/><stop offset="0.18" style="stop-color:rgb(189,189,189);stop-opacity:1"/><stop offset="0.73" style="stop-color:rgb(237,237,237);stop-opacity:1"/><stop offset="1" style="stop-color:white;stop-opacity:1"/></linearGradient>
        <linearGradient id="_Linear25" x1="0" y1="0" x2="1" y2="0" gradientUnits="userSpaceOnUse" gradientTransform="matrix(-3.9358,-3.3283,3.3283,-3.9358,14.3908,19.3374)"><stop offset="0" style="stop-color:rgb(159,160,160);stop-opacity:1"/><stop offset="0.17" style="stop-color:rgb(165,166,166);stop-opacity:1"/><stop offset="0.4" style="stop-color:rgb(182,182,182);stop-opacity:1"/><stop offset="0.66" style="stop-color:rgb(209,209,209);stop-opacity:1"/><stop offset="0.94" style="stop-color:rgb(246,246,246);stop-opacity:1"/><stop offset="1" style="stop-color:white;stop-opacity:1"/></linearGradient>
        <linearGradient id="_Linear26" x1="0" y1="0" x2="1" y2="0" gradientUnits="userSpaceOnUse" gradientTransform="matrix(-0.8888,5.0798,-5.0798,-0.8888,16.3913,13.8798)"><stop offset="0" style="stop-color:rgb(159,160,160);stop-opacity:1"/><stop offset="0.17" style="stop-color:rgb(165,166,166);stop-opacity:1"/><stop offset="0.4" style="stop-color:rgb(182,182,182);stop-opacity:1"/><stop offset="0.66" style="stop-color:rgb(209,209,209);stop-opacity:1"/><stop offset="0.94" style="stop-color:rgb(246,246,246);stop-opacity:1"/><stop offset="1" style="stop-color:white;stop-opacity:1"/></linearGradient>
    </defs>
</svg>
