<?xml version="1.0" encoding="UTF-8" standalone="no"?>
<!DOCTYPE svg PUBLIC "-//W3C//DTD SVG 1.1//EN" "http://www.w3.org/Graphics/SVG/1.1/DTD/svg11.dtd">
<svg width="100%" height="100%" viewBox="0 0 781 93" version="1.1" xmlns="http://www.w3.org/2000/svg" xmlns:xlink="http://www.w3.org/1999/xlink" xml:space="preserve" xmlns:serif="http://www.serif.com/" style="fill-rule:evenodd;clip-rule:evenodd;stroke-linejoin:round;stroke-miterlimit:2;">
    <g transform="matrix(1,0,0,1,-25176,-13096.8)">
        <g transform="matrix(1,0,0,1,19344.9,18078.9)">
            <g transform="matrix(2.98891,0,0,2.98891,5532.18,-5177.37)">
                <clipPath id="_clip1">
                    <rect x="100" y="60" width="100" height="41.59"/>
                </clipPath>
                <g clip-path="url(#_clip1)">
                    <path d="M117.811,65.5C117.712,65.33 117.5,65.274 117.344,65.373C117.288,65.401 117.246,65.443 117.217,65.5L100.042,95.709C99.943,95.878 100.014,96.09 100.169,96.175C100.226,96.203 100.282,96.217 100.339,96.217L134.957,96.217C135.141,96.217 135.296,96.062 135.296,95.878C135.296,95.822 135.282,95.751 135.254,95.709L117.811,65.5ZM114.082,85.088L120.24,83.408L118.573,89.523L114.082,85.088Z" style="fill:white;fill-rule:nonzero;"/>
                    <path d="M100.339,96.231L107.302,96.231L113.7,71.7L100.042,95.723C99.943,95.892 100.014,96.104 100.169,96.189C100.226,96.217 100.282,96.231 100.339,96.231Z" style="fill:white;fill-rule:nonzero;"/>
                    <path d="M131.85,89.805L107.302,96.232L134.958,96.232C135.141,96.232 135.297,96.077 135.297,95.893C135.297,95.837 135.282,95.766 135.254,95.724L131.85,89.805Z" style="fill:white;fill-rule:nonzero;"/>
                    <path d="M128.079,86.049L131.85,89.806L117.825,65.514C117.726,65.344 117.514,65.288 117.358,65.387C117.302,65.415 117.26,65.457 117.231,65.514L113.714,71.714L128.079,86.035L128.079,86.049Z" style="fill:white;fill-rule:nonzero;"/>
                    <path d="M107.302,96.232L112.359,94.904L112.33,76.94L107.302,96.232Z" style="fill:white;fill-rule:nonzero;"/>
                    <path d="M112.331,76.939L128.079,86.049L113.701,71.7L112.331,76.939Z" style="fill:white;fill-rule:nonzero;"/>
                    <path d="M112.358,94.905L131.85,89.806L128.079,86.049L112.358,94.905Z" style="fill:white;fill-rule:nonzero;"/>
                    <path d="M112.358,94.904L115.734,92.997L112.344,80.753L112.358,94.904Z" style="fill:white;fill-rule:nonzero;"/>
                    <path d="M128.079,86.049L124.76,84.128L115.734,92.998L128.079,86.049Z" style="fill:white;fill-rule:nonzero;"/>
                    <path d="M112.345,80.753L124.76,84.129L112.331,76.94L112.345,80.753Z" style="fill:white;fill-rule:nonzero;"/>
                    <path d="M120.211,83.408L122.146,83.408L112.344,80.753L113.065,83.394L120.211,83.408Z" style="fill:white;fill-rule:nonzero;"/>
                    <path d="M114.054,85.06L113.065,83.394L115.734,92.998L117.613,91.148L114.082,85.089L114.054,85.06Z" style="fill:white;fill-rule:nonzero;"/>
                    <path d="M122.147,83.408L117.613,91.148L124.76,84.128L122.147,83.408Z" style="fill:white;fill-rule:nonzero;"/>
                    <path d="M120.24,83.408L113.065,83.394L114.082,85.089L120.24,83.408Z" style="fill:white;fill-rule:nonzero;"/>
                    <path d="M118.573,89.523L114.082,85.088L117.613,91.148L118.573,89.523Z" style="fill:white;fill-rule:nonzero;"/>
                    <path d="M122.147,83.408L120.24,83.408L118.573,89.524L122.147,83.408Z" style="fill:white;fill-rule:nonzero;"/>
                    <path d="M100.339,96.231L107.302,96.231L113.7,71.7L100.042,95.723C99.943,95.892 100.014,96.104 100.169,96.189C100.226,96.217 100.282,96.231 100.339,96.231Z" style="fill:url(#_Linear2);fill-rule:nonzero;"/>
                    <path d="M131.85,89.805L107.302,96.232L134.958,96.232C135.141,96.232 135.297,96.077 135.297,95.893C135.297,95.837 135.282,95.766 135.254,95.724L131.85,89.805Z" style="fill:url(#_Linear3);fill-rule:nonzero;"/>
                    <path d="M128.079,86.049L131.85,89.806L117.825,65.514C117.726,65.344 117.514,65.288 117.358,65.387C117.302,65.415 117.26,65.457 117.231,65.514L113.714,71.714L128.079,86.035L128.079,86.049Z" style="fill:url(#_Linear4);fill-rule:nonzero;"/>
                    <path d="M107.302,96.232L112.359,94.904L112.33,76.94L107.302,96.232Z" style="fill:url(#_Linear5);fill-rule:nonzero;"/>
                    <path d="M112.331,76.939L128.079,86.049L113.701,71.7L112.331,76.939Z" style="fill:url(#_Linear6);fill-rule:nonzero;"/>
                    <path d="M112.358,94.905L131.85,89.806L128.079,86.049L112.358,94.905Z" style="fill:url(#_Linear7);fill-rule:nonzero;"/>
                    <path d="M112.358,94.904L115.734,92.997L112.344,80.753L112.358,94.904Z" style="fill:url(#_Linear8);fill-rule:nonzero;"/>
                    <path d="M128.079,86.049L124.76,84.128L115.734,92.998L128.079,86.049Z" style="fill:url(#_Linear9);fill-rule:nonzero;"/>
                    <path d="M112.345,80.753L124.76,84.129L112.331,76.94L112.345,80.753Z" style="fill:url(#_Linear10);fill-rule:nonzero;"/>
                    <path d="M120.211,83.408L122.146,83.408L112.344,80.753L113.065,83.394L120.211,83.408Z" style="fill:url(#_Linear11);fill-rule:nonzero;"/>
                    <path d="M114.054,85.06L113.065,83.394L115.734,92.998L117.613,91.148L114.082,85.089L114.054,85.06Z" style="fill:url(#_Linear12);fill-rule:nonzero;"/>
                    <path d="M122.147,83.408L117.613,91.148L124.76,84.128L122.147,83.408Z" style="fill:url(#_Linear13);fill-rule:nonzero;"/>
                    <path d="M120.24,83.408L113.065,83.394L114.082,85.089L120.24,83.408Z" style="fill:url(#_Linear14);fill-rule:nonzero;"/>
                    <path d="M118.573,89.523L114.082,85.088L117.613,91.148L118.573,89.523Z" style="fill:url(#_Linear15);fill-rule:nonzero;"/>
                    <path d="M122.147,83.408L120.24,83.408L118.573,89.524L122.147,83.408Z" style="fill:url(#_Linear16);fill-rule:nonzero;"/>
                    <path d="M151.751,71.389C151.54,71.248 151.285,71.177 151.031,71.191C150.791,71.191 150.551,71.262 150.339,71.375C150.127,71.502 149.958,71.7 149.859,71.94L141.554,90.399L142.74,90.399C143.39,90.399 143.969,90.017 144.237,89.424L145.989,85.456L156.158,85.456L157.896,89.41C158.15,90.003 158.743,90.384 159.393,90.384L160.551,90.384L152.246,71.926C152.133,71.714 151.963,71.516 151.751,71.389ZM155.339,83.648L146.78,83.648L146.808,83.591L151.045,73.959L155.311,83.591L155.339,83.648Z" style="fill:white;fill-rule:nonzero;"/>
                    <path d="M175.523,72.801C174.421,71.841 172.881,71.347 170.89,71.347L164.534,71.347C164.237,71.332 163.941,71.431 163.715,71.643C163.503,71.841 163.39,72.123 163.404,72.42L163.404,90.399L163.969,90.399C164.873,90.399 165.607,89.664 165.607,88.76L165.607,82.504L170.89,82.504C172.853,82.504 174.393,82.009 175.509,81.035C176.624,80.046 177.175,78.676 177.175,76.897C177.161,75.132 176.61,73.762 175.523,72.801ZM170.678,80.696L165.607,80.696L165.607,73.183L170.678,73.183C173.559,73.183 175,74.425 175,76.911C175,79.425 173.545,80.696 170.678,80.696Z" style="fill:white;fill-rule:nonzero;"/>
                    <path d="M181.54,71.347L180.975,71.347L180.975,88.775C180.975,89.678 181.709,90.413 182.613,90.413L183.178,90.413L183.178,72.985C183.178,72.081 182.444,71.347 181.54,71.347Z" style="fill:white;fill-rule:nonzero;"/>
                    <path d="M198.983,82.306C198.39,81.515 197.514,80.964 196.37,80.64C197.302,80.315 198.093,79.693 198.644,78.874C199.195,78.027 199.491,77.024 199.463,76.021C199.463,74.553 198.955,73.394 197.952,72.519C196.935,71.643 195.579,71.22 193.856,71.22C192.754,71.22 191.652,71.417 190.621,71.813C190.183,71.968 189.76,72.166 189.35,72.406C188.573,72.858 188.305,73.846 188.757,74.623C188.771,74.651 188.799,74.694 188.827,74.722L188.997,74.976C189.703,74.383 190.508,73.889 191.356,73.536C192.133,73.225 192.966,73.07 193.799,73.07C194.915,73.07 195.762,73.338 196.37,73.889C196.977,74.44 197.288,75.216 197.288,76.233C197.288,77.391 196.907,78.281 196.158,78.902C195.409,79.524 194.336,79.835 192.938,79.835L191.949,79.835C191.455,79.806 191.031,80.188 191.017,80.682L191.017,80.753C191.017,80.993 191.101,81.233 191.271,81.416C191.44,81.614 191.695,81.713 191.949,81.699L193.375,81.699C196.271,81.699 197.726,82.857 197.726,85.159C197.726,86.303 197.387,87.179 196.695,87.786C196.003,88.393 195,88.704 193.672,88.704C192.811,88.704 191.935,88.563 191.13,88.252C190.254,87.899 189.435,87.404 188.714,86.811L188.545,87.066C188.037,87.814 188.234,88.831 188.983,89.339C189.025,89.368 189.068,89.396 189.11,89.41C189.505,89.636 189.929,89.82 190.353,89.975C191.426,90.37 192.556,90.568 193.7,90.568C195.621,90.568 197.133,90.088 198.234,89.142C199.336,88.195 199.901,86.896 199.901,85.258C199.873,84.071 199.576,83.083 198.983,82.306Z" style="fill:white;fill-rule:nonzero;"/>
                </g>
            </g>
            <g transform="matrix(1.33244,0,0,1.33244,4967.79,-5844.54)">
                <path d="M890.8,702.5L890.8,661.5L917.7,661.5L917.7,665.8L895.7,665.8L895.7,679.4L916,679.4L916,683.7L895.7,683.7L895.7,698.2L918,698.2L918,702.5L890.8,702.5Z" style="fill:white;fill-rule:nonzero;"/>
                <g transform="matrix(1,0,0,1,-33.4781,0)">
                    <path d="M956.5,682.7L956.5,681.1C956.5,669.1 963.9,660.8 975.2,660.8C984.5,660.8 990.9,666.7 991.9,675.8L986.9,675.8C985.9,669 981.4,665.1 975.1,665.1C966.6,665.1 961.6,671.7 961.6,681.1L961.6,682.7C961.6,692.1 966.7,698.7 975.1,698.7C982,698.7 986.6,694.1 986.9,687.4L991.9,687.4C991.2,696.4 984.8,703.1 975.1,703.1C964,703 956.5,694.9 956.5,682.7Z" style="fill:white;fill-rule:nonzero;"/>
                </g>
                <g transform="matrix(1,0,0,1,-67.2563,0)">
                    <path d="M1030.7,682.7L1030.7,681.1C1030.7,668.9 1038.1,660.8 1049.7,660.8C1061.3,660.8 1068.6,669 1068.6,681.1L1068.6,682.7C1068.6,694.8 1061.2,703 1049.7,703C1038.2,703 1030.7,694.8 1030.7,682.7ZM1063.6,682.7L1063.6,681.1C1063.6,671.5 1058.4,665.1 1049.7,665.1C1041,665.1 1035.8,671.4 1035.8,681.1L1035.8,682.7C1035.8,692.3 1041,698.7 1049.7,698.7C1058.4,698.7 1063.6,692.3 1063.6,682.7Z" style="fill:white;fill-rule:nonzero;"/>
                </g>
                <g transform="matrix(1,0,0,1,-101.034,0)">
                    <path d="M1107.4,689.4L1114.1,689.4C1114.7,695.1 1118.8,697.5 1124.5,697.5C1129.6,697.5 1133.3,695.5 1133.3,691.4L1133.3,691.1C1133.3,687.6 1130.8,685.8 1122.5,684.3C1112.4,682.5 1108.8,678.8 1108.8,672.7L1108.8,672.3C1108.8,665.6 1114.6,660.7 1123.6,660.7C1132.2,660.7 1138.4,665 1139.2,673.3L1132.5,673.3C1131.9,668.6 1128.6,666.2 1123.5,666.2C1118.4,666.2 1115.4,668.5 1115.4,672.1L1115.4,672.4C1115.4,675.6 1117.1,677.4 1125.3,678.7C1135.1,680.4 1139.9,683.8 1139.9,690.5L1139.9,691C1139.9,698.1 1133.8,703.2 1124.2,703.2C1114.3,703.1 1107.8,698.1 1107.4,689.4Z" style="fill:white;fill-rule:nonzero;"/>
                </g>
                <g transform="matrix(1,0,0,1,-131.313,0)">
                    <path d="M1189.6,702.4L1189.6,689.1L1175.2,661.4L1182.5,661.4L1193,682.7L1203.5,661.4L1210.6,661.4L1196.2,689.1L1196.2,702.4L1189.6,702.4Z" style="fill:white;fill-rule:nonzero;"/>
                </g>
                <g transform="matrix(1,0,0,1,-161.491,0)">
                    <path d="M1245.8,689.4L1252.5,689.4C1253.1,695.1 1257.2,697.5 1262.9,697.5C1268,697.5 1271.7,695.5 1271.7,691.4L1271.7,691.1C1271.7,687.6 1269.2,685.8 1260.9,684.3C1250.8,682.5 1247.2,678.8 1247.2,672.7L1247.2,672.3C1247.2,665.6 1253,660.7 1262,660.7C1270.6,660.7 1276.8,665 1277.6,673.3L1270.9,673.3C1270.3,668.6 1267,666.2 1261.9,666.2C1256.8,666.2 1253.8,668.5 1253.8,672.1L1253.8,672.4C1253.8,675.6 1255.5,677.4 1263.7,678.7C1273.5,680.4 1278.3,683.8 1278.3,690.5L1278.3,691C1278.3,698.1 1272.2,703.2 1262.6,703.2C1252.7,703.1 1246.2,698.1 1245.8,689.4Z" style="fill:white;fill-rule:nonzero;"/>
                </g>
                <g transform="matrix(1,0,0,1,-192.069,0)">
                    <path d="M1325.9,702.4L1325.9,667L1313.9,667L1313.9,661.4L1344.8,661.4L1344.8,667L1332.7,667L1332.7,702.3L1325.9,702.3L1325.9,702.4Z" style="fill:white;fill-rule:nonzero;"/>
                </g>
                <g transform="matrix(1,0,0,1,-226.147,0)">
                    <path d="M1383.9,702.4L1383.9,661.5L1412.1,661.5L1412.1,667.1L1390.6,667.1L1390.6,678.7L1410.3,678.7L1410.3,684.3L1390.6,684.3L1390.6,696.8L1412.4,696.8L1412.4,702.4L1383.9,702.4Z" style="fill:white;fill-rule:nonzero;"/>
                </g>
                <g transform="matrix(1,0,0,1,-261.625,0)">
                    <path d="M1452.9,702.4L1452.9,661.5L1462.8,661.5L1474.3,694.1L1485.7,661.5L1495.2,661.5L1495.2,702.4L1488.7,702.4L1488.7,669.3L1476.9,702.4L1471.3,702.4L1459.5,669.2L1459.5,702.4L1452.9,702.4Z" style="fill:white;fill-rule:nonzero;"/>
                </g>
            </g>
        </g>
    </g>
    <defs>
        <linearGradient id="_Linear2" x1="0" y1="0" x2="1" y2="0" gradientUnits="userSpaceOnUse" gradientTransform="matrix(-2.48,-23.602,23.602,-2.48,108.147,96.1413)"><stop offset="0" style="stop-color:rgb(195,196,195);stop-opacity:1"/><stop offset="0.09" style="stop-color:rgb(216,216,216);stop-opacity:1"/><stop offset="0.21" style="stop-color:rgb(233,234,233);stop-opacity:1"/><stop offset="0.36" style="stop-color:rgb(246,246,246);stop-opacity:1"/><stop offset="0.55" style="stop-color:rgb(253,253,253);stop-opacity:1"/><stop offset="1" style="stop-color:white;stop-opacity:1"/></linearGradient>
        <linearGradient id="_Linear3" x1="0" y1="0" x2="1" y2="0" gradientUnits="userSpaceOnUse" gradientTransform="matrix(-19.125,13.8964,-13.8964,-19.125,131.226,88.9396)"><stop offset="0" style="stop-color:rgb(195,196,195);stop-opacity:1"/><stop offset="0.09" style="stop-color:rgb(216,216,216);stop-opacity:1"/><stop offset="0.21" style="stop-color:rgb(233,234,233);stop-opacity:1"/><stop offset="0.36" style="stop-color:rgb(246,246,246);stop-opacity:1"/><stop offset="0.55" style="stop-color:rgb(253,253,253);stop-opacity:1"/><stop offset="1" style="stop-color:white;stop-opacity:1"/></linearGradient>
        <linearGradient id="_Linear4" x1="0" y1="0" x2="1" y2="0" gradientUnits="userSpaceOnUse" gradientTransform="matrix(21.872,9.7383,-9.7383,21.872,113.344,72.5012)"><stop offset="0" style="stop-color:rgb(195,196,195);stop-opacity:1"/><stop offset="0.09" style="stop-color:rgb(216,216,216);stop-opacity:1"/><stop offset="0.21" style="stop-color:rgb(233,234,233);stop-opacity:1"/><stop offset="0.36" style="stop-color:rgb(246,246,246);stop-opacity:1"/><stop offset="0.55" style="stop-color:rgb(253,253,253);stop-opacity:1"/><stop offset="1" style="stop-color:white;stop-opacity:1"/></linearGradient>
        <linearGradient id="_Linear5" x1="0" y1="0" x2="1" y2="0" gradientUnits="userSpaceOnUse" gradientTransform="matrix(-1.95,-18.5543,18.5543,-1.95,110.792,95.8633)"><stop offset="0" style="stop-color:rgb(183,184,184);stop-opacity:1"/><stop offset="0.11" style="stop-color:rgb(201,202,202);stop-opacity:1"/><stop offset="0.3" style="stop-color:rgb(225,225,225);stop-opacity:1"/><stop offset="0.51" style="stop-color:rgb(242,242,242);stop-opacity:1"/><stop offset="0.73" style="stop-color:rgb(252,252,252);stop-opacity:1"/><stop offset="1" style="stop-color:white;stop-opacity:1"/></linearGradient>
        <linearGradient id="_Linear6" x1="0" y1="0" x2="1" y2="0" gradientUnits="userSpaceOnUse" gradientTransform="matrix(17.334,7.7179,-7.7179,17.334,112.223,75.0102)"><stop offset="0" style="stop-color:rgb(183,184,184);stop-opacity:1"/><stop offset="0.11" style="stop-color:rgb(201,202,202);stop-opacity:1"/><stop offset="0.3" style="stop-color:rgb(225,225,225);stop-opacity:1"/><stop offset="0.51" style="stop-color:rgb(242,242,242);stop-opacity:1"/><stop offset="0.73" style="stop-color:rgb(252,252,252);stop-opacity:1"/><stop offset="1" style="stop-color:white;stop-opacity:1"/></linearGradient>
        <linearGradient id="_Linear7" x1="0" y1="0" x2="1" y2="0" gradientUnits="userSpaceOnUse" gradientTransform="matrix(-15.185,11.0317,-11.0317,-15.185,129.697,86.8364)"><stop offset="0" style="stop-color:rgb(183,184,184);stop-opacity:1"/><stop offset="0.11" style="stop-color:rgb(201,202,202);stop-opacity:1"/><stop offset="0.3" style="stop-color:rgb(225,225,225);stop-opacity:1"/><stop offset="0.51" style="stop-color:rgb(242,242,242);stop-opacity:1"/><stop offset="0.73" style="stop-color:rgb(252,252,252);stop-opacity:1"/><stop offset="1" style="stop-color:white;stop-opacity:1"/></linearGradient>
        <linearGradient id="_Linear8" x1="0" y1="0" x2="1" y2="0" gradientUnits="userSpaceOnUse" gradientTransform="matrix(-3.751,-13.0837,13.0837,-3.751,114.224,94.3708)"><stop offset="0" style="stop-color:rgb(183,184,184);stop-opacity:1"/><stop offset="0.21" style="stop-color:rgb(206,207,207);stop-opacity:1"/><stop offset="0.52" style="stop-color:rgb(233,233,233);stop-opacity:1"/><stop offset="0.79" style="stop-color:rgb(249,249,249);stop-opacity:1"/><stop offset="1" style="stop-color:white;stop-opacity:1"/></linearGradient>
        <linearGradient id="_Linear9" x1="0" y1="0" x2="1" y2="0" gradientUnits="userSpaceOnUse" gradientTransform="matrix(-9.439,9.7724,-9.7724,-9.439,126.627,84.6365)"><stop offset="0" style="stop-color:rgb(183,184,184);stop-opacity:1"/><stop offset="0.21" style="stop-color:rgb(206,207,207);stop-opacity:1"/><stop offset="0.52" style="stop-color:rgb(233,233,233);stop-opacity:1"/><stop offset="0.79" style="stop-color:rgb(249,249,249);stop-opacity:1"/><stop offset="1" style="stop-color:white;stop-opacity:1"/></linearGradient>
        <linearGradient id="_Linear10" x1="0" y1="0" x2="1" y2="0" gradientUnits="userSpaceOnUse" gradientTransform="matrix(13.392,3.3389,-3.3389,13.392,111.853,78.8647)"><stop offset="0" style="stop-color:rgb(183,184,184);stop-opacity:1"/><stop offset="0.21" style="stop-color:rgb(206,207,207);stop-opacity:1"/><stop offset="0.52" style="stop-color:rgb(233,233,233);stop-opacity:1"/><stop offset="0.79" style="stop-color:rgb(249,249,249);stop-opacity:1"/><stop offset="1" style="stop-color:white;stop-opacity:1"/></linearGradient>
        <linearGradient id="_Linear11" x1="0" y1="0" x2="1" y2="0" gradientUnits="userSpaceOnUse" gradientTransform="matrix(9.953,0.7837,-0.7837,9.953,112.236,82.0366)"><stop offset="0" style="stop-color:rgb(171,172,172);stop-opacity:1"/><stop offset="0.19" style="stop-color:rgb(189,190,190);stop-opacity:1"/><stop offset="0.73" style="stop-color:rgb(237,237,237);stop-opacity:1"/><stop offset="1" style="stop-color:white;stop-opacity:1"/></linearGradient>
        <linearGradient id="_Linear12" x1="0" y1="0" x2="1" y2="0" gradientUnits="userSpaceOnUse" gradientTransform="matrix(-4.298,-8.8133,8.8133,-4.298,116.861,92.4539)"><stop offset="0" style="stop-color:rgb(171,172,172);stop-opacity:1"/><stop offset="0.19" style="stop-color:rgb(189,190,190);stop-opacity:1"/><stop offset="0.73" style="stop-color:rgb(237,237,237);stop-opacity:1"/><stop offset="1" style="stop-color:white;stop-opacity:1"/></linearGradient>
        <linearGradient id="_Linear13" x1="0" y1="0" x2="1" y2="0" gradientUnits="userSpaceOnUse" gradientTransform="matrix(-5.491,8.1398,-8.1398,-5.491,123.699,83.4059)"><stop offset="0" style="stop-color:rgb(171,172,172);stop-opacity:1"/><stop offset="0.19" style="stop-color:rgb(189,190,190);stop-opacity:1"/><stop offset="0.73" style="stop-color:rgb(237,237,237);stop-opacity:1"/><stop offset="1" style="stop-color:white;stop-opacity:1"/></linearGradient>
        <linearGradient id="_Linear14" x1="0" y1="0" x2="1" y2="0" gradientUnits="userSpaceOnUse" gradientTransform="matrix(6.282,-2.3477,2.3477,6.282,113.511,84.5759)"><stop offset="0" style="stop-color:rgb(159,160,160);stop-opacity:1"/><stop offset="0.17" style="stop-color:rgb(165,166,166);stop-opacity:1"/><stop offset="0.4" style="stop-color:rgb(181,182,182);stop-opacity:1"/><stop offset="0.66" style="stop-color:rgb(208,209,209);stop-opacity:1"/><stop offset="0.94" style="stop-color:rgb(246,246,246);stop-opacity:1"/><stop offset="1" style="stop-color:white;stop-opacity:1"/></linearGradient>
        <linearGradient id="_Linear15" x1="0" y1="0" x2="1" y2="0" gradientUnits="userSpaceOnUse" gradientTransform="matrix(-5.059,-4.2461,4.2461,-5.059,118.379,90.2446)"><stop offset="0" style="stop-color:rgb(159,160,160);stop-opacity:1"/><stop offset="0.17" style="stop-color:rgb(165,166,166);stop-opacity:1"/><stop offset="0.4" style="stop-color:rgb(181,182,182);stop-opacity:1"/><stop offset="0.66" style="stop-color:rgb(208,209,209);stop-opacity:1"/><stop offset="0.94" style="stop-color:rgb(246,246,246);stop-opacity:1"/><stop offset="1" style="stop-color:white;stop-opacity:1"/></linearGradient>
        <linearGradient id="_Linear16" x1="0" y1="0" x2="1" y2="0" gradientUnits="userSpaceOnUse" gradientTransform="matrix(-1.153,6.5385,-6.5385,-1.153,120.932,83.1999)"><stop offset="0" style="stop-color:rgb(159,160,160);stop-opacity:1"/><stop offset="0.17" style="stop-color:rgb(165,166,166);stop-opacity:1"/><stop offset="0.4" style="stop-color:rgb(181,182,182);stop-opacity:1"/><stop offset="0.66" style="stop-color:rgb(208,209,209);stop-opacity:1"/><stop offset="0.94" style="stop-color:rgb(246,246,246);stop-opacity:1"/><stop offset="1" style="stop-color:white;stop-opacity:1"/></linearGradient>
    </defs>
</svg>
