<?xml version="1.0" encoding="UTF-8" standalone="no"?>
<!DOCTYPE svg PUBLIC "-//W3C//DTD SVG 1.1//EN" "http://www.w3.org/Graphics/SVG/1.1/DTD/svg11.dtd">
<svg width="100%" height="100%" viewBox="0 0 512 300" version="1.1" xmlns="http://www.w3.org/2000/svg" xmlns:xlink="http://www.w3.org/1999/xlink" xml:space="preserve" xmlns:serif="http://www.serif.com/" style="fill-rule:evenodd;clip-rule:evenodd;stroke-linecap:round;stroke-miterlimit:20;">
    <g transform="matrix(1,0,0,1,-2584.29,-22996.9)">
        <g transform="matrix(1,0,0,1,10635.3,-0.349104)">
            <g transform="matrix(1.03897,0,0,1.03897,-10736.1,-893.316)">
                <rect x="2584.28" y="22994.4" width="492.561" height="288.747" style="fill:none;"/>
                <clipPath id="_clip1">
                    <rect x="2584.28" y="22994.4" width="492.561" height="288.747"/>
                </clipPath>
                <g clip-path="url(#_clip1)">
                    <g transform="matrix(0.994,0,0,0.994,10588.5,138.486)">
                        <g transform="matrix(3.19702,0,0,1.83798,10038,15945.6)">
                            <g transform="matrix(0.177261,0,0,0.309657,-7476.08,-681.082)">
                                <path d="M10400.7,14585.1L10545.6,14838.8L10255.9,14838.8L10400.7,14585.1Z" style="fill:none;stroke:rgb(36,100,85);stroke-width:3.41px;"/>
                            </g>
                            <g transform="matrix(0.117463,0,0,0.205196,-6854.1,860.496)">
                                <path d="M10400.7,14585.1L10545.6,14838.8L10255.9,14838.8L10400.7,14585.1Z" style="fill:none;stroke:rgb(58,178,149);stroke-width:5.15px;"/>
                            </g>
                            <g transform="matrix(0.0599381,0,0,0.104706,-6255.77,2342.61)">
                                <path d="M10400.7,14585.1L10545.6,14838.8L10255.9,14838.8L10400.7,14585.1Z" style="fill:none;stroke:rgb(125,225,192);stroke-width:10.08px;"/>
                            </g>
                        </g>
                        <g transform="matrix(3.19702,0,0,1.83798,10202.2,15945.6)">
                            <g transform="matrix(0.177261,0,0,0.309657,-7476.08,-681.082)">
                                <path d="M10400.7,14585.1L10545.6,14838.8L10255.9,14838.8L10400.7,14585.1Z" style="fill:none;stroke:rgb(36,100,85);stroke-width:3.41px;"/>
                            </g>
                            <g transform="matrix(0.117463,0,0,0.205196,-6854.1,860.496)">
                                <path d="M10400.7,14585.1L10545.6,14838.8L10255.9,14838.8L10400.7,14585.1Z" style="fill:none;stroke:rgb(58,178,149);stroke-width:5.15px;"/>
                            </g>
                            <g transform="matrix(0.0599381,0,0,0.104706,-6255.77,2342.61)">
                                <path d="M10400.7,14585.1L10545.6,14838.8L10255.9,14838.8L10400.7,14585.1Z" style="fill:none;stroke:rgb(125,225,192);stroke-width:10.08px;"/>
                            </g>
                        </g>
                        <g transform="matrix(3.19702,0,0,1.83798,10202.2,16089.9)">
                            <g transform="matrix(0.177261,0,0,0.309657,-7476.08,-681.082)">
                                <path d="M10400.7,14585.1L10545.6,14838.8L10255.9,14838.8L10400.7,14585.1Z" style="fill:none;stroke:rgb(36,100,85);stroke-width:3.41px;"/>
                            </g>
                            <g transform="matrix(0.117463,0,0,0.205196,-6854.1,860.496)">
                                <path d="M10400.7,14585.1L10545.6,14838.8L10255.9,14838.8L10400.7,14585.1Z" style="fill:none;stroke:rgb(58,178,149);stroke-width:5.15px;"/>
                            </g>
                            <g transform="matrix(0.0599381,0,0,0.104706,-6255.77,2342.61)">
                                <path d="M10400.7,14585.1L10545.6,14838.8L10255.9,14838.8L10400.7,14585.1Z" style="fill:none;stroke:rgb(125,225,192);stroke-width:10.08px;"/>
                            </g>
                        </g>
                        <g transform="matrix(3.19702,0,0,1.83798,10366.4,15945.6)">
                            <g transform="matrix(0.177261,0,0,0.309657,-7476.08,-681.082)">
                                <path d="M10400.7,14585.1L10545.6,14838.8L10255.9,14838.8L10400.7,14585.1Z" style="fill:none;stroke:rgb(36,100,85);stroke-width:3.41px;"/>
                            </g>
                            <g transform="matrix(0.117463,0,0,0.205196,-6854.1,860.496)">
                                <path d="M10400.7,14585.1L10545.6,14838.8L10255.9,14838.8L10400.7,14585.1Z" style="fill:none;stroke:rgb(58,178,149);stroke-width:5.15px;"/>
                            </g>
                            <g transform="matrix(0.0599381,0,0,0.104706,-6255.77,2342.61)">
                                <path d="M10400.7,14585.1L10545.6,14838.8L10255.9,14838.8L10400.7,14585.1Z" style="fill:none;stroke:rgb(125,225,192);stroke-width:10.08px;"/>
                            </g>
                        </g>
                        <g transform="matrix(3.19702,0,0,1.83798,10366.4,16089.9)">
                            <g transform="matrix(0.177261,0,0,0.309657,-7476.08,-681.082)">
                                <path d="M10400.7,14585.1L10545.6,14838.8L10255.9,14838.8L10400.7,14585.1Z" style="fill:none;stroke:rgb(36,100,85);stroke-width:3.41px;"/>
                            </g>
                            <g transform="matrix(0.117463,0,0,0.205196,-6854.1,860.496)">
                                <path d="M10400.7,14585.1L10545.6,14838.8L10255.9,14838.8L10400.7,14585.1Z" style="fill:none;stroke:rgb(58,178,149);stroke-width:5.15px;"/>
                            </g>
                            <g transform="matrix(0.0599381,0,0,0.104706,-6255.77,2342.61)">
                                <path d="M10400.7,14585.1L10545.6,14838.8L10255.9,14838.8L10400.7,14585.1Z" style="fill:none;stroke:rgb(125,225,192);stroke-width:10.08px;"/>
                            </g>
                        </g>
                        <g transform="matrix(3.19702,0,0,-1.83798,10120.1,30332.7)">
                            <g transform="matrix(0.177261,0,0,0.309657,-7476.08,-681.082)">
                                <path d="M10400.7,14585.1L10545.6,14838.8L10255.9,14838.8L10400.7,14585.1Z" style="fill:none;stroke:rgb(36,100,85);stroke-width:3.41px;"/>
                            </g>
                            <g transform="matrix(0.117463,0,0,0.205196,-6854.1,860.496)">
                                <path d="M10400.7,14585.1L10545.6,14838.8L10255.9,14838.8L10400.7,14585.1Z" style="fill:none;stroke:rgb(58,178,149);stroke-width:5.15px;"/>
                            </g>
                            <g transform="matrix(0.0599381,0,0,0.104706,-6255.77,2342.61)">
                                <path d="M10400.7,14585.1L10545.6,14838.8L10255.9,14838.8L10400.7,14585.1Z" style="fill:none;stroke:rgb(125,225,192);stroke-width:10.08px;"/>
                            </g>
                        </g>
                        <g transform="matrix(3.19702,0,0,-1.83798,10284.3,30188.3)">
                            <g transform="matrix(0.177261,0,0,0.309657,-7476.08,-681.082)">
                                <path d="M10400.7,14585.1L10545.6,14838.8L10255.9,14838.8L10400.7,14585.1Z" style="fill:none;stroke:rgb(36,100,85);stroke-width:3.41px;"/>
                            </g>
                            <g transform="matrix(0.117463,0,0,0.205196,-6854.1,860.496)">
                                <path d="M10400.7,14585.1L10545.6,14838.8L10255.9,14838.8L10400.7,14585.1Z" style="fill:none;stroke:rgb(58,178,149);stroke-width:5.15px;"/>
                            </g>
                            <g transform="matrix(0.0599381,0,0,0.104706,-6255.77,2342.61)">
                                <path d="M10400.7,14585.1L10545.6,14838.8L10255.9,14838.8L10400.7,14585.1Z" style="fill:none;stroke:rgb(125,225,192);stroke-width:10.08px;"/>
                            </g>
                        </g>
                        <g transform="matrix(3.19702,0,0,-1.83798,10284.3,30332.7)">
                            <g transform="matrix(0.177261,0,0,0.309657,-7476.08,-681.082)">
                                <path d="M10400.7,14585.1L10545.6,14838.8L10255.9,14838.8L10400.7,14585.1Z" style="fill:none;stroke:rgb(36,100,85);stroke-width:3.41px;"/>
                            </g>
                            <g transform="matrix(0.117463,0,0,0.205196,-6854.1,860.496)">
                                <path d="M10400.7,14585.1L10545.6,14838.8L10255.9,14838.8L10400.7,14585.1Z" style="fill:none;stroke:rgb(58,178,149);stroke-width:5.15px;"/>
                            </g>
                            <g transform="matrix(0.0599381,0,0,0.104706,-6255.77,2342.61)">
                                <path d="M10400.7,14585.1L10545.6,14838.8L10255.9,14838.8L10400.7,14585.1Z" style="fill:none;stroke:rgb(125,225,192);stroke-width:10.08px;"/>
                            </g>
                        </g>
                    </g>
                </g>
            </g>
        </g>
    </g>
</svg>
