<?xml version="1.0" encoding="UTF-8" standalone="no"?>
<!DOCTYPE svg PUBLIC "-//W3C//DTD SVG 1.1//EN" "http://www.w3.org/Graphics/SVG/1.1/DTD/svg11.dtd">
<svg width="100%" height="100%" viewBox="0 0 172 151" version="1.1" xmlns="http://www.w3.org/2000/svg" xmlns:xlink="http://www.w3.org/1999/xlink" xml:space="preserve" xmlns:serif="http://www.serif.com/" style="fill-rule:evenodd;clip-rule:evenodd;stroke-linecap:round;stroke-miterlimit:20;">
    <g transform="matrix(1,0,0,1,-2.27374e-13,-22847.6)">
        <g transform="matrix(0.510667,0,0,0.449031,1090.65,12629.9)">
            <rect id="Artboard21" x="-2135.73" y="22755" width="334.989" height="334.989" style="fill:none;"/>
            <clipPath id="_clip1">
                <rect id="Artboard211" serif:id="Artboard21" x="-2135.73" y="22755" width="334.989" height="334.989"/>
            </clipPath>
            <g clip-path="url(#_clip1)">
                <g transform="matrix(6.26048,0,0,4.09322,33293.5,7065.3)">
                    <g transform="matrix(0.177261,0,0,0.309657,-7476.08,-681.082)">
                        <path d="M10400.7,14585.1L10545.6,14838.8L10255.9,14838.8L10400.7,14585.1Z" style="fill:none;stroke:rgb(36,100,79);stroke-width:7.04px;"/>
                    </g>
                    <g transform="matrix(0.117463,0,0,0.205196,-6854.1,860.496)">
                        <path d="M10400.7,14585.1L10545.6,14838.8L10255.9,14838.8L10400.7,14585.1Z" style="fill:none;stroke:rgb(58,178,138);stroke-width:10.63px;"/>
                    </g>
                    <g transform="matrix(0.0599381,0,0,0.104706,-6255.77,2342.61)">
                        <path d="M10400.7,14585.1L10545.6,14838.8L10255.9,14838.8L10400.7,14585.1Z" style="fill:none;stroke:rgb(125,225,192);stroke-width:20.83px;"/>
                    </g>
                </g>
            </g>
        </g>
    </g>
</svg>
