<?xml version="1.0" encoding="UTF-8" standalone="no"?>
<!DOCTYPE svg PUBLIC "-//W3C//DTD SVG 1.1//EN" "http://www.w3.org/Graphics/SVG/1.1/DTD/svg11.dtd">
<svg width="100%" height="100%" viewBox="0 0 827 538" version="1.1" xmlns="http://www.w3.org/2000/svg" xmlns:xlink="http://www.w3.org/1999/xlink" xml:space="preserve" xmlns:serif="http://www.serif.com/" style="fill-rule:evenodd;clip-rule:evenodd;stroke-linecap:round;stroke-miterlimit:20;">
    <g transform="matrix(1,0,0,1,-8516.56,-15774.8)">
        <g transform="matrix(5.66657,0,0,3.22938,42318,2199.47)">
            <g id="logo-lines-symbol" transform="matrix(1.72241,0,0,1.72241,3809.27,-2386.78)">
                <g transform="matrix(0.177261,0,0,0.309657,-7476.08,-681.082)">
                    <path d="M10400.7,14585.1L10545.6,14838.8L10255.9,14838.8L10400.7,14585.1Z" style="fill:none;stroke:rgb(54,83,72);stroke-width:2.9px;"/>
                </g>
                <g transform="matrix(0.117463,0,0,0.205196,-6854.1,860.496)">
                    <path d="M10400.7,14585.1L10545.6,14838.8L10255.9,14838.8L10400.7,14585.1Z" style="fill:none;stroke:rgb(94,152,127);stroke-width:4.37px;"/>
                </g>
                <g transform="matrix(0.0599381,0,0,0.104706,-6255.77,2342.61)">
                    <path d="M10400.7,14585.1L10545.6,14838.8L10255.9,14838.8L10400.7,14585.1Z" style="fill:none;stroke:rgb(124,202,171);stroke-width:8.57px;"/>
                </g>
            </g>
            <g id="logo-lines">
                <g>
                    <g transform="matrix(0.176473,0,0,0.309657,-7537.78,-681.926)">
                        <path d="M9332.66,15827.5L9698.66,15827.5" style="fill:none;stroke:rgb(121,232,216);stroke-width:4px;stroke-linecap:butt;"/>
                    </g>
                    <g transform="matrix(0.176473,0,0,0.309657,-7537.78,-669.626)">
                        <path d="M9332.66,15827.5L9698.66,15827.5" style="fill:none;stroke:rgb(98,228,209);stroke-width:4px;stroke-linecap:butt;"/>
                    </g>
                    <g transform="matrix(0.176473,0,0,0.309657,-7537.78,-657.327)">
                        <path d="M9332.66,15827.5L9698.66,15827.5" style="fill:none;stroke:rgb(81,225,203);stroke-width:4px;stroke-linecap:butt;"/>
                    </g>
                    <g transform="matrix(0.176473,0,0,0.309657,-7537.78,-645.027)">
                        <path d="M9332.66,15827.5L9698.66,15827.5" style="fill:none;stroke:rgb(59,221,197);stroke-width:4px;stroke-linecap:butt;"/>
                    </g>
                    <g transform="matrix(0.176473,0,0,0.309657,-7537.78,-632.728)">
                        <path d="M9332.66,15827.5L9698.66,15827.5" style="fill:none;stroke:rgb(37,218,191);stroke-width:4px;stroke-linecap:butt;"/>
                    </g>
                    <g transform="matrix(0.176473,0,0,0.309657,-7537.78,-620.428)">
                        <path d="M9332.66,15827.5L9698.66,15827.5" style="fill:none;stroke:rgb(34,196,172);stroke-width:4px;stroke-linecap:butt;"/>
                    </g>
                    <g transform="matrix(0.176473,0,0,0.309657,-7537.78,-608.128)">
                        <path d="M9332.66,15827.5L9698.66,15827.5" style="fill:none;stroke:rgb(30,174,152);stroke-width:4px;stroke-linecap:butt;"/>
                    </g>
                    <g transform="matrix(0.176473,0,0,0.309657,-7537.78,-595.829)">
                        <path d="M9332.66,15827.5L9698.66,15827.5" style="fill:none;stroke:rgb(26,152,133);stroke-width:4px;stroke-linecap:butt;"/>
                    </g>
                    <g transform="matrix(0.176473,0,0,0.309657,-7537.78,-583.529)">
                        <path d="M9332.66,15827.5L9698.66,15827.5" style="fill:none;stroke:rgb(22,131,114);stroke-width:4px;stroke-linecap:butt;"/>
                    </g>
                    <g transform="matrix(0.176473,0,0,0.309657,-7537.78,-571.23)">
                        <path d="M9332.66,15827.5L9698.66,15827.5" style="fill:none;stroke:rgb(19,109,95);stroke-width:4px;stroke-linecap:butt;"/>
                    </g>
                    <g transform="matrix(0.176473,0,0,0.309657,-7537.78,-558.93)">
                        <path d="M9332.66,15827.5L9698.66,15827.5" style="fill:none;stroke:rgb(15,87,76);stroke-width:4px;stroke-linecap:butt;"/>
                    </g>
                    <g transform="matrix(0.176473,0,0,0.309657,-7537.78,-546.63)">
                        <path d="M9332.66,15827.5L9698.66,15827.5" style="fill:none;stroke:rgb(11,65,57);stroke-width:4px;stroke-linecap:butt;"/>
                    </g>
                </g>
                <g transform="matrix(0.176473,0,0,0.309657,-7604.95,-681.926)">
                    <path d="M9332.66,15827.5L9698.66,15827.5" style="fill:none;stroke:rgb(103,249,195);stroke-width:4px;stroke-linecap:butt;"/>
                </g>
                <g transform="matrix(0.176473,0,0,0.309657,-7604.95,-669.626)">
                    <path d="M9332.66,15827.5L9698.66,15827.5" style="fill:none;stroke:rgb(78,248,186);stroke-width:4px;stroke-linecap:butt;"/>
                </g>
                <g transform="matrix(0.176473,0,0,0.309657,-7604.95,-657.327)">
                    <path d="M9332.66,15827.5L9698.66,15827.5" style="fill:none;stroke:rgb(59,247,178);stroke-width:4px;stroke-linecap:butt;"/>
                </g>
                <g transform="matrix(0.176473,0,0,0.309657,-7604.95,-645.027)">
                    <path d="M9332.66,15827.5L9698.66,15827.5" style="fill:none;stroke:rgb(34,246,169);stroke-width:4px;stroke-linecap:butt;"/>
                </g>
                <g transform="matrix(0.176473,0,0,0.309657,-7604.95,-632.728)">
                    <path d="M9332.66,15827.5L9698.66,15827.5" style="fill:none;stroke:rgb(10,245,159);stroke-width:4px;stroke-linecap:butt;"/>
                </g>
                <g transform="matrix(0.176473,0,0,0.309657,-7604.95,-620.428)">
                    <path d="M9332.66,15827.5L9698.66,15827.5" style="fill:none;stroke:rgb(9,221,143);stroke-width:4px;stroke-linecap:butt;"/>
                </g>
                <g transform="matrix(0.176473,0,0,0.309657,-7604.95,-608.128)">
                    <path d="M9332.66,15827.5L9698.66,15827.5" style="fill:none;stroke:rgb(8,196,127);stroke-width:4px;stroke-linecap:butt;"/>
                </g>
                <g transform="matrix(0.176473,0,0,0.309657,-7604.95,-595.829)">
                    <path d="M9332.66,15827.5L9698.66,15827.5" style="fill:none;stroke:rgb(7,172,111);stroke-width:4px;stroke-linecap:butt;"/>
                </g>
                <g transform="matrix(0.176473,0,0,0.309657,-7604.95,-583.529)">
                    <path d="M9332.66,15827.5L9698.66,15827.5" style="fill:none;stroke:rgb(6,147,95);stroke-width:4px;stroke-linecap:butt;"/>
                </g>
                <g transform="matrix(0.176473,0,0,0.309657,-7604.95,-571.23)">
                    <path d="M9332.66,15827.5L9698.66,15827.5" style="fill:none;stroke:rgb(5,123,79);stroke-width:4px;stroke-linecap:butt;"/>
                </g>
                <g transform="matrix(0.176473,0,0,0.309657,-7604.95,-558.93)">
                    <path d="M9332.66,15827.5L9698.66,15827.5" style="fill:none;stroke:rgb(4,98,64);stroke-width:4px;stroke-linecap:butt;"/>
                </g>
                <g transform="matrix(0.176473,0,0,0.309657,-7604.95,-546.63)">
                    <path d="M9332.66,15827.5L9698.66,15827.5" style="fill:none;stroke:rgb(3,74,48);stroke-width:4px;stroke-linecap:butt;"/>
                </g>
            </g>
        </g>
    </g>
</svg>
