<?xml version="1.0" encoding="UTF-8" standalone="no"?>
<!DOCTYPE svg PUBLIC "-//W3C//DTD SVG 1.1//EN" "http://www.w3.org/Graphics/SVG/1.1/DTD/svg11.dtd">
<svg width="100%" height="100%" viewBox="0 0 783 137" version="1.1" xmlns="http://www.w3.org/2000/svg" xmlns:xlink="http://www.w3.org/1999/xlink" xml:space="preserve" xmlns:serif="http://www.serif.com/" style="fill-rule:evenodd;clip-rule:evenodd;stroke-linejoin:round;stroke-miterlimit:2;">
    <g transform="matrix(1,0,0,1,-25153.9,-12916.4)">
        <g transform="matrix(5.66657,0,0,3.22938,52953.8,2199.47)">
            <g id="logo-full" transform="matrix(0.0419501,0,0,0.0736095,-4919.61,3299.82)">
                <g transform="matrix(9.14591,0,0,5.17886,52158.8,-19523.7)">
                    <g transform="matrix(0.177261,0,0,0.309657,-7476.08,-681.082)">
                        <path d="M10550.1,14841.4L10251.4,14841.4L10400.7,14579.9L10550.1,14841.4ZM10400.7,14585.1L10255.9,14838.8L10545.6,14838.8L10400.7,14585.1Z" style="fill:rgb(16,67,50);"/>
                    </g>
                    <g transform="matrix(0.117463,0,0,0.205196,-6854.1,860.496)">
                        <path d="M10552.4,14842.7L10249.1,14842.7L10400.7,14577.2L10552.4,14842.7ZM10400.7,14585.1L10255.9,14838.8L10545.6,14838.8L10400.7,14585.1Z" style="fill:rgb(41,177,131);"/>
                    </g>
                    <g transform="matrix(0.0599381,0,0,0.104706,-6255.77,2342.61)">
                        <path d="M10558.9,14846.5L10242.6,14846.5L10400.7,14569.6L10558.9,14846.5ZM10400.7,14585.1L10255.9,14838.8L10545.6,14838.8L10400.7,14585.1Z" style="fill:rgb(163,234,210);"/>
                    </g>
                </g>
                <g transform="matrix(5.60525,0,0,5.60525,-3295.96,-3271.9)">
                    <path d="M890.8,702.5L890.8,661.5L917.7,661.5L917.7,665.8L895.7,665.8L895.7,679.4L916,679.4L916,683.7L895.7,683.7L895.7,698.2L918,698.2L918,702.5L890.8,702.5Z" style="fill:white;fill-rule:nonzero;"/>
                    <g transform="matrix(1,0,0,1,-33.4781,0)">
                        <path d="M956.5,682.7L956.5,681.1C956.5,669.1 963.9,660.8 975.2,660.8C984.5,660.8 990.9,666.7 991.9,675.8L986.9,675.8C985.9,669 981.4,665.1 975.1,665.1C966.6,665.1 961.6,671.7 961.6,681.1L961.6,682.7C961.6,692.1 966.7,698.7 975.1,698.7C982,698.7 986.6,694.1 986.9,687.4L991.9,687.4C991.2,696.4 984.8,703.1 975.1,703.1C964,703 956.5,694.9 956.5,682.7Z" style="fill:white;fill-rule:nonzero;"/>
                    </g>
                    <g transform="matrix(1,0,0,1,-67.2563,0)">
                        <path d="M1030.7,682.7L1030.7,681.1C1030.7,668.9 1038.1,660.8 1049.7,660.8C1061.3,660.8 1068.6,669 1068.6,681.1L1068.6,682.7C1068.6,694.8 1061.2,703 1049.7,703C1038.2,703 1030.7,694.8 1030.7,682.7ZM1063.6,682.7L1063.6,681.1C1063.6,671.5 1058.4,665.1 1049.7,665.1C1041,665.1 1035.8,671.4 1035.8,681.1L1035.8,682.7C1035.8,692.3 1041,698.7 1049.7,698.7C1058.4,698.7 1063.6,692.3 1063.6,682.7Z" style="fill:white;fill-rule:nonzero;"/>
                    </g>
                    <g transform="matrix(1,0,0,1,-101.034,0)">
                        <path d="M1107.4,689.4L1114.1,689.4C1114.7,695.1 1118.8,697.5 1124.5,697.5C1129.6,697.5 1133.3,695.5 1133.3,691.4L1133.3,691.1C1133.3,687.6 1130.8,685.8 1122.5,684.3C1112.4,682.5 1108.8,678.8 1108.8,672.7L1108.8,672.3C1108.8,665.6 1114.6,660.7 1123.6,660.7C1132.2,660.7 1138.4,665 1139.2,673.3L1132.5,673.3C1131.9,668.6 1128.6,666.2 1123.5,666.2C1118.4,666.2 1115.4,668.5 1115.4,672.1L1115.4,672.4C1115.4,675.6 1117.1,677.4 1125.3,678.7C1135.1,680.4 1139.9,683.8 1139.9,690.5L1139.9,691C1139.9,698.1 1133.8,703.2 1124.2,703.2C1114.3,703.1 1107.8,698.1 1107.4,689.4Z" style="fill:white;fill-rule:nonzero;"/>
                    </g>
                    <g transform="matrix(1,0,0,1,-131.313,0)">
                        <path d="M1189.6,702.4L1189.6,689.1L1175.2,661.4L1182.5,661.4L1193,682.7L1203.5,661.4L1210.6,661.4L1196.2,689.1L1196.2,702.4L1189.6,702.4Z" style="fill:white;fill-rule:nonzero;"/>
                    </g>
                    <g transform="matrix(1,0,0,1,-161.491,0)">
                        <path d="M1245.8,689.4L1252.5,689.4C1253.1,695.1 1257.2,697.5 1262.9,697.5C1268,697.5 1271.7,695.5 1271.7,691.4L1271.7,691.1C1271.7,687.6 1269.2,685.8 1260.9,684.3C1250.8,682.5 1247.2,678.8 1247.2,672.7L1247.2,672.3C1247.2,665.6 1253,660.7 1262,660.7C1270.6,660.7 1276.8,665 1277.6,673.3L1270.9,673.3C1270.3,668.6 1267,666.2 1261.9,666.2C1256.8,666.2 1253.8,668.5 1253.8,672.1L1253.8,672.4C1253.8,675.6 1255.5,677.4 1263.7,678.7C1273.5,680.4 1278.3,683.8 1278.3,690.5L1278.3,691C1278.3,698.1 1272.2,703.2 1262.6,703.2C1252.7,703.1 1246.2,698.1 1245.8,689.4Z" style="fill:white;fill-rule:nonzero;"/>
                    </g>
                    <g transform="matrix(1,0,0,1,-192.069,0)">
                        <path d="M1325.9,702.4L1325.9,667L1313.9,667L1313.9,661.4L1344.8,661.4L1344.8,667L1332.7,667L1332.7,702.3L1325.9,702.3L1325.9,702.4Z" style="fill:white;fill-rule:nonzero;"/>
                    </g>
                    <g transform="matrix(1,0,0,1,-226.147,0)">
                        <path d="M1383.9,702.4L1383.9,661.5L1412.1,661.5L1412.1,667.1L1390.6,667.1L1390.6,678.7L1410.3,678.7L1410.3,684.3L1390.6,684.3L1390.6,696.8L1412.4,696.8L1412.4,702.4L1383.9,702.4Z" style="fill:white;fill-rule:nonzero;"/>
                    </g>
                    <g transform="matrix(1,0,0,1,-261.625,0)">
                        <path d="M1452.9,702.4L1452.9,661.5L1462.8,661.5L1474.3,694.1L1485.7,661.5L1495.2,661.5L1495.2,702.4L1488.7,702.4L1488.7,669.3L1476.9,702.4L1471.3,702.4L1459.5,669.2L1459.5,702.4L1452.9,702.4Z" style="fill:white;fill-rule:nonzero;"/>
                    </g>
                </g>
                <g transform="matrix(1.16948,0,0,1.16948,-106.775,-61.9158)">
                    <path d="M1045.3,622.5L1024.7,568.6L935.2,568.6L914.6,622.5L890.7,622.5L967.7,425.2L993.3,425.2L1070.3,622.5L1045.3,622.5ZM943.1,548.3L1017,548.3L980,451.3L943.1,548.3Z" style="fill:white;fill-rule:nonzero;"/>
                    <g transform="matrix(1,0,0,1,-12.6305,0)">
                        <path d="M1107,622.5L1107,425.2L1184,425.2C1222.3,425.2 1247.4,444.9 1247.4,481.3L1247.4,486.3C1247.4,523 1222.4,542.4 1184,542.4L1130.7,542.4L1130.7,622.4L1107,622.4L1107,622.5ZM1130.6,521.9L1183.1,521.9C1207.8,521.9 1223.4,510.5 1223.4,486.3L1223.4,481.3C1223.4,457.1 1207.8,445.7 1183.1,445.7L1130.6,445.7L1130.6,521.9Z" style="fill:white;fill-rule:nonzero;"/>
                    </g>
                    <g transform="matrix(1,0,0,1,-30.4609,0)">
                        <rect x="1289.3" y="425.2" width="23.6" height="197.3" style="fill:white;fill-rule:nonzero;"/>
                    </g>
                    <g transform="matrix(1,0,0,1,-54.4914,0)">
                        <path d="M1463.2,519.4C1482.1,513.3 1495.2,498.3 1495.2,477.2L1495.2,473.9C1495.2,443.1 1468.5,421.9 1433.2,421.9C1408.5,421.9 1388.8,431.5 1377.2,447.7C1370.4,457.2 1366.3,469 1365.7,482.4L1388.5,482.4C1388.8,478.2 1389.5,474.3 1390.5,470.7C1395.9,452 1411.2,441.3 1433.5,441.3C1455.5,441.3 1473,454.6 1473,473.8L1473,478.8C1473,499.9 1454.9,511 1434.1,511L1413.8,511L1425,530.4L1434.6,530.4C1459.6,530.4 1478.8,541.5 1478.8,564L1478.8,569C1478.8,581.1 1472.8,590.7 1463.5,597C1455.3,602.6 1444.7,605.6 1433.2,605.6C1404.9,605.6 1386.8,591.4 1384.3,565L1361,565C1363.5,602.8 1390.5,625.6 1432.7,625.6C1448.4,625.6 1462.6,621.8 1474,615.1C1491,605.1 1501.6,588.6 1501.6,568.7L1501.6,565.4C1501.5,540.8 1485.4,524.4 1463.2,519.4Z" style="fill:white;fill-rule:nonzero;"/>
                    </g>
                </g>
            </g>
        </g>
    </g>
</svg>
