<?xml version="1.0" encoding="UTF-8" standalone="no"?>
<!DOCTYPE svg PUBLIC "-//W3C//DTD SVG 1.1//EN" "http://www.w3.org/Graphics/SVG/1.1/DTD/svg11.dtd">
<svg width="100%" height="100%" viewBox="0 0 793 294" version="1.1" xmlns="http://www.w3.org/2000/svg" xmlns:xlink="http://www.w3.org/1999/xlink" xml:space="preserve" xmlns:serif="http://www.serif.com/" style="fill-rule:evenodd;clip-rule:evenodd;stroke-linecap:round;stroke-miterlimit:20;">
    <g transform="matrix(1,0,0,1,-10235.8,-14565.1)">
        <g transform="matrix(5.66657,0,0,3.22938,42318,2199.47)">
            <g transform="matrix(0.176473,0,0,0.309657,-5675.45,3815.13)">
                <path d="M427.618,182.335C439.572,151.72 451.452,121.49 463.106,91.172C464.49,87.573 466.3,86.267 470.035,86.585C474.977,87.005 481.044,85.324 484.602,87.648C487.939,89.828 488.735,96.009 490.485,100.493C507.989,145.331 525.46,190.181 542.93,235.032C543.514,236.53 543.984,238.072 544.739,240.27C538.43,240.27 532.65,240.439 526.898,240.114C525.858,240.055 524.54,238.119 524.017,236.787C519.51,225.319 515.06,213.826 510.82,202.256C509.721,199.255 508.145,198.297 504.985,198.319C484.657,198.455 464.326,198.464 443.997,198.301C440.696,198.275 439.352,199.533 438.288,202.44C434.105,213.858 429.597,225.157 425.418,236.576C424.398,239.362 423.068,240.533 420.012,240.354C415.377,240.083 410.714,240.283 405.04,240.283C412.686,220.656 420.081,201.675 427.618,182.335M498.797,170.734C490.903,150.115 483.009,129.496 474.589,107.502C464.799,133.213 455.601,157.369 446.206,182.044L502.893,182.044C501.499,178.244 500.259,174.865 498.797,170.734Z" style="fill:rgb(247,247,247);fill-rule:nonzero;"/>
            </g>
            <g transform="matrix(0.176473,0,0,0.309657,-5675.45,3815.13)">
                <path d="M866.668,206.822C863.049,221.999 853.861,232.307 840.042,237.601C816.872,246.479 794.168,245.742 773.846,229.921C763.13,221.58 758.998,209.514 757.787,195.583C763.446,195.583 768.582,195.412 773.688,195.724C774.739,195.788 776.351,197.532 776.567,198.71C779.092,212.524 786.759,221.834 800.454,225.301C815.4,229.085 829.864,228.024 841.705,216.97C856.544,203.118 850.724,177.049 831.258,171.396C823.29,169.082 814.502,169.244 806.067,169.019C801.735,168.903 798.869,168.053 797.065,163.867C795.636,160.55 793.525,157.527 791.104,153.305C796.565,153.305 801.115,153.467 805.648,153.266C812.282,152.973 819.068,153.186 825.496,151.811C837.016,149.345 844.068,140.988 844.889,130.489C845.971,116.649 841.073,107.763 829.475,102.526C806.847,92.309 783.533,104.668 779.727,128.891C779.626,129.532 779.436,130.16 779.233,131.025L761.561,131.025C762.651,113.968 769.512,100.642 784.017,91.714C802.899,80.093 832.088,82.077 848.679,95.16C867.355,109.888 869.009,146.806 842.309,158.311C841.611,158.611 841.015,159.146 839.87,159.904C841.176,160.567 841.978,161.044 842.832,161.399C861.137,168.994 869.082,182.147 867.294,201.947C867.159,203.439 866.933,204.923 866.668,206.822Z" style="fill:rgb(246,246,246);fill-rule:nonzero;"/>
            </g>
            <g transform="matrix(0.176473,0,0,0.309657,-5675.45,3815.13)">
                <path d="M587.466,208C587.466,218.824 587.466,229.147 587.466,239.873L569.232,239.873L569.232,87.27C569.465,87.141 569.609,86.99 569.752,86.991C593.38,87.138 617.137,85.818 640.602,87.858C665.121,89.99 677.961,106.152 678.236,130.772C678.301,136.546 677.911,142.525 676.463,148.08C672.402,163.664 661.445,172.514 646.182,175.928C639.582,177.404 632.666,177.831 625.874,178.001C613.265,178.315 600.642,178.091 587.466,178.091L587.466,208M587.421,149.466L587.421,161.818C597.17,161.818 606.287,161.924 615.401,161.785C622.88,161.67 630.446,161.891 637.811,160.834C648.381,159.316 656.393,153.488 658.394,142.559C659.596,135.994 659.414,128.909 658.416,122.274C657.1,113.521 651.217,107.691 642.771,105.136C638.371,103.805 633.646,103.066 629.047,102.962C616.395,102.674 603.733,102.853 591.074,102.878C589.982,102.88 588.889,103.106 587.421,103.271C587.421,118.546 587.421,133.512 587.421,149.466Z" style="fill:rgb(249,249,249);fill-rule:nonzero;"/>
            </g>
            <g transform="matrix(0.176473,0,0,0.309657,-5675.45,3815.13)">
                <path d="M706.228,234.795C706.228,185.346 706.228,136.371 706.228,87.03L724.934,87.03L724.934,240.351L706.228,240.351C706.228,238.503 706.228,236.886 706.228,234.795Z" style="fill:rgb(246,246,246);fill-rule:nonzero;"/>
            </g>
        </g>
        <g transform="matrix(5.66657,0,0,3.22938,42318,2199.47)">
            <g transform="matrix(0.176473,0,0,0.309657,-5675.45,3815.13)">
                <path d="M870.912,281.949C870.913,285.425 870.913,288.412 870.913,291.752L865.386,291.752L865.386,276.002C864.876,275.845 864.367,275.687 863.858,275.53C862.153,279.644 860.626,283.847 858.657,287.831C857.839,289.486 856.075,290.674 854.742,292.074C853.554,290.688 852.002,289.473 851.251,287.88C849.369,283.887 847.85,279.722 846.186,275.626C845.773,275.673 845.359,275.719 844.946,275.766L844.946,291.807L839.219,291.807C839.117,290.306 838.956,289.007 838.952,287.707C838.929,279.26 838.94,270.813 838.94,262.52C844.072,260.72 846.763,262.137 848.293,267.007C849.932,272.221 852.34,277.193 854.889,283.436C857.425,277.345 859.944,272.212 861.689,266.829C863.199,262.175 865.791,260.819 870.911,262.463C870.911,268.641 870.911,275.05 870.912,281.949Z" style="fill:rgb(223,226,226);fill-rule:nonzero;"/>
            </g>
            <g transform="matrix(0.176473,0,0,0.309657,-5675.45,3815.13)">
                <path d="M590.546,288.538C585.723,293.498 580.195,293.429 574.579,291.498C571.079,290.294 568.87,287.68 568.919,281.973C571.6,283.371 573.421,284.524 575.391,285.294C577.593,286.155 579.941,287.184 582.203,287.134C583.516,287.104 585.596,285.234 585.818,283.934C586.001,282.865 584.203,280.898 582.843,280.244C580.326,279.034 577.406,278.689 574.802,277.622C571.504,276.272 568.627,273.753 569.723,270.063C570.563,267.236 572.726,263.919 575.23,262.638C582.545,258.896 590.359,262.689 591.405,271.048C588.981,270.02 587.161,269.181 585.291,268.472C583.361,267.741 581.344,266.548 579.441,266.675C578.091,266.766 576.343,268.516 575.805,269.92C575.533,270.631 577.324,272.649 578.584,273.307C580.46,274.287 582.714,274.517 584.767,275.187C591.526,277.396 593.439,281.605 590.546,288.538Z" style="fill:rgb(225,227,226);fill-rule:nonzero;"/>
            </g>
            <g transform="matrix(0.176473,0,0,0.309657,-5675.45,3815.13)">
                <path d="M787.095,285.813C787.095,277.718 787.095,270.098 787.095,262.154L806.656,262.154C808.383,267.364 804.882,266.8 801.871,266.785C799.09,266.771 796.308,266.782 793.299,266.782L793.299,273.941C797.579,274.425 801.755,274.845 805.892,275.51C806.121,275.547 806.024,277.615 806.11,279.366L793.348,279.366L793.348,287.178C796.824,287.178 800.12,287.313 803.399,287.141C806.794,286.963 808.105,288.134 806.761,291.814L787.096,291.814C787.096,289.848 787.096,288.068 787.095,285.813Z" style="fill:rgb(224,226,225);fill-rule:nonzero;"/>
            </g>
            <g transform="matrix(0.176473,0,0,0.309657,-5675.45,3815.13)">
                <path d="M680.94,265.089C689.445,258.581 699.273,260.987 700.996,270.998C698.534,270 696.725,269.2 694.87,268.531C692.783,267.779 690.658,266.666 688.542,266.648C687.385,266.638 685.451,268.453 685.271,269.655C685.109,270.74 686.597,272.656 687.819,273.241C690.34,274.448 693.236,274.842 695.855,275.881C699.601,277.366 701.821,280.046 701.432,284.355C701.051,288.581 698.507,290.921 694.65,292.03C686.367,294.411 679.996,291.175 678.056,282.127C680.824,283.382 682.704,284.254 684.601,285.087C686.498,285.92 688.507,287.517 690.292,287.306C692.198,287.08 693.901,285.131 695.692,283.934C694.273,282.576 693.039,280.894 691.384,279.948C689.698,278.984 687.569,278.826 685.684,278.172C679.006,275.856 677.476,271.88 680.94,265.089Z" style="fill:rgb(228,229,229);fill-rule:nonzero;"/>
            </g>
            <g transform="matrix(0.176473,0,0,0.309657,-5675.45,3815.13)">
                <path d="M403.142,275.984C403.142,271.195 403.142,266.894 403.142,261.792C408.963,261.792 414.377,261.734 419.786,261.86C420.532,261.877 421.257,262.808 421.991,263.316C421.247,263.987 420.532,265.197 419.755,265.238C415.961,265.44 412.152,265.33 407.942,265.33L407.942,275.107C411.169,275.107 414.449,274.933 417.693,275.2C418.857,275.295 419.934,276.452 421.05,277.124C419.879,277.711 418.74,278.709 417.531,278.803C414.423,279.044 411.284,278.883 407.832,278.883L407.832,288.512C411.474,288.512 415.218,288.391 418.945,288.587C420.028,288.644 421.063,289.607 422.121,290.155C421.047,290.832 419.977,291.516 418.892,292.175C418.771,292.249 418.565,292.191 418.399,292.186C413.607,292.028 406.485,293.689 404.59,291.265C402.014,287.97 403.435,281.552 403.142,275.984Z" style="fill:rgb(208,210,210);fill-rule:nonzero;"/>
            </g>
            <g transform="matrix(0.176473,0,0,0.309657,-5675.45,3815.13)">
                <path d="M529.394,262.413C539.129,266.691 539.121,281.49 534.568,287.405C530.107,293.201 521.678,294.426 515.975,289.873C510.552,285.542 508.81,275.816 512.202,268.803C515.229,262.545 521.014,260.294 529.394,262.413M533.522,276.55C532.261,273.42 531.657,269.732 529.583,267.294C526.615,263.805 520.726,264.54 517.576,267.933C513.584,272.234 513.541,281.656 517.493,285.926C520.657,289.344 526.499,290.117 529.506,286.647C531.597,284.234 532.229,280.555 533.522,276.55Z" style="fill:rgb(213,215,216);fill-rule:nonzero;"/>
            </g>
            <g transform="matrix(0.176473,0,0,0.309657,-5675.45,3815.13)">
                <path d="M639.572,278.034C638.641,282.707 637.929,287.055 637.132,291.918C636.028,291.972 634.442,292.048 631.823,292.175C634.675,280.027 626.292,272.13 621.566,262.554C625.347,261.127 628.011,261.451 629.773,265.368C631.11,268.341 632.926,271.099 634.531,273.955C640.12,270.975 638.25,259.934 648.673,262.295C645.556,267.704 642.673,272.705 639.572,278.034Z" style="fill:rgb(221,224,224);fill-rule:nonzero;"/>
            </g>
            <g transform="matrix(0.176473,0,0,0.309657,-5675.45,3815.13)">
                <path d="M454.744,271.581C457.642,264.194 461.897,261.045 468.15,261.35C474.106,261.64 477.814,264.74 479.734,272.339C477.534,271.033 475.873,270.599 475.178,269.534C472.878,266.01 469.72,264.65 465.779,265.396C461.538,266.198 458.972,269.198 458.508,273.287C458.145,276.489 458.187,280.069 459.271,283.034C461.771,289.876 470.328,290.606 474.944,284.782C475.854,283.634 477.269,282.886 478.881,282.449C478.747,287.869 475.804,290.781 471.178,292.108C465.856,293.634 460.374,291.863 457.321,287.671C453.844,282.897 453.405,277.555 454.744,271.581Z" style="fill:rgb(215,218,218);fill-rule:nonzero;"/>
            </g>
            <g transform="matrix(0.176473,0,0,0.309657,-5675.45,3815.13)">
                <path d="M731.587,265.694C732.301,264.175 733.167,262.036 734.119,261.997C741.081,261.709 748.061,261.842 754.951,261.842C755.707,265.321 755.707,265.321 746.455,267.591L746.455,291.759C744.529,291.902 742.975,292.017 740.881,292.172L740.881,267.375C737.532,266.886 734.655,266.466 731.587,265.694Z" style="fill:rgb(226,228,229);fill-rule:nonzero;"/>
            </g>
        </g>
        <g transform="matrix(5.66657,0,0,3.22938,42318,2199.47)">
            <g transform="matrix(0.177261,0,0,0.309657,-7476.08,-681.082)">
                <path d="M10400.7,14585.1L10545.6,14838.8L10255.9,14838.8L10400.7,14585.1Z" style="fill:none;stroke:rgb(54,83,72);stroke-width:2px;"/>
            </g>
            <g transform="matrix(0.117463,0,0,0.205196,-6854.1,860.496)">
                <path d="M10400.7,14585.1L10545.6,14838.8L10255.9,14838.8L10400.7,14585.1Z" style="fill:none;stroke:rgb(94,152,127);stroke-width:3.01px;"/>
            </g>
            <g transform="matrix(0.0599381,0,0,0.104706,-6255.77,2342.61)">
                <path d="M10400.7,14585.1L10545.6,14838.8L10255.9,14838.8L10400.7,14585.1Z" style="fill:none;stroke:rgb(124,202,171);stroke-width:5.9px;"/>
            </g>
        </g>
    </g>
</svg>
