<?xml version="1.0" encoding="UTF-8" standalone="no"?>
<!DOCTYPE svg PUBLIC "-//W3C//DTD SVG 1.1//EN" "http://www.w3.org/Graphics/SVG/1.1/DTD/svg11.dtd">
<svg width="100%" height="100%" viewBox="0 0 300 300" version="1.1" xmlns="http://www.w3.org/2000/svg" xmlns:xlink="http://www.w3.org/1999/xlink" xml:space="preserve" xmlns:serif="http://www.serif.com/" style="fill-rule:evenodd;clip-rule:evenodd;stroke-linejoin:round;stroke-miterlimit:20;">
    <g transform="matrix(1,0,0,1,-22732.3,-19886.4)">
        <g transform="matrix(5.66657,0,0,3.22938,52953.8,2199.47)">
            <g transform="matrix(0.173279,0,0,0.303139,-9244.77,-498.192)">
                <rect x="22573.3" y="19710.7" width="305.531" height="306.451" style="fill:none;"/>
                <clipPath id="_clip1">
                    <rect x="22573.3" y="19710.7" width="305.531" height="306.451"/>
                </clipPath>
                <g clip-path="url(#_clip1)">
                    <g id="dapp" transform="matrix(2.03811,0,0,1.10447,34326.9,14226.9)">
                        <g transform="matrix(0.176473,0,0,0.309657,-9343.93,-684.574)">
                            <path d="M20899.1,18788.8L20899.1,19055.5" style="fill:none;stroke:rgb(125,227,194);stroke-width:14.53px;"/>
                        </g>
                        <g transform="matrix(0.176473,0,0,0.309657,-9344.94,-685.108)">
                            <path d="M21038.6,18923.9L20771,18923.9" style="fill:none;stroke:rgb(125,227,194);stroke-width:14.53px;"/>
                        </g>
                        <g>
                            <g transform="matrix(0.200749,0,0,0.352252,-9842.49,-1456.45)">
                                <path d="M20499.8,18231.6L20655.1,18321.3C20659.1,18323.6 20661.5,18328 20661.5,18332.8L20661.5,18512.1C20661.5,18516.9 20659.1,18521.3 20655.1,18523.6L20499.8,18613.2C20496.1,18615.4 20491.6,18615.4 20487.9,18613.2L20332.6,18523.6C20328.6,18521.3 20326.1,18516.9 20326.1,18512.1L20326.1,18332.8C20326.1,18328 20328.6,18323.6 20332.6,18321.3L20487.9,18231.6C20491.6,18229.5 20496.1,18229.5 20499.8,18231.6ZM20493.8,18243.2L20338.6,18332.8L20338.6,18512.1L20493.8,18601.7L20649.1,18512.1L20649.1,18332.8L20493.8,18243.2Z" style="fill:rgb(37,170,125);"/>
                            </g>
                            <g transform="matrix(0.130414,0,0,0.228837,-8401.07,817.159)">
                                <path d="M20503,18225.4L20658.3,18315.1C20664.4,18318.6 20668.3,18325.4 20668.3,18332.8L20668.3,18512.1C20668.3,18519.5 20664.4,18526.3 20658.3,18529.8L20503,18619.5C20497.3,18622.8 20490.4,18622.8 20484.6,18619.5L20329.4,18529.8C20323.2,18526.3 20319.4,18519.5 20319.4,18512.1L20319.4,18332.8C20319.4,18325.4 20323.2,18318.6 20329.4,18315.1L20484.6,18225.4C20490.4,18222.1 20497.3,18222.1 20503,18225.4ZM20493.8,18243.2L20338.6,18332.8L20338.6,18512.1L20493.8,18601.7L20649.1,18512.1L20649.1,18332.8L20493.8,18243.2Z" style="fill:rgb(83,218,173);"/>
                            </g>
                            <g transform="matrix(0.069373,0,0,0.121728,-7150.1,2790.36)">
                                <path d="M20511.1,18209.8L20666.4,18299.5C20677.9,18306.1 20685.1,18318.9 20685.1,18332.8L20685.1,18512.1C20685.1,18526 20677.9,18538.7 20666.4,18545.4L20511.1,18635.1C20500.4,18641.3 20487.3,18641.3 20476.5,18635.1L20321.3,18545.4C20309.7,18538.7 20302.6,18526 20302.6,18512.1L20302.6,18332.8C20302.6,18318.9 20309.7,18306.1 20321.3,18299.5L20476.5,18209.8C20487.3,18203.6 20500.4,18203.6 20511.1,18209.8ZM20493.8,18243.2L20338.6,18332.8L20338.6,18512.1L20493.8,18601.7L20649.1,18512.1L20649.1,18332.8L20493.8,18243.2Z" style="fill:rgb(125,227,194);"/>
                            </g>
                        </g>
                        <g transform="matrix(1,0,0,1,72.9297,-4.54747e-13)">
                            <g transform="matrix(0.200749,0,0,0.352252,-9842.49,-1456.45)">
                                <path d="M20499.8,18231.6L20655.1,18321.3C20659.1,18323.6 20661.5,18328 20661.5,18332.8L20661.5,18512.1C20661.5,18516.9 20659.1,18521.3 20655.1,18523.6L20499.8,18613.2C20496.1,18615.4 20491.6,18615.4 20487.9,18613.2L20332.6,18523.6C20328.6,18521.3 20326.1,18516.9 20326.1,18512.1L20326.1,18332.8C20326.1,18328 20328.6,18323.6 20332.6,18321.3L20487.9,18231.6C20491.6,18229.5 20496.1,18229.5 20499.8,18231.6ZM20493.8,18243.2L20338.6,18332.8L20338.6,18512.1L20493.8,18601.7L20649.1,18512.1L20649.1,18332.8L20493.8,18243.2Z" style="fill:rgb(32,146,108);"/>
                            </g>
                            <g transform="matrix(0.130414,0,0,0.228837,-8401.07,817.159)">
                                <path d="M20503,18225.4L20658.3,18315.1C20664.4,18318.6 20668.3,18325.4 20668.3,18332.8L20668.3,18512.1C20668.3,18519.5 20664.4,18526.3 20658.3,18529.8L20503,18619.5C20497.3,18622.8 20490.4,18622.8 20484.6,18619.5L20329.4,18529.8C20323.2,18526.3 20319.4,18519.5 20319.4,18512.1L20319.4,18332.8C20319.4,18325.4 20323.2,18318.6 20329.4,18315.1L20484.6,18225.4C20490.4,18222.1 20497.3,18222.1 20503,18225.4ZM20493.8,18243.2L20338.6,18332.8L20338.6,18512.1L20493.8,18601.7L20649.1,18512.1L20649.1,18332.8L20493.8,18243.2Z" style="fill:rgb(51,211,158);"/>
                            </g>
                            <g transform="matrix(0.069373,0,0,0.121728,-7150.1,2790.36)">
                                <path d="M20511.1,18209.8L20666.4,18299.5C20677.9,18306.1 20685.1,18318.9 20685.1,18332.8L20685.1,18512.1C20685.1,18526 20677.9,18538.7 20666.4,18545.4L20511.1,18635.1C20500.4,18641.3 20487.3,18641.3 20476.5,18635.1L20321.3,18545.4C20309.7,18538.7 20302.6,18526 20302.6,18512.1L20302.6,18332.8C20302.6,18318.9 20309.7,18306.1 20321.3,18299.5L20476.5,18209.8C20487.3,18203.6 20500.4,18203.6 20511.1,18209.8ZM20493.8,18243.2L20338.6,18332.8L20338.6,18512.1L20493.8,18601.7L20649.1,18512.1L20649.1,18332.8L20493.8,18243.2Z" style="fill:rgb(125,227,194);"/>
                            </g>
                        </g>
                        <g transform="matrix(1,0,0,1,0,141.909)">
                            <g transform="matrix(0.200749,0,0,0.352252,-9842.49,-1456.45)">
                                <path d="M20499.8,18231.6L20655.1,18321.3C20659.1,18323.6 20661.5,18328 20661.5,18332.8L20661.5,18512.1C20661.5,18516.9 20659.1,18521.3 20655.1,18523.6L20499.8,18613.2C20496.1,18615.4 20491.6,18615.4 20487.9,18613.2L20332.6,18523.6C20328.6,18521.3 20326.1,18516.9 20326.1,18512.1L20326.1,18332.8C20326.1,18328 20328.6,18323.6 20332.6,18321.3L20487.9,18231.6C20491.6,18229.5 20496.1,18229.5 20499.8,18231.6ZM20493.8,18243.2L20338.6,18332.8L20338.6,18512.1L20493.8,18601.7L20649.1,18512.1L20649.1,18332.8L20493.8,18243.2Z" style="fill:rgb(34,156,115);"/>
                            </g>
                            <g transform="matrix(0.130414,0,0,0.228837,-8401.07,817.159)">
                                <path d="M20503,18225.4L20658.3,18315.1C20664.4,18318.6 20668.3,18325.4 20668.3,18332.8L20668.3,18512.1C20668.3,18519.5 20664.4,18526.3 20658.3,18529.8L20503,18619.5C20497.3,18622.8 20490.4,18622.8 20484.6,18619.5L20329.4,18529.8C20323.2,18526.3 20319.4,18519.5 20319.4,18512.1L20319.4,18332.8C20319.4,18325.4 20323.2,18318.6 20329.4,18315.1L20484.6,18225.4C20490.4,18222.1 20497.3,18222.1 20503,18225.4ZM20493.8,18243.2L20338.6,18332.8L20338.6,18512.1L20493.8,18601.7L20649.1,18512.1L20649.1,18332.8L20493.8,18243.2Z" style="fill:rgb(46,210,155);"/>
                            </g>
                            <g transform="matrix(0.069373,0,0,0.121728,-7150.1,2790.36)">
                                <path d="M20511.1,18209.8L20666.4,18299.5C20677.9,18306.1 20685.1,18318.9 20685.1,18332.8L20685.1,18512.1C20685.1,18526 20677.9,18538.7 20666.4,18545.4L20511.1,18635.1C20500.4,18641.3 20487.3,18641.3 20476.5,18635.1L20321.3,18545.4C20309.7,18538.7 20302.6,18526 20302.6,18512.1L20302.6,18332.8C20302.6,18318.9 20309.7,18306.1 20321.3,18299.5L20476.5,18209.8C20487.3,18203.6 20500.4,18203.6 20511.1,18209.8ZM20493.8,18243.2L20338.6,18332.8L20338.6,18512.1L20493.8,18601.7L20649.1,18512.1L20649.1,18332.8L20493.8,18243.2Z" style="fill:rgb(125,227,194);"/>
                            </g>
                        </g>
                    </g>
                </g>
            </g>
        </g>
    </g>
</svg>
