<?xml version="1.0" encoding="UTF-8" standalone="no"?>
<!DOCTYPE svg PUBLIC "-//W3C//DTD SVG 1.1//EN" "http://www.w3.org/Graphics/SVG/1.1/DTD/svg11.dtd">
<svg width="100%" height="100%" viewBox="0 0 469 502" version="1.1" xmlns="http://www.w3.org/2000/svg" xmlns:xlink="http://www.w3.org/1999/xlink" xml:space="preserve" xmlns:serif="http://www.serif.com/" style="fill-rule:evenodd;clip-rule:evenodd;stroke-linejoin:round;stroke-miterlimit:20;">
    <g transform="matrix(1,0,0,1,-20009.2,-18456)">
        <g transform="matrix(5.66657,0,0,3.22938,52953.8,2199.47)">
            <g id="dapp" transform="matrix(0.608899,0,0,0.577253,-2306.69,2165.45)">
                <g transform="matrix(0.176473,0,0,0.309657,-9343.93,-684.574)">
                    <path d="M20899.1,18788.8L20899.1,19055.5" style="fill:none;stroke:rgb(125,227,194);stroke-width:1.69px;"/>
                </g>
                <g transform="matrix(0.176473,0,0,0.309657,-9344.94,-685.108)">
                    <path d="M21038.6,18923.9L20771,18923.9" style="fill:none;stroke:rgb(125,227,194);stroke-width:1.69px;"/>
                </g>
                <g>
                    <g transform="matrix(0.200749,0,0,0.352252,-9842.49,-1456.45)">
                        <path d="M20494.5,18241.8L20649.8,18331.5C20650.3,18331.7 20650.5,18332.2 20650.5,18332.8L20650.5,18512.1C20650.5,18512.6 20650.3,18513.2 20649.8,18513.4L20494.5,18603.1C20494.1,18603.3 20493.6,18603.3 20493.1,18603.1L20337.9,18513.4C20337.4,18513.2 20337.1,18512.6 20337.1,18512.1L20337.1,18332.8C20337.1,18332.2 20337.4,18331.7 20337.9,18331.5L20493.1,18241.8C20493.6,18241.6 20494.1,18241.6 20494.5,18241.8ZM20493.8,18243.2L20338.6,18332.8L20338.6,18512.1L20493.8,18601.7L20649.1,18512.1L20649.1,18332.8L20493.8,18243.2Z" style="fill:rgb(125,227,194);"/>
                    </g>
                    <g transform="matrix(0.130414,0,0,0.228837,-8401.07,817.159)">
                        <path d="M20494.9,18241.1L20650.2,18330.7C20650.9,18331.2 20651.3,18331.9 20651.3,18332.8L20651.3,18512.1C20651.3,18512.9 20650.9,18513.7 20650.2,18514.1L20494.9,18603.8C20494.2,18604.2 20493.4,18604.2 20492.8,18603.8L20337.5,18514.1C20336.8,18513.7 20336.3,18512.9 20336.3,18512.1L20336.3,18332.8C20336.3,18331.9 20336.8,18331.2 20337.5,18330.7L20492.8,18241.1C20493.4,18240.7 20494.2,18240.7 20494.9,18241.1ZM20493.8,18243.2L20338.6,18332.8L20338.6,18512.1L20493.8,18601.7L20649.1,18512.1L20649.1,18332.8L20493.8,18243.2Z" style="fill:rgb(125,227,194);"/>
                    </g>
                    <g transform="matrix(0.069373,0,0,0.121728,-7150.1,2790.36)">
                        <path d="M20495.8,18239.3L20651.1,18328.9C20652.4,18329.7 20653.3,18331.2 20653.3,18332.8L20653.3,18512.1C20653.3,18513.7 20652.4,18515.2 20651.1,18516L20495.8,18605.6C20494.6,18606.3 20493.1,18606.3 20491.8,18605.6L20336.6,18516C20335.2,18515.2 20334.4,18513.7 20334.4,18512.1L20334.4,18332.8C20334.4,18331.2 20335.2,18329.7 20336.6,18328.9L20491.8,18239.3C20493.1,18238.6 20494.6,18238.6 20495.8,18239.3ZM20493.8,18243.2L20338.6,18332.8L20338.6,18512.1L20493.8,18601.7L20649.1,18512.1L20649.1,18332.8L20493.8,18243.2Z" style="fill:rgb(125,227,194);"/>
                    </g>
                </g>
                <g transform="matrix(1,0,0,1,72.9297,-4.54747e-13)">
                    <g transform="matrix(0.200749,0,0,0.352252,-9842.49,-1456.45)">
                        <path d="M20494.5,18241.8L20649.8,18331.5C20650.3,18331.7 20650.5,18332.2 20650.5,18332.8L20650.5,18512.1C20650.5,18512.6 20650.3,18513.2 20649.8,18513.4L20494.5,18603.1C20494.1,18603.3 20493.6,18603.3 20493.1,18603.1L20337.9,18513.4C20337.4,18513.2 20337.1,18512.6 20337.1,18512.1L20337.1,18332.8C20337.1,18332.2 20337.4,18331.7 20337.9,18331.5L20493.1,18241.8C20493.6,18241.6 20494.1,18241.6 20494.5,18241.8ZM20493.8,18243.2L20338.6,18332.8L20338.6,18512.1L20493.8,18601.7L20649.1,18512.1L20649.1,18332.8L20493.8,18243.2Z" style="fill:rgb(125,227,194);"/>
                    </g>
                    <g transform="matrix(0.130414,0,0,0.228837,-8401.07,817.159)">
                        <path d="M20494.9,18241.1L20650.2,18330.7C20650.9,18331.2 20651.3,18331.9 20651.3,18332.8L20651.3,18512.1C20651.3,18512.9 20650.9,18513.7 20650.2,18514.1L20494.9,18603.8C20494.2,18604.2 20493.4,18604.2 20492.8,18603.8L20337.5,18514.1C20336.8,18513.7 20336.3,18512.9 20336.3,18512.1L20336.3,18332.8C20336.3,18331.9 20336.8,18331.2 20337.5,18330.7L20492.8,18241.1C20493.4,18240.7 20494.2,18240.7 20494.9,18241.1ZM20493.8,18243.2L20338.6,18332.8L20338.6,18512.1L20493.8,18601.7L20649.1,18512.1L20649.1,18332.8L20493.8,18243.2Z" style="fill:rgb(125,227,194);"/>
                    </g>
                    <g transform="matrix(0.069373,0,0,0.121728,-7150.1,2790.36)">
                        <path d="M20495.8,18239.3L20651.1,18328.9C20652.4,18329.7 20653.3,18331.2 20653.3,18332.8L20653.3,18512.1C20653.3,18513.7 20652.4,18515.2 20651.1,18516L20495.8,18605.6C20494.6,18606.3 20493.1,18606.3 20491.8,18605.6L20336.6,18516C20335.2,18515.2 20334.4,18513.7 20334.4,18512.1L20334.4,18332.8C20334.4,18331.2 20335.2,18329.7 20336.6,18328.9L20491.8,18239.3C20493.1,18238.6 20494.6,18238.6 20495.8,18239.3ZM20493.8,18243.2L20338.6,18332.8L20338.6,18512.1L20493.8,18601.7L20649.1,18512.1L20649.1,18332.8L20493.8,18243.2Z" style="fill:rgb(125,227,194);"/>
                    </g>
                </g>
                <g transform="matrix(1,0,0,1,0,141.909)">
                    <g transform="matrix(0.200749,0,0,0.352252,-9842.49,-1456.45)">
                        <path d="M20494.5,18241.8L20649.8,18331.5C20650.3,18331.7 20650.5,18332.2 20650.5,18332.8L20650.5,18512.1C20650.5,18512.6 20650.3,18513.2 20649.8,18513.4L20494.5,18603.1C20494.1,18603.3 20493.6,18603.3 20493.1,18603.1L20337.9,18513.4C20337.4,18513.2 20337.1,18512.6 20337.1,18512.1L20337.1,18332.8C20337.1,18332.2 20337.4,18331.7 20337.9,18331.5L20493.1,18241.8C20493.6,18241.6 20494.1,18241.6 20494.5,18241.8ZM20493.8,18243.2L20338.6,18332.8L20338.6,18512.1L20493.8,18601.7L20649.1,18512.1L20649.1,18332.8L20493.8,18243.2Z" style="fill:rgb(125,227,194);"/>
                    </g>
                    <g transform="matrix(0.130414,0,0,0.228837,-8401.07,817.159)">
                        <path d="M20494.9,18241.1L20650.2,18330.7C20650.9,18331.2 20651.3,18331.9 20651.3,18332.8L20651.3,18512.1C20651.3,18512.9 20650.9,18513.7 20650.2,18514.1L20494.9,18603.8C20494.2,18604.2 20493.4,18604.2 20492.8,18603.8L20337.5,18514.1C20336.8,18513.7 20336.3,18512.9 20336.3,18512.1L20336.3,18332.8C20336.3,18331.9 20336.8,18331.2 20337.5,18330.7L20492.8,18241.1C20493.4,18240.7 20494.2,18240.7 20494.9,18241.1ZM20493.8,18243.2L20338.6,18332.8L20338.6,18512.1L20493.8,18601.7L20649.1,18512.1L20649.1,18332.8L20493.8,18243.2Z" style="fill:rgb(125,227,194);"/>
                    </g>
                    <g transform="matrix(0.069373,0,0,0.121728,-7150.1,2790.36)">
                        <path d="M20495.8,18239.3L20651.1,18328.9C20652.4,18329.7 20653.3,18331.2 20653.3,18332.8L20653.3,18512.1C20653.3,18513.7 20652.4,18515.2 20651.1,18516L20495.8,18605.6C20494.6,18606.3 20493.1,18606.3 20491.8,18605.6L20336.6,18516C20335.2,18515.2 20334.4,18513.7 20334.4,18512.1L20334.4,18332.8C20334.4,18331.2 20335.2,18329.7 20336.6,18328.9L20491.8,18239.3C20493.1,18238.6 20494.6,18238.6 20495.8,18239.3ZM20493.8,18243.2L20338.6,18332.8L20338.6,18512.1L20493.8,18601.7L20649.1,18512.1L20649.1,18332.8L20493.8,18243.2Z" style="fill:rgb(125,227,194);"/>
                    </g>
                </g>
            </g>
        </g>
    </g>
</svg>
