<svg width="512" height="513" viewBox="0 0 512 513" fill="none" xmlns="http://www.w3.org/2000/svg">
<g clip-path="url(#clip0_203_7928)">
<path opacity="0.1" d="M148.267 329.336L148.183 329.135C148.211 329.202 148.239 329.269 148.267 329.336Z" fill="#4BC79A"/>
<path opacity="0.1" d="M144.236 318.942C142.101 312.912 140.275 306.777 138.767 300.561C140.271 306.778 142.096 312.914 144.236 318.942Z" fill="#4BC79A"/>
<path opacity="0.1" d="M145.414 322.169C145.147 321.456 144.877 320.744 144.619 320.028C144.878 320.744 145.146 321.457 145.414 322.169Z" fill="#4BC79A"/>
<path opacity="0.1" d="M146.781 325.711C146.611 325.281 146.439 324.852 146.271 324.421C146.439 324.852 146.61 325.282 146.781 325.711Z" fill="#4BC79A"/>
<path opacity="0.1" d="M138.765 300.555C138.467 299.323 138.182 298.087 137.909 296.848C138.182 298.088 138.468 299.324 138.765 300.555Z" fill="#4BC79A"/>
<path opacity="0.1" d="M136.919 292.05C136.72 291.022 136.526 289.992 136.344 288.96C136.525 289.994 136.721 291.022 136.919 292.05Z" fill="#4BC79A"/>
<path opacity="0.1" d="M136.003 286.908C135.892 286.235 135.776 285.564 135.672 284.891C135.775 285.565 135.893 286.235 136.003 286.908Z" fill="#4BC79A"/>
<path opacity="0.1" d="M137.808 296.384C137.559 295.244 137.321 294.101 137.093 292.955C137.32 294.102 137.558 295.245 137.808 296.384Z" fill="#4BC79A"/>
<path opacity="0.1" d="M320.211 69.9976C292.966 69.9927 266.052 75.9622 241.364 87.4856C216.677 99.0089 194.816 115.806 177.323 136.693L177.828 136.884C178.24 137.04 178.643 137.214 179.053 137.374C196.382 116.816 217.994 100.292 242.376 88.9578C266.759 77.6241 293.323 71.7544 320.211 71.7595C422.17 71.7595 505.119 154.71 505.119 256.668C505.119 358.626 422.17 441.576 320.211 441.576C293.165 441.581 266.449 435.642 241.952 424.181C217.455 412.719 195.777 396.014 178.449 375.248C178.052 375.401 177.662 375.568 177.262 375.717L176.713 375.922C194.203 397.018 216.132 413.998 240.935 425.651C265.738 437.304 292.807 443.343 320.211 443.338C423.142 443.338 506.881 359.598 506.881 256.668C506.881 153.738 423.142 69.9976 320.211 69.9976Z" fill="#4BC79A"/>
<path opacity="0.1263" d="M320.211 433.995C417.99 433.995 497.539 354.447 497.539 256.668C497.539 158.889 417.99 79.3396 320.211 79.3396C294.82 79.332 269.725 84.7881 246.629 95.3374C223.533 105.887 202.978 121.282 186.359 140.478C186.913 140.736 187.458 141.008 188.008 141.273C204.46 122.373 224.774 107.222 247.58 96.8418C270.386 86.4616 295.153 81.0941 320.211 81.1013C417.018 81.1013 495.777 159.86 495.777 256.668C495.777 353.475 417.018 432.234 320.211 432.234C295.003 432.241 270.091 426.81 247.175 416.311C224.258 405.811 203.877 390.491 187.421 371.396C186.873 371.656 186.328 371.924 185.775 372.177C202.396 391.571 223.017 407.138 246.223 417.809C269.428 428.48 294.669 434.002 320.211 433.995Z" fill="#4BC79A"/>
<path opacity="0.1526" d="M320.211 424.654C412.839 424.654 488.197 349.296 488.197 256.668C488.197 164.04 412.839 88.6814 320.211 88.6814C296.549 88.6738 273.155 93.6762 251.565 103.36C229.976 113.043 210.682 127.188 194.952 144.863C195.475 145.156 195.987 145.466 196.505 145.766C212.068 128.355 231.132 114.426 252.45 104.893C273.767 95.3593 296.858 90.4353 320.211 90.4431C411.867 90.4431 486.435 165.011 486.435 256.668C486.435 348.324 411.867 422.892 320.211 422.892C296.717 422.899 273.49 417.915 252.068 408.269C230.646 398.624 211.517 384.538 195.949 366.943C195.428 367.24 194.913 367.546 194.388 367.836C210.123 385.698 229.483 400.004 251.178 409.8C272.873 419.597 296.406 424.661 320.211 424.654Z" fill="#4BC79A"/>
<path opacity="0.1789" d="M320.211 415.312C407.687 415.312 478.855 344.144 478.855 256.668C478.855 169.191 407.687 98.0232 320.211 98.0232C298.154 98.0142 276.338 102.616 256.163 111.533C235.989 120.451 217.901 133.487 203.061 149.805C203.556 150.133 204.039 150.478 204.529 150.813C219.201 134.729 237.068 121.883 256.987 113.096C276.907 104.31 298.44 99.7762 320.211 99.7849C406.717 99.7849 477.094 170.162 477.094 256.668C477.094 343.173 406.717 413.55 320.211 413.55C298.306 413.559 276.644 408.97 256.625 400.079C236.606 391.189 218.675 378.196 203.994 361.94C203.503 362.271 203.018 362.61 202.522 362.935C217.37 379.428 235.522 392.615 255.797 401.638C276.072 410.661 298.018 415.32 320.211 415.312Z" fill="#4BC79A"/>
<path opacity="0.2053" d="M320.211 405.97C402.537 405.97 469.514 338.993 469.514 256.668C469.514 174.342 402.537 107.365 320.211 107.365C299.639 107.357 279.288 111.612 260.442 119.86C241.596 128.108 224.663 140.172 210.712 155.29C211.177 155.651 211.63 156.027 212.09 156.394C225.876 141.481 242.598 129.584 261.206 121.449C279.813 113.315 299.903 109.119 320.211 109.128C401.565 109.128 467.752 175.314 467.752 256.668C467.752 338.021 401.565 404.208 320.211 404.208C299.778 404.216 279.566 399.969 260.864 391.738C242.162 383.507 225.379 371.471 211.584 356.398C211.121 356.762 210.663 357.133 210.196 357.491C224.158 372.773 241.152 384.977 260.094 393.324C279.037 401.671 299.511 405.978 320.211 405.97Z" fill="#4BC79A"/>
<path opacity="0.2316" d="M320.211 396.628C397.386 396.628 460.172 333.843 460.172 256.668C460.172 179.493 397.386 116.708 320.211 116.708C301.006 116.7 282.006 120.655 264.4 128.325C246.793 135.996 230.958 147.217 217.887 161.286C218.323 161.679 218.748 162.084 219.178 162.483C232.086 148.591 247.72 137.513 265.105 129.94C282.489 122.366 301.249 118.462 320.211 118.469C396.414 118.469 458.41 180.465 458.41 256.668C458.41 332.871 396.414 394.867 320.211 394.867C301.132 394.874 282.258 390.921 264.786 383.257C247.313 375.593 231.622 364.386 218.705 350.344C218.272 350.741 217.841 351.14 217.403 351.53C230.485 365.753 246.377 377.106 264.074 384.869C281.771 392.632 300.886 396.636 320.211 396.628Z" fill="#4BC79A"/>
<path opacity="0.2579" d="M320.211 387.286C354.841 387.247 388.042 373.473 412.529 348.985C437.016 324.498 450.79 291.298 450.829 256.668C450.829 184.644 392.234 126.049 320.211 126.049C302.257 126.042 284.496 129.745 268.042 136.927C251.588 144.109 236.795 154.615 224.593 167.784C225.001 168.208 225.398 168.642 225.8 169.072C243.427 150.057 266.38 136.801 291.66 131.038C316.94 125.276 343.371 127.273 367.498 136.771C391.624 146.268 412.324 162.824 426.892 184.273C441.46 205.722 449.219 231.067 449.153 256.995C449.088 282.924 441.201 308.23 426.525 329.605C411.849 350.98 391.065 367.43 366.891 376.806C342.717 386.181 316.276 388.045 291.026 382.155C265.775 376.264 242.889 362.893 225.358 343.789C224.955 344.217 224.549 344.642 224.142 345.066C236.353 358.379 251.199 369.007 267.738 376.275C284.276 383.543 302.146 387.293 320.211 387.286Z" fill="#4BC79A"/>
<path opacity="0.2842" d="M320.211 377.944C340.385 377.958 360.244 372.939 377.989 363.341C395.734 353.743 410.805 339.87 421.836 322.979C432.867 306.087 439.509 286.711 441.162 266.604C442.815 246.498 439.426 226.297 431.302 207.831C423.178 189.364 410.576 173.216 394.637 160.85C378.697 148.483 359.925 140.287 340.019 137.006C320.114 133.725 299.704 135.461 280.638 142.057C261.573 148.654 244.455 159.902 230.833 174.784C231.211 175.24 231.582 175.703 231.953 176.165C248.21 158.326 269.488 145.827 292.985 140.313C316.482 134.799 341.099 136.528 363.594 145.273C386.09 154.018 405.41 169.37 419.013 189.307C432.617 209.243 439.865 232.832 439.804 256.967C439.744 281.103 432.377 304.654 418.674 324.523C404.971 344.391 385.573 359.645 363.034 368.277C340.495 376.909 315.87 378.515 292.401 372.883C268.932 367.251 247.717 354.645 231.55 336.725C231.175 337.186 230.796 337.644 230.415 338.098C241.764 350.65 255.619 360.681 271.087 367.545C286.554 374.408 303.289 377.951 320.211 377.944Z" fill="#4BC79A"/>
<path opacity="0.3105" d="M320.211 368.602C338.901 368.615 357.297 363.948 373.72 355.027C390.144 346.105 404.072 333.213 414.233 317.527C424.395 301.841 430.468 283.86 431.897 265.225C433.325 246.589 430.065 227.893 422.413 210.841C414.762 193.789 402.962 178.924 388.091 167.604C373.219 156.283 355.75 148.866 337.276 146.029C318.803 143.193 299.913 145.027 282.33 151.366C264.748 157.704 249.032 168.344 236.617 182.315C236.764 182.521 236.919 182.72 237.065 182.927C237.267 183.215 237.454 183.51 237.654 183.8C252.471 166.998 272.058 155.113 293.803 149.729C315.548 144.345 338.418 145.717 359.363 153.664C380.308 161.611 398.333 175.753 411.034 194.207C423.735 212.66 430.509 234.547 430.452 256.948C430.396 279.35 423.511 301.202 410.717 319.591C397.923 337.98 379.827 352.031 358.842 359.872C337.858 367.713 314.981 368.97 293.263 363.476C271.546 357.982 252.019 345.998 237.287 329.122C237.153 329.314 237.029 329.511 236.894 329.701C236.681 330.004 236.454 330.294 236.238 330.594C246.725 342.54 259.64 352.11 274.121 358.664C288.602 365.219 304.315 368.607 320.211 368.602Z" fill="#4BC79A"/>
<path opacity="0.3368" d="M320.211 359.26C337.448 359.272 354.409 354.94 369.53 346.666C384.651 338.391 397.443 326.44 406.725 311.916C416.008 297.392 421.481 280.764 422.64 263.566C423.799 246.369 420.606 229.156 413.357 213.518C406.107 197.88 395.034 184.321 381.161 174.092C367.287 163.863 351.06 157.295 333.977 154.993C316.895 152.692 299.508 154.732 283.422 160.924C267.336 167.117 253.07 177.262 241.94 190.424C242.261 190.956 242.578 191.49 242.89 192.027C256.182 176.116 274.056 164.69 294.076 159.305C314.096 153.919 335.29 154.836 354.771 161.93C374.251 169.025 391.071 181.952 402.94 198.951C414.808 215.949 421.148 236.194 421.096 256.926C421.043 277.658 414.601 297.87 402.647 314.808C390.693 331.747 373.808 344.589 354.292 351.585C334.776 358.581 313.578 359.391 293.585 353.904C273.592 348.417 255.776 336.901 242.565 320.924C242.25 321.456 241.924 321.983 241.601 322.511C251.215 334.018 263.238 343.273 276.821 349.623C290.405 355.973 305.217 359.263 320.211 359.26Z" fill="#4BC79A"/>
<path opacity="0.3632" d="M320.211 349.919C336.029 349.927 351.589 345.911 365.428 338.25C379.266 330.588 390.928 319.532 399.317 306.122C407.706 292.711 412.546 277.387 413.381 261.591C414.216 245.795 411.019 230.047 404.092 215.826C397.164 201.606 386.732 189.382 373.779 180.304C360.825 171.225 345.775 165.591 330.045 163.931C314.314 162.272 298.42 164.641 283.857 170.816C269.294 176.991 256.541 186.769 246.798 199.23C247.092 199.818 247.373 200.411 247.658 201.002C259.303 185.814 275.418 174.661 293.734 169.111C312.05 163.562 331.646 163.896 349.762 170.067C367.878 176.238 383.603 187.935 394.723 203.512C405.843 219.089 411.798 237.76 411.75 256.899C411.702 276.037 405.653 294.679 394.455 310.199C383.257 325.72 367.474 337.338 349.326 343.418C331.179 349.498 311.582 349.734 293.294 344.092C275.006 338.451 258.948 327.216 247.379 311.97C247.093 312.557 246.802 313.142 246.506 313.725C255.209 324.988 266.378 334.108 279.155 340.382C291.932 346.656 305.976 349.919 320.211 349.919Z" fill="#4BC79A"/>
<path opacity="0.3895" d="M320.211 340.576C334.657 340.586 348.861 336.865 361.447 329.775C374.034 322.685 384.576 312.465 392.055 300.106C399.533 287.746 403.694 273.665 404.135 259.226C404.575 244.786 401.28 230.478 394.569 217.685C387.857 204.893 377.957 194.05 365.826 186.206C353.695 178.362 339.744 173.782 325.325 172.911C310.905 172.04 296.504 174.907 283.517 181.233C270.53 187.56 259.397 197.132 251.194 209.024C251.457 209.685 251.701 210.353 251.953 211.018C261.755 196.35 276.018 185.226 292.633 179.293C309.247 173.36 327.33 172.934 344.206 178.076C361.082 183.218 375.855 193.657 386.337 207.847C396.82 222.037 402.457 239.224 402.413 256.866C402.369 274.509 396.647 291.668 386.093 305.805C375.54 319.943 360.715 330.307 343.814 335.366C326.913 340.424 308.832 339.907 292.247 333.891C275.662 327.876 261.454 316.681 251.726 301.964C251.468 302.634 251.226 303.31 250.956 303.977C258.65 315.252 268.98 324.48 281.049 330.858C293.117 337.236 306.56 340.572 320.211 340.576Z" fill="#4BC79A"/>
<path opacity="0.4158" d="M320.211 331.235C333.351 331.24 346.259 327.774 357.628 321.186C368.998 314.598 378.424 305.123 384.953 293.72C391.483 282.317 394.883 269.391 394.809 256.251C394.736 243.112 391.192 230.225 384.536 218.895C377.88 207.566 368.348 198.196 356.906 191.736C345.464 185.275 332.518 181.953 319.379 182.105C306.24 182.258 293.374 185.879 282.085 192.604C270.796 199.328 261.484 208.916 255.093 220.396C255.327 221.2 255.568 222.001 255.786 222.81C263.362 208.386 275.556 196.92 290.418 190.246C305.281 183.572 321.952 182.076 337.765 185.996C353.579 189.917 367.62 199.028 377.643 211.872C387.667 224.716 393.092 240.55 393.053 256.842C393.013 273.134 387.51 288.942 377.424 301.737C367.339 314.532 353.253 323.575 337.421 327.418C321.588 331.261 304.924 329.684 290.095 322.937C275.265 316.191 263.127 304.665 255.622 290.205C255.399 291.014 255.147 291.814 254.908 292.618C261.346 304.305 270.8 314.053 282.285 320.845C293.771 327.637 306.867 331.225 320.211 331.235Z" fill="#4BC79A"/>
<path d="M241.711 255.91H197.346V257.91H241.711V255.91Z" fill="white"/>
<path d="M175.152 374.337C156.171 381.179 135.821 383.346 115.825 380.655C95.8288 377.963 76.776 370.492 60.2802 358.874C43.7844 347.256 30.3314 331.834 21.0609 313.914C11.7903 295.993 6.97515 276.102 7.02329 255.926C7.07144 235.75 11.9814 215.882 21.3374 198.006C30.6934 180.13 44.2198 164.772 60.7709 153.234C77.322 141.695 96.4102 134.314 116.419 131.718C136.428 129.122 156.767 131.386 175.715 138.319C176.016 137.952 176.31 137.58 176.614 137.215L177.053 136.689C157.786 129.52 137.073 127.114 116.676 129.676C96.2797 132.237 76.8045 139.691 59.9095 151.402C43.0144 163.112 29.2002 178.733 19.6433 196.933C10.0865 215.134 5.07025 235.374 5.02184 255.931C4.97343 276.488 9.89431 296.752 19.3653 314.997C28.8363 333.242 42.5769 348.927 59.4166 360.717C76.2563 372.508 95.6961 380.053 116.08 382.711C136.465 385.369 157.189 383.06 176.489 375.982L176.051 375.451C175.747 375.083 175.453 374.708 175.152 374.337Z" fill="url(#paint0_linear_203_7928)"/>
<path d="M176.577 375.983L176.123 375.433C148.468 341.868 133.392 299.704 133.495 256.213C133.598 212.722 148.873 170.631 176.687 137.196L177.143 136.649L177.81 136.901C202.073 146.098 222.955 162.474 237.672 183.845C252.388 205.216 260.239 230.566 260.178 256.513C260.116 282.461 252.145 307.773 237.328 329.074C222.51 350.375 201.551 366.652 177.244 375.734L176.577 375.983ZM177.767 139.027C150.536 172.02 135.596 213.439 135.494 256.218C135.393 298.997 150.137 340.487 177.212 373.609C200.972 364.577 221.433 348.547 235.89 327.639C250.347 306.731 258.119 281.928 258.179 256.509C258.239 231.089 250.585 206.25 236.227 185.274C221.87 164.297 201.485 148.171 177.767 139.027Z" fill="url(#paint1_linear_203_7928)"/>
<path d="M320.299 177.995L306.888 178.03L303.903 193.825C298.159 195.328 292.652 197.621 287.537 200.636L273.922 191.345L255.728 209.615L264.908 222.969C261.692 228.279 259.263 234.027 257.695 240.034L241.833 243.421L241.903 269.816L257.701 272.801C259.271 278.811 261.703 284.561 264.921 289.873L255.629 302.695L274.348 321.311L287.566 312.198C292.678 315.208 298.181 317.497 303.92 318.998L307.308 334.856L320.299 334.822L333.709 334.786L336.694 318.993C342.705 317.424 348.456 314.992 353.77 311.774L366.596 321.064L385.215 302.349L375.683 289.86C378.902 284.547 381.333 278.795 382.902 272.784L398.764 269.397L398.694 243.001L382.897 240.016C381.393 234.274 379.1 228.768 376.085 223.654L384.969 210.122L366.25 191.505L353.031 200.619C347.92 197.609 342.416 195.321 336.677 193.82L333.29 177.961L320.299 177.995Z" fill="black" stroke="url(#paint2_linear_203_7928)" stroke-width="2" stroke-linecap="round" stroke-linejoin="round"/>
<path d="M382.901 272.784L398.763 269.397L398.693 243.001L382.897 240.016C381.392 234.274 379.1 228.768 376.084 223.654L384.969 210.122L366.25 191.505L353.031 200.619C347.92 197.609 342.416 195.321 336.677 193.82L333.29 177.961L320.299 177.995L306.888 178.03L303.903 193.825C298.159 195.328 292.652 197.621 287.538 200.636L273.923 191.345L255.728 209.615L264.908 222.969C261.693 228.279 259.263 234.027 257.696 240.034L241.834 243.421L241.904 269.816L257.7 272.801C259.27 278.811 261.702 284.561 264.921 289.873L255.629 302.695L274.348 321.311L287.565 312.198C292.677 315.208 298.18 317.497 303.919 318.998L307.307 334.857L320.298 334.822L333.708 334.787L336.693 318.993C342.704 317.424 348.455 314.992 353.769 311.774L366.595 321.065L385.213 302.35L375.682 289.86C378.901 284.547 381.332 278.795 382.901 272.784ZM320.298 308.016C310.091 308.016 300.114 304.989 291.627 299.319C283.14 293.648 276.525 285.588 272.619 276.158C268.713 266.728 267.691 256.351 269.683 246.341C271.674 236.33 276.589 227.134 283.806 219.917C291.024 212.699 300.219 207.784 310.23 205.793C320.241 203.802 330.618 204.824 340.048 208.73C349.478 212.636 357.538 219.25 363.208 227.737C368.879 236.224 371.906 246.202 371.906 256.409C371.906 270.096 366.469 283.222 356.79 292.901C347.112 302.579 333.986 308.016 320.298 308.016Z" fill="url(#paint3_linear_203_7928)"/>
<path d="M320.299 177.995L306.888 178.03L303.903 193.825C298.159 195.328 292.652 197.621 287.537 200.636L273.922 191.345L255.728 209.615L264.908 222.969C261.692 228.279 259.263 234.027 257.695 240.034L241.833 243.421L241.903 269.816L257.701 272.801C259.271 278.811 261.703 284.561 264.921 289.873L255.629 302.695L274.348 321.311L287.566 312.198C292.678 315.208 298.181 317.497 303.92 318.998L307.308 334.856L320.299 334.822L333.709 334.786L336.694 318.993C342.705 317.424 348.456 314.992 353.77 311.774L366.596 321.064L385.215 302.349L375.683 289.86C378.902 284.547 381.333 278.795 382.902 272.784L398.764 269.397L398.694 243.001L382.897 240.016C381.393 234.274 379.1 228.768 376.085 223.654L384.969 210.122L366.25 191.505L353.031 200.619C347.92 197.609 342.416 195.321 336.677 193.82L333.29 177.961L320.299 177.995Z" stroke="#4BC79A" stroke-width="2" stroke-linecap="round" stroke-linejoin="round"/>
<path d="M320.299 177.995L306.888 178.03L303.903 193.825C298.159 195.328 292.652 197.621 287.537 200.636L273.922 191.345L255.728 209.615L264.908 222.969C261.692 228.279 259.263 234.027 257.695 240.034L241.833 243.421L241.903 269.816L257.701 272.801C259.271 278.811 261.703 284.561 264.921 289.873L255.629 302.695L274.348 321.311L287.566 312.198C292.678 315.208 298.181 317.497 303.92 318.998L307.308 334.856L320.299 334.822L333.709 334.786L336.694 318.993C342.705 317.424 348.456 314.992 353.77 311.774L366.596 321.064L385.215 302.349L375.683 289.86C378.902 284.547 381.333 278.795 382.902 272.784L398.764 269.397L398.694 243.001L382.897 240.016C381.393 234.274 379.1 228.768 376.085 223.654L384.969 210.122L366.25 191.505L353.031 200.619C347.92 197.609 342.416 195.321 336.677 193.82L333.29 177.961L320.299 177.995Z" stroke="url(#paint4_linear_203_7928)" stroke-width="2" stroke-linecap="round" stroke-linejoin="round"/>
<path d="M320.299 310.07C309.686 310.07 299.311 306.923 290.486 301.027C281.661 295.13 274.784 286.749 270.722 276.944C266.66 267.139 265.598 256.349 267.668 245.94C269.739 235.531 274.85 225.969 282.354 218.464C289.859 210.96 299.421 205.849 309.83 203.778C320.239 201.708 331.029 202.771 340.834 206.832C350.639 210.894 359.02 217.772 364.917 226.596C370.813 235.421 373.96 245.796 373.96 256.409C373.944 270.636 368.285 284.275 358.225 294.335C348.165 304.395 334.526 310.054 320.299 310.07ZM320.299 204.747C310.081 204.747 300.093 207.777 291.597 213.454C283.102 219.13 276.48 227.199 272.57 236.639C268.66 246.078 267.637 256.466 269.63 266.487C271.623 276.508 276.543 285.714 283.768 292.939C290.993 300.164 300.198 305.084 310.22 307.077C320.241 309.071 330.628 308.048 340.068 304.138C349.508 300.228 357.577 293.606 363.253 285.111C368.93 276.615 371.96 266.627 371.96 256.409C371.944 242.712 366.496 229.581 356.812 219.896C347.127 210.211 333.995 204.763 320.299 204.747Z" fill="url(#paint5_linear_203_7928)"/>
<path opacity="0.6" d="M320.299 298.378C311.998 298.378 303.884 295.917 296.982 291.305C290.08 286.694 284.701 280.139 281.524 272.47C278.347 264.801 277.516 256.363 279.135 248.221C280.755 240.08 284.752 232.602 290.621 226.732C296.491 220.863 303.969 216.865 312.111 215.246C320.252 213.627 328.69 214.458 336.359 217.634C344.028 220.811 350.583 226.19 355.195 233.092C359.806 239.994 362.268 248.108 362.268 256.409C362.255 267.536 357.829 278.204 349.962 286.072C342.094 293.94 331.426 298.366 320.299 298.378ZM320.299 216.44C312.394 216.44 304.666 218.784 298.093 223.176C291.52 227.567 286.397 233.81 283.372 241.113C280.346 248.416 279.555 256.453 281.097 264.206C282.639 271.96 286.446 279.082 292.036 284.671C297.625 290.261 304.747 294.068 312.501 295.61C320.254 297.153 328.29 296.361 335.594 293.336C342.897 290.311 349.14 285.188 353.532 278.615C357.924 272.042 360.268 264.314 360.268 256.409C360.256 245.812 356.041 235.653 348.548 228.16C341.055 220.667 330.896 216.452 320.299 216.44Z" fill="url(#paint6_linear_203_7928)"/>
<path opacity="0.2" d="M320.299 286.686C314.311 286.686 308.457 284.91 303.478 281.584C298.498 278.257 294.618 273.528 292.326 267.996C290.034 262.463 289.435 256.376 290.603 250.502C291.771 244.629 294.655 239.234 298.889 235C303.123 230.765 308.518 227.882 314.391 226.713C320.265 225.545 326.352 226.145 331.885 228.436C337.417 230.728 342.146 234.609 345.473 239.588C348.8 244.567 350.575 250.421 350.575 256.409C350.566 264.436 347.373 272.132 341.698 277.808C336.022 283.484 328.326 286.677 320.299 286.686ZM320.299 228.132C314.706 228.131 309.239 229.79 304.589 232.897C299.939 236.004 296.314 240.42 294.174 245.587C292.033 250.754 291.473 256.439 292.564 261.925C293.655 267.41 296.348 272.449 300.303 276.403C304.257 280.358 309.296 283.051 314.781 284.142C320.266 285.234 325.952 284.674 331.119 282.533C336.286 280.393 340.702 276.769 343.809 272.119C346.917 267.469 348.575 262.002 348.575 256.409C348.567 248.912 345.585 241.725 340.284 236.424C334.983 231.123 327.796 228.141 320.299 228.132Z" fill="url(#paint7_linear_203_7928)"/>
<path d="M320.211 69.8787C292.93 69.8739 265.981 75.8554 241.263 87.4013C216.546 98.9473 194.664 115.776 177.16 136.701L177.737 136.92C178.204 137.097 178.66 137.293 179.124 137.475C196.442 116.923 218.042 100.403 242.412 89.0725C266.783 77.7418 293.335 71.8737 320.211 71.8787C422.103 71.8787 505 154.775 505 256.668C505 358.561 422.103 441.457 320.211 441.457C293.189 441.462 266.497 435.53 242.021 424.081C217.545 412.632 195.883 395.945 178.567 375.201C178.1 375.381 177.641 375.577 177.172 375.752L176.596 375.967C194.098 397.086 216.043 414.085 240.867 425.75C265.691 437.416 292.782 443.462 320.211 443.457C423.207 443.457 507 359.664 507 256.668C507 153.671 423.207 69.8787 320.211 69.8787Z" fill="url(#paint8_linear_203_7928)"/>
<path opacity="0.6" d="M132.554 264.173C131.461 264.181 130.378 263.964 129.373 263.534C128.368 263.105 127.462 262.473 126.712 261.678C125.962 260.882 125.385 259.941 125.016 258.912C124.646 257.884 124.493 256.79 124.566 255.699C124.639 254.609 124.936 253.545 125.439 252.574C125.942 251.604 126.639 250.748 127.488 250.059C128.337 249.37 129.318 248.864 130.372 248.572C131.425 248.28 132.527 248.209 133.609 248.363C133.639 247.694 133.682 247.026 133.719 246.359C132.324 246.189 130.909 246.317 129.567 246.733C128.225 247.15 126.987 247.847 125.934 248.777C124.881 249.708 124.037 250.851 123.457 252.131C122.878 253.412 122.577 254.8 122.574 256.205C122.57 257.611 122.865 259.001 123.438 260.284C124.011 261.567 124.849 262.714 125.898 263.649C126.946 264.585 128.181 265.287 129.521 265.711C130.861 266.134 132.276 266.269 133.671 266.106C133.638 265.437 133.603 264.769 133.577 264.099C133.238 264.146 132.896 264.17 132.554 264.173Z" fill="#4BC79A"/>
<path opacity="0.5615" d="M132.554 273.219C128.047 273.219 123.726 271.429 120.539 268.243C117.353 265.056 115.562 260.735 115.562 256.228C115.562 251.722 117.353 247.4 120.539 244.214C123.726 241.027 128.047 239.237 132.554 239.237C133.124 239.237 133.686 239.267 134.241 239.323C134.303 238.659 134.369 237.995 134.438 237.333C133.818 237.271 133.19 237.237 132.554 237.237C127.517 237.237 122.686 239.238 119.125 242.8C115.563 246.361 113.562 251.192 113.562 256.228C113.562 261.265 115.563 266.096 119.125 269.657C122.686 273.219 127.517 275.22 132.554 275.22C133.161 275.22 133.759 275.184 134.352 275.128C134.286 274.465 134.215 273.803 134.156 273.138C133.628 273.188 133.095 273.219 132.554 273.219Z" fill="#4BC79A"/>
<path opacity="0.5231" d="M132.553 282.266C129.018 282.267 125.519 281.547 122.27 280.152C119.022 278.756 116.092 276.713 113.658 274.148C111.225 271.583 109.34 268.549 108.117 265.231C106.895 261.913 106.361 258.381 106.548 254.851C106.735 251.32 107.639 247.864 109.205 244.694C110.772 241.524 112.967 238.707 115.658 236.413C118.349 234.119 121.478 232.397 124.856 231.353C128.234 230.308 131.789 229.962 135.305 230.336C135.399 229.676 135.487 229.015 135.588 228.356C131.679 227.931 127.724 228.333 123.98 229.536C120.236 230.739 116.787 232.716 113.857 235.339C110.927 237.962 108.582 241.171 106.973 244.76C105.365 248.348 104.529 252.234 104.52 256.167C104.511 260.099 105.33 263.989 106.923 267.585C108.515 271.18 110.847 274.4 113.765 277.036C116.683 279.671 120.123 281.664 123.862 282.883C127.6 284.103 131.553 284.522 135.464 284.115C135.366 283.455 135.274 282.795 135.183 282.133C134.309 282.222 133.432 282.266 132.553 282.266Z" fill="#4BC79A"/>
<path opacity="0.4846" d="M132.553 291.313C127.761 291.323 123.018 290.35 118.616 288.456C114.214 286.561 110.246 283.785 106.959 280.298C103.671 276.812 101.132 272.688 99.4994 268.183C97.8665 263.677 97.174 258.885 97.4645 254.101C97.755 249.318 99.0225 244.644 101.189 240.37C103.355 236.095 106.374 232.309 110.059 229.246C113.745 226.183 118.019 223.907 122.618 222.559C127.217 221.211 132.043 220.82 136.799 221.409C136.926 220.753 137.055 220.098 137.188 219.443C131.97 218.776 126.671 219.226 121.641 220.764C116.611 222.301 111.965 224.892 108.013 228.362C104.06 231.833 100.891 236.105 98.7164 240.894C96.5415 245.683 95.4101 250.88 95.3976 256.14C95.385 261.4 96.4915 266.602 98.6436 271.402C100.796 276.201 103.944 280.488 107.88 283.977C111.816 287.467 116.449 290.079 121.471 291.641C126.494 293.203 131.791 293.678 137.012 293.036C136.882 292.381 136.762 291.724 136.639 291.068C135.283 291.229 133.919 291.311 132.553 291.313Z" fill="#4BC79A"/>
<path opacity="0.4462" d="M132.554 300.36C126.494 300.367 120.497 299.125 114.938 296.713C109.379 294.3 104.376 290.769 100.241 286.338C96.1066 281.908 92.9287 276.673 90.9057 270.961C88.8827 265.248 88.0579 259.18 88.4827 253.135C88.9075 247.09 90.5727 241.197 93.3747 235.823C96.1767 230.45 100.055 225.711 104.769 221.902C109.483 218.094 114.93 215.296 120.772 213.685C126.614 212.074 132.725 211.683 138.725 212.537C138.884 211.884 139.056 211.235 139.221 210.585C132.675 209.621 125.998 210.077 119.643 211.921C113.288 213.766 107.404 216.956 102.391 221.275C97.3781 225.594 93.3527 230.941 90.5882 236.953C87.8237 242.965 86.3848 249.501 86.3693 256.118C86.3537 262.735 87.7618 269.278 90.498 275.303C93.2341 281.328 97.2344 286.693 102.227 291.036C107.22 295.379 113.089 298.596 119.435 300.471C125.781 302.345 132.456 302.832 139.007 301.899C138.844 301.249 138.681 300.598 138.526 299.945C136.547 300.218 134.551 300.357 132.554 300.36Z" fill="#4BC79A"/>
<path opacity="0.4077" d="M132.554 309.407C125.206 309.411 117.938 307.893 111.207 304.947C104.476 302.002 98.4279 297.694 93.445 292.294C88.462 286.895 84.6519 280.522 82.255 273.576C79.8582 266.631 78.9265 259.264 79.5189 251.941C80.1112 244.618 82.2147 237.496 85.6966 231.027C89.1786 224.557 93.9634 218.879 99.7494 214.35C105.535 209.822 112.197 206.542 119.314 204.717C126.431 202.891 133.849 202.561 141.1 203.746C141.29 203.102 141.484 202.46 141.682 201.818C133.783 200.489 125.689 200.895 117.963 203.009C110.236 205.123 103.063 208.893 96.9407 214.059C90.8186 219.225 85.8946 225.661 82.5109 232.922C79.1272 240.182 77.3648 248.092 77.3463 256.103C77.3278 264.113 79.0536 272.031 82.4038 279.307C85.754 286.583 90.6481 293.042 96.7463 298.236C102.844 303.43 110 307.234 117.717 309.383C125.433 311.533 133.525 311.976 141.43 310.683C141.237 310.041 141.04 309.4 140.853 308.755C138.108 309.188 135.333 309.406 132.554 309.407Z" fill="#4BC79A"/>
<path opacity="0.3692" d="M132.554 318.454C123.896 318.463 115.332 316.665 107.409 313.176C99.4853 309.687 92.3774 304.582 86.5393 298.189C80.7012 291.796 76.2613 284.256 73.5036 276.049C70.7459 267.842 69.7311 259.151 70.524 250.529C71.3169 241.908 73.9001 233.547 78.1084 225.981C82.3168 218.415 88.0576 211.811 94.9638 206.59C101.87 201.369 109.79 197.647 118.217 195.661C126.643 193.676 135.392 193.471 143.903 195.059C144.125 194.421 144.341 193.782 144.571 193.147C135.293 191.37 125.738 191.66 116.586 193.999C107.434 196.337 98.9105 200.666 91.6229 206.676C84.3352 212.685 78.4629 220.229 74.4244 228.768C70.386 237.307 68.2808 246.632 68.259 256.078C68.2371 265.524 70.2991 274.859 74.298 283.417C78.2969 291.975 84.1342 299.545 91.394 305.589C98.6538 311.632 107.157 316 116.298 318.381C125.44 320.761 134.993 321.096 144.279 319.362C144.052 318.726 143.835 318.088 143.615 317.45C139.965 318.113 136.263 318.449 132.554 318.454Z" fill="#4BC79A"/>
<path opacity="0.3308" d="M132.554 327.501C122.577 327.499 112.711 325.403 103.595 321.348C94.4796 317.292 86.3168 311.368 79.6352 303.959C72.9537 296.549 67.9022 287.819 64.8076 278.334C61.7131 268.849 60.6445 258.82 61.671 248.896C62.6974 238.972 65.796 229.373 70.7663 220.723C75.7367 212.072 82.4679 204.56 90.5245 198.675C98.5811 192.79 107.784 188.662 117.536 186.558C127.289 184.455 137.375 184.422 147.141 186.462C147.395 185.836 147.653 185.212 147.914 184.589C137.246 182.303 126.201 182.428 115.588 184.956C104.974 187.484 95.0591 192.35 86.5664 199.199C78.0738 206.048 71.2179 214.708 66.4995 224.545C61.7811 234.382 59.3192 245.149 59.2937 256.06C59.2681 266.97 61.6794 277.749 66.3516 287.608C71.0239 297.467 77.839 306.159 86.2994 313.048C94.7599 319.937 104.652 324.849 115.254 327.427C125.855 330.004 136.899 330.182 147.578 327.946C147.32 327.321 147.068 326.693 146.817 326.065C142.123 327.021 137.344 327.502 132.554 327.501Z" fill="#4BC79A"/>
<path opacity="0.2923" d="M132.553 336.548C121.225 336.557 110.023 334.17 99.6822 329.544C89.3417 324.917 80.0968 318.155 72.5547 309.702C65.0126 301.25 59.3439 291.297 55.9209 280.498C52.4978 269.699 51.3978 258.299 52.6931 247.044C53.9884 235.79 57.6498 224.938 63.4367 215.199C69.2236 205.46 77.0051 197.055 86.2704 190.537C95.5356 184.019 106.075 179.534 117.196 177.378C128.317 175.221 139.769 175.442 150.799 178.025C151.086 177.406 151.384 176.792 151.678 176.176C139.594 173.279 127.011 173.155 114.873 175.814C102.734 178.472 91.3548 183.845 81.5883 191.528C71.8218 199.211 63.9214 209.005 58.4795 220.177C53.0377 231.348 50.1955 243.607 50.1662 256.033C50.137 268.46 52.9213 280.731 58.3104 291.928C63.6996 303.125 71.5537 312.957 81.2839 320.686C91.014 328.415 102.368 333.841 114.494 336.557C126.62 339.273 139.203 339.208 151.301 336.368C151.01 335.752 150.714 335.137 150.431 334.517C144.567 335.862 138.57 336.543 132.553 336.548Z" fill="#4BC79A"/>
<path opacity="0.2538" d="M132.554 345.595C119.869 345.589 107.331 342.884 95.7733 337.658C84.2153 332.432 73.9023 324.805 65.5199 315.285C57.1374 305.765 50.8777 294.569 47.1568 282.443C43.436 270.316 42.3392 257.537 43.9396 244.954C45.5399 232.37 49.8006 220.272 56.4384 209.463C63.0762 198.654 71.9391 189.382 82.4376 182.263C92.9362 175.144 104.83 170.342 117.328 168.175C129.826 166.009 142.642 166.528 154.924 169.698C155.242 169.093 155.559 168.488 155.884 167.886C142.381 164.325 128.241 163.908 114.55 166.665C100.86 169.423 87.9842 175.282 76.9119 183.793C65.8397 192.303 56.8658 203.239 50.6797 215.759C44.4936 228.28 41.26 242.052 41.2273 256.017C41.1946 269.982 44.3638 283.769 50.4912 296.318C56.6186 308.867 65.5413 319.845 76.5736 328.407C87.606 336.969 100.454 342.889 114.131 345.71C127.809 348.532 141.951 348.181 155.471 344.683C155.148 344.078 154.829 343.471 154.514 342.861C147.336 344.68 139.959 345.598 132.554 345.595Z" fill="#4BC79A"/>
<path opacity="0.2154" d="M132.554 354.641C118.485 354.636 104.582 351.614 91.7804 345.78C78.979 339.945 67.5771 331.434 58.3437 320.82C49.1102 310.206 42.2596 297.736 38.2539 284.25C34.2482 270.764 33.1804 256.576 35.1225 242.642C37.0646 228.709 41.9715 215.354 49.5124 203.477C57.0532 191.601 67.0527 181.479 78.8367 173.794C90.6207 166.11 103.915 161.041 117.824 158.93C131.733 156.819 145.933 157.714 159.467 161.555C159.817 160.964 160.167 160.372 160.523 159.784C145.585 155.457 129.846 154.66 114.547 157.455C99.2481 160.25 84.8074 166.56 72.3636 175.888C59.9197 185.217 49.8128 197.308 42.8396 211.209C35.8664 225.111 32.2177 240.442 32.1809 255.994C32.1442 271.546 35.7205 286.894 42.628 300.828C49.5354 314.762 59.5851 326.901 71.9848 336.288C84.3845 345.675 98.7952 352.054 114.081 354.921C129.366 357.788 145.109 357.065 160.068 352.809C159.712 352.217 159.365 351.619 159.017 351.023C150.402 353.429 141.498 354.647 132.554 354.641Z" fill="#4BC79A"/>
<path opacity="0.1769" d="M132.553 363.688C117.081 363.683 101.793 360.338 87.733 353.88C73.6732 347.421 61.1737 338.003 51.0892 326.269C41.0047 314.535 33.5729 300.762 29.3021 285.891C25.0312 271.02 24.022 255.402 26.3434 240.105C28.6648 224.808 34.2621 210.193 42.7525 197.259C51.243 184.324 62.4264 173.376 75.5381 165.162C88.6498 156.948 103.381 151.662 118.723 149.666C134.066 147.67 149.659 149.011 164.436 153.596C164.819 153.018 165.213 152.446 165.603 151.872C149.223 146.69 131.853 145.436 114.899 148.213C97.9453 150.989 81.8827 157.717 68.0112 167.853C54.1397 177.988 42.8488 191.247 35.0519 206.555C27.2551 221.864 23.1712 238.793 23.1307 255.973C23.0902 273.153 27.0942 290.101 34.8188 305.446C42.5434 320.792 53.7717 334.103 67.5953 344.304C81.4188 354.505 97.4495 361.309 114.39 364.165C131.331 367.021 148.706 365.85 165.11 360.745C164.722 360.166 164.33 359.589 163.948 359.006C153.774 362.117 143.193 363.695 132.553 363.688Z" fill="#4BC79A"/>
<path opacity="0.1385" d="M132.554 372.735C115.657 372.731 98.9634 369.052 83.6304 361.952C68.2975 354.853 54.6922 344.503 43.7581 331.621C32.824 318.739 24.8227 303.633 20.3091 287.35C15.7955 271.068 14.8776 253.998 17.6191 237.325C20.3606 220.652 26.6959 204.775 36.1856 190.795C45.6752 176.815 58.0922 165.066 72.5755 156.363C87.0587 147.661 103.262 142.212 120.061 140.396C136.859 138.58 153.852 140.44 169.861 145.846C170.275 145.285 170.69 144.723 171.11 144.166C153.287 138.039 134.258 136.25 115.605 138.95C96.9518 141.65 79.2116 148.761 63.8571 159.691C48.5026 170.622 35.9767 185.057 27.3192 201.798C18.6617 218.54 14.1224 237.105 14.078 255.953C14.0336 274.8 18.4854 293.387 27.064 310.169C35.6425 326.951 48.1003 341.445 63.4031 352.448C78.706 363.45 96.4125 370.644 115.053 373.432C133.693 376.22 152.73 374.521 170.582 368.477C170.162 367.915 169.746 367.35 169.333 366.782C157.474 370.735 145.054 372.745 132.554 372.735Z" fill="#4BC79A"/>
<path opacity="0.1" d="M259.67 266.759C259.579 267.879 259.47 268.997 259.35 270.112C259.47 268.998 259.577 267.88 259.67 266.759Z" fill="#4BC79A"/>
<path opacity="0.1" d="M260.025 251.873C260.074 253.322 260.107 254.773 260.107 256.228C260.107 254.77 260.074 253.32 260.025 251.873Z" fill="#4BC79A"/>
<path opacity="0.1" d="M259.754 246.734C259.851 248.051 259.926 249.373 259.98 250.697C259.923 249.371 259.851 248.049 259.754 246.734Z" fill="#4BC79A"/>
<path opacity="0.1" d="M260.107 256.228C260.107 257.689 260.073 259.146 260.024 260.6C260.074 259.148 260.107 257.692 260.107 256.228Z" fill="#4BC79A"/>
<path opacity="0.1" d="M259.979 261.774C259.922 263.117 259.848 264.458 259.75 265.794C259.849 264.46 259.922 263.119 259.979 261.774Z" fill="#4BC79A"/>
<path opacity="0.1" d="M259.352 242.367C259.475 243.514 259.587 244.664 259.68 245.817C259.587 244.662 259.477 243.512 259.352 242.367Z" fill="#4BC79A"/>
<path opacity="0.1" d="M259.147 271.868C259.043 272.726 258.924 273.582 258.802 274.437C258.925 273.583 259.042 272.727 259.147 271.868Z" fill="#4BC79A"/>
<path opacity="0.1" d="M258.807 238.05C258.929 238.914 259.049 239.777 259.154 240.644C259.048 239.777 258.93 238.913 258.807 238.05Z" fill="#4BC79A"/>
<path opacity="0.9" d="M196.629 219.837V294.083L132.33 331.206L68.0308 294.083V219.837L132.33 182.715L196.629 219.837Z" fill="black"/>
<g opacity="0.4">
<path opacity="0.3" d="M132.055 256.032L67.5298 293.278L68.5298 295.011L133.055 257.765L132.055 256.032Z" fill="#4BC79A"/>
<path opacity="0.3" d="M132.83 256.158L131.83 257.891L196.129 295.013L197.129 293.281L132.83 256.158Z" fill="#4BC79A"/>
<path opacity="0.3" d="M133.33 182.779H131.33V256.896H133.33V182.779Z" fill="#4BC79A"/>
</g>
<path d="M132.2 257.127L132.409 331.07L196.76 293.917L196.55 219.974L132.2 257.127Z" fill="url(#paint9_linear_203_7928)"/>
<path d="M132.33 332.206C132.155 332.206 131.982 332.16 131.83 332.072L67.5312 294.949C67.3792 294.861 67.253 294.735 67.1652 294.583C67.0774 294.431 67.0312 294.258 67.0313 294.083V219.838C67.0312 219.662 67.0774 219.49 67.1652 219.338C67.253 219.185 67.3792 219.059 67.5312 218.971L131.83 181.848C131.982 181.76 132.155 181.714 132.33 181.714C132.506 181.714 132.678 181.76 132.83 181.848L197.129 218.971C197.281 219.058 197.407 219.185 197.495 219.337C197.583 219.489 197.629 219.661 197.629 219.837V294.082C197.629 294.258 197.583 294.431 197.495 294.583C197.407 294.735 197.281 294.861 197.129 294.949L132.83 332.072C132.678 332.16 132.506 332.206 132.33 332.206ZM69.0312 293.506L132.33 330.051L195.629 293.506V220.414L132.33 183.869L69.0313 220.414L69.0312 293.506Z" fill="url(#paint10_linear_203_7928)"/>
<path d="M196.131 218.974L131.605 256.22L132.605 257.952L197.131 220.707L196.131 218.974Z" fill="url(#paint11_linear_203_7928)"/>
<path d="M132.329 257.96C132.154 257.96 131.982 257.914 131.83 257.826L67.5314 220.703C67.4176 220.638 67.3179 220.55 67.238 220.446C67.158 220.342 67.0994 220.223 67.0653 220.096C67.0313 219.969 67.0227 219.837 67.0398 219.707C67.0569 219.577 67.0995 219.451 67.1652 219.337C67.2309 219.223 67.3183 219.124 67.4225 219.044C67.5267 218.964 67.6456 218.905 67.7725 218.871C67.8993 218.837 68.0316 218.828 68.1619 218.846C68.2921 218.863 68.4176 218.905 68.5314 218.971L132.83 256.094C133.021 256.204 133.17 256.374 133.255 256.578C133.339 256.781 133.354 257.007 133.296 257.219C133.239 257.432 133.114 257.62 132.939 257.754C132.764 257.888 132.55 257.96 132.329 257.96Z" fill="url(#paint12_linear_203_7928)"/>
<path d="M132.33 332.206C132.065 332.206 131.811 332.1 131.623 331.913C131.435 331.725 131.33 331.471 131.33 331.206V257.089C131.33 256.824 131.435 256.57 131.623 256.382C131.811 256.194 132.065 256.089 132.33 256.089C132.595 256.089 132.85 256.194 133.037 256.382C133.225 256.57 133.33 256.824 133.33 257.089V331.206C133.33 331.471 133.225 331.725 133.037 331.913C132.85 332.1 132.595 332.206 132.33 332.206Z" fill="url(#paint13_linear_203_7928)"/>
<path d="M132.33 332.206C132.155 332.206 131.982 332.16 131.83 332.072L67.5312 294.949C67.3792 294.861 67.253 294.735 67.1652 294.583C67.0774 294.431 67.0312 294.258 67.0313 294.083V219.838C67.0312 219.662 67.0774 219.49 67.1652 219.338C67.253 219.185 67.3792 219.059 67.5312 218.971L131.83 181.848C131.982 181.76 132.155 181.714 132.33 181.714C132.506 181.714 132.678 181.76 132.83 181.848L197.129 218.971C197.281 219.058 197.407 219.185 197.495 219.337C197.583 219.489 197.629 219.661 197.629 219.837V294.082C197.629 294.258 197.583 294.431 197.495 294.583C197.407 294.735 197.281 294.861 197.129 294.949L132.83 332.072C132.678 332.16 132.506 332.206 132.33 332.206ZM69.0312 293.506L132.33 330.051L195.629 293.506V220.414L132.33 183.869L69.0313 220.414L69.0312 293.506Z" fill="url(#paint14_linear_203_7928)"/>
<path d="M86.6844 259.346L79.7954 255.394C79.1179 254.942 78.5532 255.281 78.5532 256.071V269.398C78.587 269.81 78.717 270.209 78.9327 270.562C79.1485 270.915 79.4439 271.212 79.7954 271.43L86.6844 275.383C87.362 275.835 87.9265 275.496 87.9265 274.705V261.379C87.8928 260.967 87.7629 260.568 87.5472 260.215C87.3315 259.862 87.036 259.564 86.6844 259.346ZM85.442 272.108L81.0378 269.51V258.895L85.442 261.492V272.108Z" fill="#4BC79A"/>
<path d="M79.7949 252.123L86.6837 256.076C87.3612 256.415 87.9259 256.189 87.9259 255.398V242.072C87.8921 241.66 87.7622 241.261 87.5464 240.908C87.3307 240.555 87.0352 240.258 86.6837 240.04L79.7949 236.087C79.1172 235.635 78.5527 235.974 78.5527 236.764V250.09C78.5865 250.503 78.7164 250.901 78.9322 251.254C79.1479 251.608 79.4434 251.905 79.7949 252.123ZM81.0369 239.475L85.4414 242.072V252.688L81.0369 250.09V239.475Z" fill="#4BC79A"/>
<path d="M90.861 255.845C90.1834 255.507 89.6187 255.732 89.6187 256.523C89.6524 256.935 89.7824 257.334 89.9981 257.687C90.2139 258.04 90.5094 258.337 90.861 258.556L97.75 262.508C98.4276 262.96 98.9921 262.621 98.9921 261.831C98.9584 261.418 98.8285 261.02 98.6128 260.667C98.3972 260.313 98.1017 260.016 97.7502 259.798L95.6044 258.442V246.475C95.5974 246.075 95.4801 245.684 95.2656 245.346C95.0235 244.991 94.717 244.684 94.362 244.442L90.8612 242.522C90.1836 242.071 89.6189 242.41 89.6189 243.2C89.6526 243.612 89.7826 244.011 89.9984 244.364C90.2141 244.717 90.5096 245.015 90.8612 245.233L93.1199 246.475V257.088L90.861 255.845Z" fill="#4BC79A"/>
<path d="M102.721 284.764L109.61 288.716C110.287 289.168 110.852 288.829 110.852 288.039V274.713C110.818 274.3 110.688 273.902 110.472 273.549C110.257 273.195 109.961 272.898 109.61 272.68L102.721 268.727C102.043 268.388 101.479 268.614 101.479 269.405V282.731C101.512 283.143 101.642 283.542 101.858 283.895C102.074 284.248 102.369 284.545 102.721 284.764ZM103.963 272.115L108.367 274.713V285.328L103.963 282.731V272.115Z" fill="#4BC79A"/>
<path d="M102.609 262.624C101.931 262.285 101.367 262.624 101.367 263.302C101.4 263.714 101.53 264.113 101.746 264.466C101.962 264.819 102.257 265.116 102.609 265.335L109.498 269.287C110.175 269.626 110.74 269.4 110.74 268.61C110.706 268.197 110.576 267.799 110.361 267.446C110.145 267.093 109.849 266.795 109.498 266.577L107.352 265.222V253.256C107.345 252.855 107.228 252.464 107.013 252.126C106.771 251.771 106.465 251.465 106.11 251.223L102.609 249.303C101.931 248.964 101.367 249.19 101.367 249.98C101.4 250.393 101.53 250.791 101.746 251.144C101.962 251.497 102.257 251.795 102.609 252.013L104.868 253.255V263.866L102.609 262.624Z" fill="#4BC79A"/>
<path d="M120.79 312.425L118.644 311.069V298.988C118.637 298.587 118.52 298.197 118.305 297.858C118.063 297.503 117.757 297.197 117.402 296.955L113.901 295.035C113.223 294.696 112.659 294.922 112.659 295.713C112.692 296.125 112.822 296.523 113.038 296.877C113.254 297.23 113.549 297.527 113.901 297.745L116.16 298.988V309.714L113.901 308.472C113.223 308.133 112.659 308.359 112.659 309.149C112.693 309.562 112.823 309.96 113.038 310.313C113.254 310.666 113.549 310.964 113.901 311.182L120.79 315.135C121.468 315.474 122.032 315.248 122.032 314.457C121.998 314.045 121.868 313.646 121.653 313.293C121.437 312.94 121.141 312.643 120.79 312.425Z" fill="#4BC79A"/>
<path d="M116.159 289.735L113.9 288.493C113.222 288.154 112.658 288.38 112.658 289.17C112.691 289.583 112.821 289.981 113.037 290.334C113.253 290.687 113.548 290.985 113.9 291.203L120.789 295.156C121.467 295.495 122.031 295.156 122.031 294.478C121.997 294.066 121.867 293.667 121.652 293.314C121.436 292.961 121.14 292.664 120.789 292.445L118.643 291.09V279.118C118.636 278.717 118.519 278.326 118.304 277.988C118.062 277.633 117.756 277.327 117.401 277.085L113.9 275.165C113.222 274.826 112.658 275.165 112.658 275.842C112.692 276.255 112.821 276.653 113.037 277.006C113.253 277.359 113.548 277.657 113.9 277.875L116.159 279.117L116.159 289.735Z" fill="#4BC79A"/>
<path d="M115.82 270.194L113.561 268.951C112.883 268.612 112.319 268.838 112.319 269.629C112.353 270.041 112.483 270.44 112.698 270.793C112.914 271.146 113.21 271.444 113.561 271.662L120.45 275.614C121.127 275.953 121.692 275.727 121.692 274.937C121.658 274.524 121.528 274.126 121.313 273.773C121.097 273.42 120.801 273.122 120.45 272.904L118.304 271.549V259.574C118.297 259.173 118.18 258.783 117.965 258.444C117.723 258.09 117.417 257.783 117.062 257.541L113.561 255.621C112.883 255.282 112.319 255.508 112.319 256.299C112.353 256.711 112.483 257.11 112.698 257.463C112.914 257.816 113.21 258.113 113.561 258.331L115.82 259.574V270.194Z" fill="#4BC79A"/>
<path d="M97.8639 279.222L95.7184 277.867V265.899C95.7113 265.499 95.594 265.108 95.3795 264.77C95.1374 264.415 94.831 264.108 94.476 263.866L90.975 261.946C90.2974 261.495 89.7329 261.833 89.7329 262.624C89.7667 263.036 89.8966 263.435 90.1123 263.788C90.328 264.141 90.6235 264.439 90.975 264.657L93.2338 265.899V276.511L90.975 275.269C90.2974 274.93 89.7329 275.156 89.7329 275.947C89.7666 276.359 89.8966 276.758 90.1123 277.111C90.328 277.464 90.6235 277.761 90.975 277.98L97.8639 281.932C98.5416 282.384 99.1063 282.045 99.1063 281.255C99.0725 280.842 98.9424 280.444 98.7267 280.091C98.5109 279.738 98.2154 279.44 97.8639 279.222Z" fill="#4BC79A"/>
<path d="M97.75 285.664L90.861 281.598C90.1834 281.259 89.6187 281.485 89.6187 282.276V295.715C89.6524 296.127 89.7824 296.526 89.9982 296.879C90.2139 297.232 90.5094 297.529 90.861 297.747L97.75 301.7C98.4276 302.039 98.9921 301.813 98.9921 301.023V287.697C98.9583 287.284 98.8284 286.886 98.6126 286.533C98.3969 286.18 98.1015 285.882 97.75 285.664ZM96.5077 298.312L92.1033 295.715V285.099L96.5077 287.697V298.312Z" fill="#4BC79A"/>
<path d="M109.947 292.666L103.058 288.713C102.38 288.262 101.815 288.601 101.815 289.391V302.718C101.849 303.13 101.979 303.529 102.195 303.882C102.411 304.235 102.706 304.532 103.058 304.75L109.947 308.703C110.624 309.042 111.189 308.816 111.189 308.025V294.699C111.155 294.286 111.025 293.888 110.809 293.535C110.594 293.182 110.298 292.884 109.947 292.666ZM108.704 305.315L104.3 302.718V292.102L108.704 294.699L108.704 305.315Z" fill="#4BC79A"/>
<path d="M86.6844 292.67L84.5386 291.314V279.339C84.5316 278.939 84.4144 278.548 84.1998 278.21C83.9577 277.855 83.6513 277.549 83.2963 277.307L79.7954 275.387C79.1179 275.048 78.5532 275.274 78.5532 276.064C78.587 276.477 78.7169 276.875 78.9327 277.228C79.1484 277.581 79.4439 277.879 79.7954 278.097L82.054 279.339V289.959L79.7954 288.718C79.1179 288.379 78.5532 288.604 78.5532 289.395C78.587 289.807 78.717 290.206 78.9327 290.559C79.1485 290.912 79.4439 291.21 79.7954 291.428L86.6844 295.38C87.362 295.719 87.9265 295.493 87.9265 294.703C87.8928 294.29 87.7629 293.892 87.5472 293.539C87.3315 293.185 87.036 292.888 86.6844 292.67Z" fill="#4BC79A"/>
</g>
<defs>
<linearGradient id="paint0_linear_203_7928" x1="5.00018" y1="256.228" x2="260.108" y2="256.228" gradientUnits="userSpaceOnUse">
<stop stop-color="#4BC79A"/>
<stop offset="1" stop-color="#4BC79A" stop-opacity="0.2"/>
</linearGradient>
<linearGradient id="paint1_linear_203_7928" x1="5.02715" y1="256.316" x2="260.18" y2="256.316" gradientUnits="userSpaceOnUse">
<stop offset="0.0423" stop-color="#4BC79A"/>
<stop offset="1" stop-color="#4BC79A" stop-opacity="0.2"/>
</linearGradient>
<linearGradient id="paint2_linear_203_7928" x1="240.834" y1="256.409" x2="399.763" y2="256.409" gradientUnits="userSpaceOnUse">
<stop stop-color="white" stop-opacity="0.8"/>
<stop offset="0.0135" stop-color="white" stop-opacity="0.7844"/>
<stop offset="0.1808" stop-color="white" stop-opacity="0.6072"/>
<stop offset="0.3491" stop-color="white" stop-opacity="0.4604"/>
<stop offset="0.516" stop-color="white" stop-opacity="0.3465"/>
<stop offset="0.681" stop-color="white" stop-opacity="0.2651"/>
<stop offset="0.8433" stop-color="white" stop-opacity="0.2164"/>
<stop offset="1" stop-color="white" stop-opacity="0.2"/>
</linearGradient>
<linearGradient id="paint3_linear_203_7928" x1="241.834" y1="256.409" x2="398.763" y2="256.409" gradientUnits="userSpaceOnUse">
<stop offset="0.0423" stop-color="#4BC79A"/>
<stop offset="0.1735" stop-color="#4BC79A" stop-opacity="0.863"/>
<stop offset="1" stop-color="#4BC79A" stop-opacity="0"/>
</linearGradient>
<linearGradient id="paint4_linear_203_7928" x1="240.834" y1="256.409" x2="399.763" y2="256.409" gradientUnits="userSpaceOnUse">
<stop stop-color="white"/>
<stop offset="0.0294" stop-color="white" stop-opacity="0.9291"/>
<stop offset="0.1089" stop-color="white" stop-opacity="0.7591"/>
<stop offset="0.1946" stop-color="white" stop-opacity="0.6085"/>
<stop offset="0.2855" stop-color="white" stop-opacity="0.4816"/>
<stop offset="0.383" stop-color="white" stop-opacity="0.3785"/>
<stop offset="0.4898" stop-color="white" stop-opacity="0.2989"/>
<stop offset="0.6104" stop-color="white" stop-opacity="0.2428"/>
<stop offset="0.7567" stop-color="white" stop-opacity="0.2099"/>
<stop offset="1" stop-color="white" stop-opacity="0.2"/>
</linearGradient>
<linearGradient id="paint5_linear_203_7928" x1="282.372" y1="294.336" x2="358.225" y2="218.482" gradientUnits="userSpaceOnUse">
<stop stop-color="#4BC79A"/>
<stop offset="1" stop-color="#4BC79A" stop-opacity="0.2"/>
</linearGradient>
<linearGradient id="paint6_linear_203_7928" x1="290.636" y1="286.072" x2="349.961" y2="226.746" gradientUnits="userSpaceOnUse">
<stop stop-color="#4BC79A"/>
<stop offset="1" stop-color="#4BC79A" stop-opacity="0.2"/>
</linearGradient>
<linearGradient id="paint7_linear_203_7928" x1="298.899" y1="277.808" x2="341.697" y2="235.01" gradientUnits="userSpaceOnUse">
<stop stop-color="#4BC79A"/>
<stop offset="1" stop-color="#4BC79A" stop-opacity="0.2"/>
</linearGradient>
<linearGradient id="paint8_linear_203_7928" x1="176.596" y1="256.668" x2="507" y2="256.668" gradientUnits="userSpaceOnUse">
<stop offset="0.0423" stop-color="#4BC79A"/>
<stop offset="1" stop-color="#4BC79A" stop-opacity="0.2"/>
</linearGradient>
<linearGradient id="paint9_linear_203_7928" x1="197.548" y1="292.37" x2="131.412" y2="258.673" gradientUnits="userSpaceOnUse">
<stop stop-color="#4BC79A"/>
<stop offset="0.1293" stop-color="#4BC79A" stop-opacity="0.7686"/>
<stop offset="0.2797" stop-color="#4BC79A" stop-opacity="0.536"/>
<stop offset="0.4305" stop-color="#4BC79A" stop-opacity="0.343"/>
<stop offset="0.5792" stop-color="#4BC79A" stop-opacity="0.193"/>
<stop offset="0.7251" stop-color="#4BC79A" stop-opacity="0.0859"/>
<stop offset="0.8668" stop-color="#4BC79A" stop-opacity="0.0217"/>
<stop offset="1" stop-color="#4BC79A" stop-opacity="0"/>
</linearGradient>
<linearGradient id="paint10_linear_203_7928" x1="197.629" y1="256.96" x2="67.0313" y2="256.96" gradientUnits="userSpaceOnUse">
<stop stop-color="#4BC79A"/>
<stop offset="1" stop-color="#4BC79A"/>
</linearGradient>
<linearGradient id="paint11_linear_203_7928" x1="197.196" y1="238.339" x2="131.674" y2="238.341" gradientUnits="userSpaceOnUse">
<stop stop-color="#4BC79A"/>
<stop offset="1" stop-color="#4BC79A"/>
</linearGradient>
<linearGradient id="paint12_linear_203_7928" x1="133.331" y1="238.398" x2="67.031" y2="238.398" gradientUnits="userSpaceOnUse">
<stop stop-color="#4BC79A"/>
<stop offset="0.9987" stop-color="#4BC79A" stop-opacity="0.4"/>
</linearGradient>
<linearGradient id="paint13_linear_203_7928" x1="132.33" y1="332.206" x2="132.33" y2="256.089" gradientUnits="userSpaceOnUse">
<stop offset="0.0955" stop-color="#4BC79A"/>
<stop offset="0.192" stop-color="#4BC79A" stop-opacity="0.9828"/>
<stop offset="0.9288" stop-color="#4BC79A" stop-opacity="0.8667"/>
</linearGradient>
<linearGradient id="paint14_linear_203_7928" x1="197.629" y1="256.96" x2="67.0313" y2="256.96" gradientUnits="userSpaceOnUse">
<stop offset="0.3619" stop-color="white" stop-opacity="0.8"/>
<stop offset="0.4226" stop-color="white" stop-opacity="0.7563"/>
<stop offset="0.5297" stop-color="white" stop-opacity="0.6394"/>
<stop offset="0.6709" stop-color="white" stop-opacity="0.4497"/>
<stop offset="0.8385" stop-color="white" stop-opacity="0.1903"/>
<stop offset="0.9514" stop-color="white" stop-opacity="0"/>
</linearGradient>
<clipPath id="clip0_203_7928">
<rect width="512" height="512" fill="white" transform="translate(0 0.667603)"/>
</clipPath>
</defs>
</svg>
