<?xml version="1.0" encoding="UTF-8" standalone="no"?>
<!DOCTYPE svg PUBLIC "-//W3C//DTD SVG 1.1//EN" "http://www.w3.org/Graphics/SVG/1.1/DTD/svg11.dtd">
<svg width="100%" height="100%" viewBox="0 0 80 80" version="1.1" xmlns="http://www.w3.org/2000/svg" xmlns:xlink="http://www.w3.org/1999/xlink" xml:space="preserve" xmlns:serif="http://www.serif.com/" style="fill-rule:evenodd;clip-rule:evenodd;stroke-miterlimit:10;">
    <g transform="matrix(1,0,0,1,-55736.1,-26674.7)">
        <g transform="matrix(1,0,0,1,-0.265107,-0.302452)">
            <g transform="matrix(1,0,0,1,-69.5063,34.2683)">
                <rect x="55805.9" y="26640.7" width="79.985" height="79.985" style="fill:none;"/>
                <clipPath id="_clip1">
                    <rect x="55805.9" y="26640.7" width="79.985" height="79.985"/>
                </clipPath>
                <g clip-path="url(#_clip1)">
                    <g transform="matrix(1,0,0,1,55808.4,26639.5)">
                        <clipPath id="_clip2">
                            <rect x="0" y="0.001" width="80" height="80"/>
                        </clipPath>
                        <g clip-path="url(#_clip2)">
                            <path d="M8.594,67.745L17.206,67.857C22.155,67.919 27.067,68.726 31.775,70.251L40.156,72.97" style="fill:none;fill-rule:nonzero;stroke:url(#_Linear3);stroke-width:1.25px;"/>
                            <path d="M40.156,67.307L32.069,64.601C27.237,62.95 22.174,62.079 17.069,62.02L8.619,61.926" style="fill:none;fill-rule:nonzero;stroke:url(#_Linear4);stroke-width:1.25px;"/>
                            <path d="M40.156,61.645L32.356,58.957C27.388,57.17 22.154,56.234 16.875,56.188L8.594,56.107" style="fill:none;fill-rule:nonzero;stroke:url(#_Linear5);stroke-width:1.25px;"/>
                            <path d="M40.156,55.982L32.656,53.307C27.559,51.393 22.164,50.394 16.719,50.357L8.594,50.289" style="fill:none;fill-rule:nonzero;stroke:url(#_Linear6);stroke-width:1.25px;"/>
                            <path d="M40.156,50.32L32.938,47.657C27.714,45.617 22.158,44.558 16.55,44.532L8.594,44.476" style="fill:none;fill-rule:nonzero;stroke:url(#_Linear7);stroke-width:1.25px;"/>
                            <path d="M40.156,44.657L33.225,42.007C27.874,39.836 22.156,38.712 16.381,38.695L8.594,38.651" style="fill:none;fill-rule:nonzero;stroke:url(#_Linear8);stroke-width:1.25px;"/>
                            <path d="M40.156,38.995L33.519,36.357C28.05,34.063 22.181,32.875 16.25,32.864L8.625,32.864" style="fill:none;fill-rule:nonzero;stroke:url(#_Linear9);stroke-width:1.25px;"/>
                            <path d="M40.156,33.332L33.806,30.714C28.205,28.282 22.163,27.029 16.056,27.032L8.594,27.032" style="fill:none;fill-rule:nonzero;stroke:url(#_Linear10);stroke-width:1.25px;"/>
                            <path d="M40.156,27.67L34.1,25.064C28.369,22.506 22.163,21.188 15.887,21.195L8.594,21.195" style="fill:none;fill-rule:nonzero;stroke:url(#_Linear11);stroke-width:1.25px;"/>
                            <path d="M40.156,22.007L34.375,19.414C28.521,16.728 22.153,15.346 15.713,15.364L8.581,15.364" style="fill:none;fill-rule:nonzero;stroke:url(#_Linear12);stroke-width:1.25px;"/>
                            <path d="M40.156,16.345L34.681,13.751C28.7,10.943 22.17,9.502 15.563,9.532L8.594,9.563" style="fill:none;fill-rule:nonzero;stroke:url(#_Linear13);stroke-width:1.25px;"/>
                            <path d="M71.25,67.745L62.681,67.857C57.755,67.919 52.866,68.726 48.181,70.251L39.844,72.97" style="fill:none;fill-rule:nonzero;stroke:rgb(120,232,216);stroke-opacity:0.1;stroke-width:1.25px;"/>
                            <path d="M39.844,67.307L47.894,64.601C52.707,62.948 57.755,62.077 62.844,62.02L71.25,61.926" style="fill:none;fill-rule:nonzero;stroke:rgb(120,232,216);stroke-opacity:0.19;stroke-width:1.25px;"/>
                            <path d="M39.844,61.645L47.606,58.957C52.546,57.171 57.753,56.235 63.006,56.188L71.25,56.107" style="fill:none;fill-rule:nonzero;stroke:rgb(120,232,216);stroke-opacity:0.28;stroke-width:1.25px;"/>
                            <path d="M39.844,55.982L47.344,53.307C52.411,51.393 57.777,50.394 63.194,50.357L71.25,50.289" style="fill:none;fill-rule:nonzero;stroke:rgb(120,232,216);stroke-opacity:0.37;stroke-width:1.25px;"/>
                            <path d="M39.844,50.32L47.025,47.657C52.223,45.617 57.754,44.558 63.338,44.532L71.25,44.47" style="fill:none;fill-rule:nonzero;stroke:rgb(120,232,216);stroke-opacity:0.46;stroke-width:1.25px;"/>
                            <path d="M39.844,44.657L46.719,42.007C52.042,39.837 57.733,38.712 63.481,38.695L71.231,38.651" style="fill:none;fill-rule:nonzero;stroke:rgb(120,232,216);stroke-opacity:0.55;stroke-width:1.25px;"/>
                            <path d="M39.844,38.995L46.45,36.357C51.898,34.059 57.75,32.871 63.663,32.864L71.25,32.864" style="fill:none;fill-rule:nonzero;stroke:rgb(120,232,216);stroke-opacity:0.64;stroke-width:1.25px;"/>
                            <path d="M39.844,33.332L46.163,30.714C51.734,28.283 57.747,27.029 63.825,27.032L71.25,27.032" style="fill:none;fill-rule:nonzero;stroke:rgb(120,232,216);stroke-opacity:0.73;stroke-width:1.25px;"/>
                            <path d="M39.844,27.67L45.875,25.064C51.574,22.505 57.753,21.186 64,21.195L71.25,21.195" style="fill:none;fill-rule:nonzero;stroke:rgb(120,232,216);stroke-opacity:0.82;stroke-width:1.25px;"/>
                            <path d="M39.844,22.007L45.581,19.414C51.405,16.728 57.744,15.346 64.156,15.364L71.25,15.364" style="fill:none;fill-rule:nonzero;stroke:rgb(120,232,216);stroke-opacity:0.91;stroke-width:1.25px;"/>
                            <path d="M39.844,16.345L45.294,13.751C51.24,10.939 57.741,9.493 64.319,9.52L71.25,9.564" style="fill:none;fill-rule:nonzero;stroke:rgb(120,232,216);stroke-width:1.25px;"/>
                            <path d="M26.875,27.501L39.375,40.001L26.875,52.501" style="fill:none;fill-rule:nonzero;stroke:white;stroke-width:1.25px;"/>
                            <path d="M38.75,40.001L3.75,40.001" style="fill:none;fill-rule:nonzero;stroke:white;stroke-width:1.25px;"/>
                            <path d="M71.25,58.701L68.431,58.751L67.5,55.051C66.165,54.722 64.881,54.216 63.681,53.545L60.525,55.626L56,51.251L57.969,47.995C57.261,46.823 56.713,45.562 56.338,44.245L52.588,43.47L52.5,37.157L56.194,36.251C56.521,34.916 57.028,33.631 57.7,32.432L55.625,29.238L60,24.707L63.25,26.682C64.42,25.969 65.681,25.418 67,25.045L67.775,21.295L71.25,21.251" style="fill:none;fill-rule:nonzero;stroke:white;stroke-width:1.25px;"/>
                            <path d="M71.25,46.251C69.592,46.251 68.003,45.593 66.831,44.42C65.659,43.248 65,41.659 65,40.001C65,38.343 65.659,36.754 66.831,35.582C68.003,34.41 69.592,33.751 71.25,33.751" style="fill:none;fill-rule:nonzero;stroke:white;stroke-width:1.25px;"/>
                        </g>
                    </g>
                </g>
            </g>
        </g>
    </g>
    <defs>
        <linearGradient id="_Linear3" x1="0" y1="0" x2="1" y2="0" gradientUnits="userSpaceOnUse" gradientTransform="matrix(31.7625,0,0,31.7625,8.5875,70.3384)"><stop offset="0" style="stop-color:rgb(75,248,187);stop-opacity:1"/><stop offset="0.02" style="stop-color:rgb(75,248,187);stop-opacity:0.98"/><stop offset="0.42" style="stop-color:rgb(75,248,187);stop-opacity:0.56"/><stop offset="0.71" style="stop-color:rgb(75,248,187);stop-opacity:0.3"/><stop offset="0.84" style="stop-color:rgb(75,248,187);stop-opacity:0.2"/><stop offset="1" style="stop-color:rgb(75,248,187);stop-opacity:0.2"/></linearGradient>
        <linearGradient id="_Linear4" x1="0" y1="0" x2="1" y2="0" gradientUnits="userSpaceOnUse" gradientTransform="matrix(31.7688,0,0,31.7688,8.5874,64.601)"><stop offset="0" style="stop-color:rgb(75,248,187);stop-opacity:1"/><stop offset="0.02" style="stop-color:rgb(75,248,187);stop-opacity:0.98"/><stop offset="0.42" style="stop-color:rgb(75,248,187);stop-opacity:0.56"/><stop offset="0.71" style="stop-color:rgb(75,248,187);stop-opacity:0.3"/><stop offset="0.84" style="stop-color:rgb(75,248,187);stop-opacity:0.2"/><stop offset="1" style="stop-color:rgb(75,248,187);stop-opacity:0.2"/></linearGradient>
        <linearGradient id="_Linear5" x1="0" y1="0" x2="1" y2="0" gradientUnits="userSpaceOnUse" gradientTransform="matrix(31.775,0,0,31.775,8.5875,58.8572)"><stop offset="0" style="stop-color:rgb(75,248,187);stop-opacity:1"/><stop offset="0.02" style="stop-color:rgb(75,248,187);stop-opacity:0.98"/><stop offset="0.42" style="stop-color:rgb(75,248,187);stop-opacity:0.56"/><stop offset="0.71" style="stop-color:rgb(75,248,187);stop-opacity:0.3"/><stop offset="0.84" style="stop-color:rgb(75,248,187);stop-opacity:0.2"/><stop offset="1" style="stop-color:rgb(75,248,187);stop-opacity:0.2"/></linearGradient>
        <linearGradient id="_Linear6" x1="0" y1="0" x2="1" y2="0" gradientUnits="userSpaceOnUse" gradientTransform="matrix(31.7812,0,0,31.7812,8.5875,53.1197)"><stop offset="0" style="stop-color:rgb(75,248,187);stop-opacity:1"/><stop offset="0.02" style="stop-color:rgb(75,248,187);stop-opacity:0.98"/><stop offset="0.42" style="stop-color:rgb(75,248,187);stop-opacity:0.56"/><stop offset="0.71" style="stop-color:rgb(75,248,187);stop-opacity:0.3"/><stop offset="0.84" style="stop-color:rgb(75,248,187);stop-opacity:0.2"/><stop offset="1" style="stop-color:rgb(75,248,187);stop-opacity:0.2"/></linearGradient>
        <linearGradient id="_Linear7" x1="0" y1="0" x2="1" y2="0" gradientUnits="userSpaceOnUse" gradientTransform="matrix(31.7875,0,0,31.7875,8.5875,47.376)"><stop offset="0" style="stop-color:rgb(75,248,187);stop-opacity:1"/><stop offset="0.02" style="stop-color:rgb(75,248,187);stop-opacity:0.98"/><stop offset="0.42" style="stop-color:rgb(75,248,187);stop-opacity:0.56"/><stop offset="0.71" style="stop-color:rgb(75,248,187);stop-opacity:0.3"/><stop offset="0.84" style="stop-color:rgb(75,248,187);stop-opacity:0.2"/><stop offset="1" style="stop-color:rgb(75,248,187);stop-opacity:0.2"/></linearGradient>
        <linearGradient id="_Linear8" x1="0" y1="0" x2="1" y2="0" gradientUnits="userSpaceOnUse" gradientTransform="matrix(31.7937,0,0,31.7937,8.5875,41.6322)"><stop offset="0" style="stop-color:rgb(75,248,187);stop-opacity:1"/><stop offset="0.02" style="stop-color:rgb(75,248,187);stop-opacity:0.98"/><stop offset="0.42" style="stop-color:rgb(75,248,187);stop-opacity:0.56"/><stop offset="0.71" style="stop-color:rgb(75,248,187);stop-opacity:0.3"/><stop offset="0.84" style="stop-color:rgb(75,248,187);stop-opacity:0.2"/><stop offset="1" style="stop-color:rgb(75,248,187);stop-opacity:0.2"/></linearGradient>
        <linearGradient id="_Linear9" x1="0" y1="0" x2="1" y2="0" gradientUnits="userSpaceOnUse" gradientTransform="matrix(31.7938,0,0,31.7938,8.59375,35.8948)"><stop offset="0" style="stop-color:rgb(75,248,187);stop-opacity:1"/><stop offset="0.02" style="stop-color:rgb(75,248,187);stop-opacity:0.98"/><stop offset="0.42" style="stop-color:rgb(75,248,187);stop-opacity:0.56"/><stop offset="0.71" style="stop-color:rgb(75,248,187);stop-opacity:0.3"/><stop offset="0.84" style="stop-color:rgb(75,248,187);stop-opacity:0.2"/><stop offset="1" style="stop-color:rgb(75,248,187);stop-opacity:0.2"/></linearGradient>
        <linearGradient id="_Linear10" x1="0" y1="0" x2="1" y2="0" gradientUnits="userSpaceOnUse" gradientTransform="matrix(31.8,0,0,31.8,8.59375,30.151)"><stop offset="0" style="stop-color:rgb(75,248,187);stop-opacity:1"/><stop offset="0.02" style="stop-color:rgb(75,248,187);stop-opacity:0.98"/><stop offset="0.42" style="stop-color:rgb(75,248,187);stop-opacity:0.56"/><stop offset="0.71" style="stop-color:rgb(75,248,187);stop-opacity:0.3"/><stop offset="0.84" style="stop-color:rgb(75,248,187);stop-opacity:0.2"/><stop offset="1" style="stop-color:rgb(75,248,187);stop-opacity:0.2"/></linearGradient>
        <linearGradient id="_Linear11" x1="0" y1="0" x2="1" y2="0" gradientUnits="userSpaceOnUse" gradientTransform="matrix(31.8126,0,0,31.8126,8.59375,24.4072)"><stop offset="0" style="stop-color:rgb(75,248,187);stop-opacity:1"/><stop offset="0.02" style="stop-color:rgb(75,248,187);stop-opacity:0.98"/><stop offset="0.42" style="stop-color:rgb(75,248,187);stop-opacity:0.56"/><stop offset="0.71" style="stop-color:rgb(75,248,187);stop-opacity:0.3"/><stop offset="0.84" style="stop-color:rgb(75,248,187);stop-opacity:0.2"/><stop offset="1" style="stop-color:rgb(75,248,187);stop-opacity:0.2"/></linearGradient>
        <linearGradient id="_Linear12" x1="0" y1="0" x2="1" y2="0" gradientUnits="userSpaceOnUse" gradientTransform="matrix(31.8187,0,0,31.8187,8.5938,18.6573)"><stop offset="0" style="stop-color:rgb(75,248,187);stop-opacity:1"/><stop offset="0.02" style="stop-color:rgb(75,248,187);stop-opacity:0.98"/><stop offset="0.42" style="stop-color:rgb(75,248,187);stop-opacity:0.56"/><stop offset="0.71" style="stop-color:rgb(75,248,187);stop-opacity:0.3"/><stop offset="0.84" style="stop-color:rgb(75,248,187);stop-opacity:0.2"/><stop offset="1" style="stop-color:rgb(75,248,187);stop-opacity:0.2"/></linearGradient>
        <linearGradient id="_Linear13" x1="0" y1="0" x2="1" y2="0" gradientUnits="userSpaceOnUse" gradientTransform="matrix(31.8312,0,0,31.8312,8.59375,12.9072)"><stop offset="0" style="stop-color:rgb(75,248,187);stop-opacity:1"/><stop offset="0.02" style="stop-color:rgb(75,248,187);stop-opacity:0.98"/><stop offset="0.42" style="stop-color:rgb(75,248,187);stop-opacity:0.56"/><stop offset="0.71" style="stop-color:rgb(75,248,187);stop-opacity:0.3"/><stop offset="0.84" style="stop-color:rgb(75,248,187);stop-opacity:0.2"/><stop offset="1" style="stop-color:rgb(75,248,187);stop-opacity:0.2"/></linearGradient>
    </defs>
</svg>
