<?xml version="1.0" encoding="UTF-8" standalone="no"?>
<!DOCTYPE svg PUBLIC "-//W3C//DTD SVG 1.1//EN" "http://www.w3.org/Graphics/SVG/1.1/DTD/svg11.dtd">
<svg width="100%" height="100%" viewBox="0 0 25 25" version="1.1" xmlns="http://www.w3.org/2000/svg" xmlns:xlink="http://www.w3.org/1999/xlink" xml:space="preserve" xmlns:serif="http://www.serif.com/" style="fill-rule:evenodd;clip-rule:evenodd;stroke-linejoin:round;stroke-miterlimit:2;">
    <g transform="matrix(1,0,0,1,-54709.1,-28420.9)">
        <g transform="matrix(1,0,0,1,55129.1,27259.2)">
            <g transform="matrix(1.07975,0,0,1.07975,-59341.6,-29561.5)">
                <rect x="54569.6" y="28453.9" width="23.153" height="23.153" style="fill:none;"/>
                <clipPath id="_clip1">
                    <rect x="54569.6" y="28453.9" width="23.153" height="23.153"/>
                </clipPath>
                <g clip-path="url(#_clip1)">
                    <g transform="matrix(0.964726,0,0,0.964726,54974.7,27332.6)">
                        <g transform="matrix(1,0,0,1,-544.973,1153.2)">
                            <path d="M125.032,20.891C125.032,14.378 130.56,9.1 137.134,9.1C143.699,9.1 149.032,14.587 149.032,21.097C149.032,27.607 143.703,33.089 137.133,33.089L125.032,33.1L125.032,20.891ZM130.916,17.235C132.246,15.022 134.652,13.666 137.251,13.665L137.258,13.665C138.358,13.665 139.444,13.909 140.437,14.379C141.43,14.849 142.304,15.533 142.996,16.381C143.687,17.229 144.178,18.22 144.433,19.281C144.688,20.341 144.7,21.445 144.469,22.511C144.237,23.577 143.768,24.578 143.095,25.441C142.423,26.304 141.564,27.006 140.582,27.498C139.6,27.989 138.519,28.257 137.419,28.281C136.319,28.304 135.227,28.084 134.224,27.636L129.432,28.708L130.766,24.454C129.53,22.19 129.586,19.447 130.916,17.235Z" style="fill:rgb(243,243,243);"/>
                        </g>
                        <g transform="matrix(1,0,0,1,-544.973,1153.2)">
                            <path d="M143.104,16.526C145.149,19.183 145.114,22.876 143.019,25.494C140.924,28.113 137.303,28.99 134.225,27.623L129.433,28.709L134.311,28.138C137.545,30.016 141.687,29.19 143.935,26.218C146.184,23.247 145.826,19.077 143.103,16.525L143.104,16.526Z" style="fill:rgb(108,109,109);fill-rule:nonzero;"/>
                        </g>
                        <g transform="matrix(1,0,0,1,-544.973,1153.2)">
                            <path d="M141.746,15.18C144.06,17.61 144.414,21.287 142.606,24.108C140.799,26.93 137.29,28.176 134.085,27.135L129.433,28.711L134.225,27.636C137.639,29.164 141.666,27.913 143.588,24.728C145.511,21.543 144.718,17.436 141.745,15.179L141.746,15.18Z" style="fill:rgb(176,177,177);fill-rule:nonzero;"/>
                        </g>
                        <g transform="matrix(1,0,0,1,-544.973,1153.2)">
                            <path d="M131.208,24.615C130.561,23.067 130.47,21.346 130.951,19.74C131.432,18.133 132.455,16.74 133.849,15.791C135.243,14.844 136.924,14.399 138.609,14.532C140.295,14.665 141.883,15.368 143.108,16.523C141.98,15.061 140.336,14.074 138.506,13.76C136.676,13.446 134.793,13.828 133.234,14.83C131.676,15.831 130.556,17.379 130.099,19.163C129.641,20.947 129.88,22.836 130.767,24.453L129.433,28.707L131.208,24.615Z" style="fill:rgb(64,65,65);fill-rule:nonzero;"/>
                        </g>
                        <g transform="matrix(1,0,0,1,-544.973,1153.2)">
                            <path d="M130.768,24.454C129.965,22.982 129.696,21.282 130.006,19.637C130.316,17.992 131.186,16.502 132.471,15.417C133.756,14.331 135.378,13.715 137.066,13.672C138.754,13.629 140.407,14.161 141.746,15.179C140.469,13.849 138.732,13.044 136.883,12.925C135.033,12.806 133.206,13.381 131.765,14.535C130.324,15.69 129.375,17.34 129.106,19.157C128.836,20.974 129.268,22.825 130.313,24.341L129.436,28.711L130.768,24.454Z" style="fill:rgb(135,136,136);fill-rule:nonzero;"/>
                        </g>
                    </g>
                </g>
            </g>
        </g>
    </g>
</svg>
