<?xml version="1.0" encoding="UTF-8" standalone="no"?>
<!DOCTYPE svg PUBLIC "-//W3C//DTD SVG 1.1//EN" "http://www.w3.org/Graphics/SVG/1.1/DTD/svg11.dtd">
<svg width="100%" height="100%" viewBox="0 0 25 25" version="1.1" xmlns="http://www.w3.org/2000/svg" xmlns:xlink="http://www.w3.org/1999/xlink" xml:space="preserve" xmlns:serif="http://www.serif.com/" style="fill-rule:evenodd;clip-rule:evenodd;stroke-linecap:round;stroke-linejoin:round;">
    <g transform="matrix(1,0,0,1,-54877.3,-28554.6)">
        <g transform="matrix(1,0,0,1,-0.265107,-0.302452)">
            <g transform="matrix(1.00483,0,0,1.00483,-264.622,-137.528)">
                <rect x="54877.3" y="28554.6" width="24.88" height="24.88" style="fill:none;"/>
                <g transform="matrix(1.09062,0,0,1.09062,54876.7,28554.4)">
                    <path d="M9.07,17.544L7.515,19.551C7.515,19.551 3.614,19.528 1.045,16.567C1.501,9.308 4.034,5.617 4.034,5.617C5.489,4.53 7.204,3.844 9.007,3.628L9.867,5.874C10.54,5.775 11.172,5.734 11.995,5.734C12.86,5.734 13.452,5.773 14.153,5.88L14.984,3.628C17.676,3.828 19.957,5.617 19.957,5.617C19.957,5.617 22.489,9.313 22.945,16.567C20.377,19.528 16.476,19.537 16.476,19.537L14.984,17.532M4.596,15.719C6.197,16.8 8.507,17.808 11.995,17.808C15.404,17.808 17.688,16.845 19.285,15.792M10.503,12.584C10.503,13.683 9.723,14.573 8.76,14.573C7.798,14.573 7.017,13.683 7.017,12.584C7.017,11.485 7.798,10.595 8.76,10.595C9.723,10.595 10.503,11.485 10.503,12.584ZM16.973,12.584C16.973,13.683 16.192,14.573 15.23,14.573C14.267,14.573 13.487,13.683 13.487,12.584C13.487,11.485 14.267,10.595 15.23,10.595C16.192,10.595 16.973,11.485 16.973,12.584Z" style="fill:none;fill-rule:nonzero;stroke:rgb(243,243,243);stroke-width:0.88px;"/>
                </g>
            </g>
        </g>
    </g>
</svg>
