<?xml version="1.0" encoding="UTF-8" standalone="no"?>
<!DOCTYPE svg PUBLIC "-//W3C//DTD SVG 1.1//EN" "http://www.w3.org/Graphics/SVG/1.1/DTD/svg11.dtd">
<svg width="100%" height="100%" viewBox="0 0 25 25" version="1.1" xmlns="http://www.w3.org/2000/svg" xmlns:xlink="http://www.w3.org/1999/xlink" xml:space="preserve" xmlns:serif="http://www.serif.com/" style="fill-rule:evenodd;clip-rule:evenodd;stroke-linejoin:round;stroke-miterlimit:2;">
    <g transform="matrix(1,0,0,1,-54768.2,-28493.9)">
        <g transform="matrix(1,0,0,1,-0.265107,-0.302452)">
            <g transform="matrix(0.770745,0,0,0.770745,12556.1,6532.66)">
                <rect x="54768.2" y="28493.9" width="32.436" height="32.436" style="fill:none;"/>
                <g transform="matrix(1.00733,0,0,1.00733,54763.8,28486)">
                    <path d="M27.8,25.6L28.7,20L23.4,20L23.4,16.1C23.4,14.5 24,13.3 26.4,13.3L29,13.3L29,8.2C27.6,8 26,7.8 24.6,7.8C20,7.8 16.8,10.6 16.8,15.6L16.8,20L11.8,20L11.8,25.6L16.8,25.6L16.8,39.7C17.9,39.9 19,40 20.1,40C21.2,40 22.3,39.9 23.4,39.7L23.4,25.6L27.8,25.6Z" style="fill:rgb(243,243,244);fill-rule:nonzero;"/>
                </g>
            </g>
        </g>
    </g>
</svg>
