<?xml version="1.0" encoding="UTF-8" standalone="no"?>
<!DOCTYPE svg PUBLIC "-//W3C//DTD SVG 1.1//EN" "http://www.w3.org/Graphics/SVG/1.1/DTD/svg11.dtd">
<svg width="100%" height="100%" viewBox="0 0 25 25" version="1.1" xmlns="http://www.w3.org/2000/svg" xmlns:xlink="http://www.w3.org/1999/xlink" xml:space="preserve" xmlns:serif="http://www.serif.com/" style="fill-rule:evenodd;clip-rule:evenodd;stroke-linejoin:round;stroke-miterlimit:2;">
    <g transform="matrix(1,0,0,1,-54940,-28420.9)">
        <g transform="matrix(1,0,0,1,55129.1,27259.2)">
            <g transform="matrix(1.07975,0,0,1.07975,-59110.7,-29561.5)">
                <rect x="54569.6" y="28453.9" width="23.153" height="23.153" style="fill:none;"/>
                <clipPath id="_clip1">
                    <rect x="54569.6" y="28453.9" width="23.153" height="23.153"/>
                </clipPath>
                <g clip-path="url(#_clip1)">
                    <g transform="matrix(1.022,0,0,1.022,54205.8,28444)">
                        <path d="M361.551,11.435C363.286,10.412 365.182,9.9 367.237,9.9C369.292,9.9 371.187,10.412 372.922,11.435C374.658,12.457 376.032,13.845 377.045,15.598C378.058,17.351 378.564,19.266 378.564,21.341C378.564,23.834 377.844,26.076 376.403,28.068C374.963,30.059 373.102,31.437 370.821,32.202C370.555,32.251 370.359,32.217 370.231,32.097C370.103,31.978 370.039,31.829 370.039,31.651C370.039,31.621 370.041,31.241 370.046,30.511C370.051,29.781 370.054,29.113 370.054,28.507C370.054,27.544 369.798,26.839 369.287,26.392C369.847,26.332 370.351,26.243 370.799,26.124C371.246,26.004 371.708,25.811 372.185,25.543C372.662,25.274 373.06,24.944 373.38,24.552C373.699,24.16 373.96,23.638 374.161,22.988C374.363,22.337 374.464,21.59 374.464,20.746C374.464,19.564 374.075,18.541 373.299,17.677C373.662,16.773 373.623,15.76 373.181,14.637C372.905,14.548 372.507,14.603 371.986,14.801C371.465,15 371.012,15.219 370.629,15.457L370.068,15.814C369.154,15.556 368.21,15.427 367.237,15.427C366.263,15.427 365.319,15.556 364.405,15.814C364.247,15.705 364.038,15.571 363.778,15.412C363.517,15.253 363.107,15.062 362.546,14.839C361.986,14.615 361.568,14.548 361.293,14.637C360.85,15.76 360.811,16.773 361.175,17.677C360.398,18.541 360.009,19.564 360.009,20.746C360.009,21.59 360.11,22.334 360.312,22.98C360.513,23.626 360.772,24.147 361.086,24.544C361.401,24.942 361.797,25.274 362.273,25.543C362.75,25.811 363.213,26.004 363.66,26.124C364.107,26.243 364.611,26.332 365.172,26.392C364.788,26.749 364.547,27.261 364.449,27.926C364.243,28.025 364.021,28.1 363.785,28.15C363.549,28.199 363.269,28.224 362.945,28.224C362.62,28.224 362.298,28.117 361.979,27.904C361.659,27.69 361.386,27.38 361.16,26.973C360.973,26.655 360.735,26.397 360.445,26.198C360.155,25.999 359.911,25.88 359.715,25.84L359.42,25.796C359.213,25.796 359.07,25.818 358.992,25.863C358.913,25.908 358.889,25.965 358.918,26.034C358.948,26.104 358.992,26.173 359.051,26.243C359.11,26.312 359.174,26.372 359.243,26.421L359.346,26.496C359.562,26.595 359.776,26.784 359.987,27.062C360.199,27.34 360.354,27.593 360.452,27.822L360.599,28.165C360.727,28.542 360.944,28.847 361.248,29.081C361.553,29.314 361.883,29.463 362.237,29.528C362.591,29.592 362.932,29.627 363.262,29.632C363.591,29.637 363.864,29.619 364.08,29.58L364.419,29.52C364.419,29.898 364.422,30.337 364.427,30.839C364.432,31.34 364.434,31.611 364.434,31.651C364.434,31.829 364.37,31.978 364.242,32.097C364.115,32.217 363.918,32.251 363.653,32.202C361.371,31.437 359.51,30.059 358.07,28.068C356.629,26.076 355.909,23.834 355.909,21.341C355.909,19.266 356.416,17.351 357.428,15.598C358.441,13.845 359.815,12.458 361.551,11.435ZM360.009,26.362C360.098,26.421 360.162,26.412 360.201,26.332C360.231,26.263 360.196,26.203 360.098,26.153C360,26.124 359.936,26.133 359.906,26.183C359.877,26.253 359.911,26.312 360.009,26.362L360.009,26.362ZM360.422,26.794C360.521,26.893 360.599,26.908 360.658,26.839C360.727,26.789 360.717,26.709 360.629,26.6C360.531,26.511 360.452,26.496 360.393,26.555C360.324,26.605 360.334,26.685 360.422,26.794ZM360.85,27.405C360.939,27.534 361.022,27.569 361.101,27.509C361.189,27.439 361.189,27.345 361.101,27.226C361.022,27.097 360.939,27.067 360.85,27.137C360.762,27.186 360.762,27.276 360.85,27.405ZM361.425,28.09C361.543,28.209 361.642,28.224 361.72,28.135C361.799,28.055 361.779,27.961 361.661,27.852C361.543,27.732 361.445,27.718 361.366,27.807C361.278,27.886 361.298,27.981 361.425,28.09ZM362.281,28.597C362.428,28.656 362.522,28.626 362.561,28.507C362.591,28.398 362.527,28.318 362.369,28.269C362.222,28.229 362.128,28.264 362.089,28.373C362.05,28.482 362.114,28.557 362.281,28.597ZM363.254,28.746C363.412,28.746 363.49,28.691 363.49,28.582C363.49,28.453 363.407,28.398 363.24,28.418C363.082,28.418 363.004,28.472 363.004,28.582C363.004,28.711 363.087,28.765 363.254,28.746ZM364.139,28.641C364.297,28.601 364.365,28.532 364.346,28.433C364.326,28.323 364.238,28.279 364.08,28.299C363.923,28.328 363.854,28.403 363.874,28.522C363.893,28.641 363.982,28.681 364.139,28.641Z" style="fill:rgb(243,243,243);"/>
                    </g>
                </g>
            </g>
        </g>
    </g>
</svg>
