<?xml version="1.0" encoding="UTF-8" standalone="no"?>
<!DOCTYPE svg PUBLIC "-//W3C//DTD SVG 1.1//EN" "http://www.w3.org/Graphics/SVG/1.1/DTD/svg11.dtd">
<svg width="100%" height="100%" viewBox="0 0 25 25" version="1.1" xmlns="http://www.w3.org/2000/svg" xmlns:xlink="http://www.w3.org/1999/xlink" xml:space="preserve" xmlns:serif="http://www.serif.com/" style="fill-rule:evenodd;clip-rule:evenodd;stroke-linejoin:round;stroke-miterlimit:2;">
    <g transform="matrix(1,0,0,1,-54574.9,-28493.9)">
        <g transform="matrix(1,0,0,1,-0.265107,-0.302452)">
            <g transform="matrix(0.544576,0,0,0.544576,24855,12977.1)">
                <rect x="54574.9" y="28493.9" width="45.907" height="45.907" style="fill:none;"/>
                <clipPath id="_clip1">
                    <rect x="54574.9" y="28493.9" width="45.907" height="45.907"/>
                </clipPath>
                <g clip-path="url(#_clip1)">
                    <g transform="matrix(2.33269,0,0,2.33269,-72809.3,-37913.2)">
                        <g transform="matrix(1,0,0,1,54606.1,28465.8)">
                            <path d="M6.247,10.816C6.094,10.572 5.951,10.33 5.819,10.092C5.651,10.146 5.489,10.202 5.332,10.26C4.484,10.573 3.817,10.939 3.368,11.332C2.917,11.725 2.71,12.121 2.71,12.5C2.71,12.879 2.917,13.274 3.368,13.668C3.817,14.06 4.484,14.427 5.332,14.74L5.385,14.759C5.618,14.255 5.907,13.726 6.247,13.184L6.61,13.547C6.317,14.021 6.067,14.481 5.862,14.921C6.661,15.174 7.581,15.379 8.586,15.523L9.221,16.158C7.888,16.01 6.673,15.759 5.642,15.428C5.386,16.067 5.241,16.642 5.212,17.128C5.177,17.716 5.311,18.144 5.584,18.416C5.856,18.689 6.284,18.823 6.872,18.788C7.46,18.753 8.178,18.549 8.983,18.183C9.451,17.97 9.945,17.704 10.453,17.39L10.816,17.753C10.255,18.105 9.709,18.402 9.19,18.638C8.353,19.018 7.573,19.247 6.902,19.287C6.232,19.327 5.64,19.18 5.23,18.77C4.82,18.36 4.673,17.768 4.713,17.098C4.746,16.55 4.904,15.93 5.168,15.265L5.141,15.256C4.258,14.929 3.524,14.535 3.006,14.082C2.488,13.63 2.16,13.096 2.16,12.5C2.16,11.903 2.488,11.37 3.006,10.918C3.524,10.465 4.258,10.07 5.141,9.744C5.276,9.694 5.415,9.646 5.558,9.599C5.489,9.461 5.423,9.324 5.362,9.19C4.982,8.353 4.753,7.573 4.713,6.902C4.673,6.232 4.82,5.64 5.23,5.23C5.64,4.82 6.232,4.673 6.902,4.713C7.573,4.753 8.353,4.982 9.19,5.362C9.709,5.598 10.255,5.895 10.817,6.247L10.454,6.61C9.945,6.296 9.451,6.03 8.983,5.817C8.178,5.452 7.46,5.247 6.872,5.212C6.284,5.177 5.856,5.311 5.584,5.584C5.311,5.856 5.177,6.284 5.212,6.872C5.248,7.46 5.452,8.178 5.817,8.983C5.887,9.136 5.962,9.291 6.043,9.45C6.662,9.271 7.34,9.12 8.063,9.001L7.376,9.688C7.004,9.765 6.648,9.851 6.31,9.945C6.374,10.059 6.44,10.173 6.509,10.288C6.542,10.343 6.576,10.398 6.61,10.453L6.247,10.816Z" style="fill:rgb(124,227,203);fill-rule:nonzero;"/>
                        </g>
                        <g transform="matrix(1,0,0,1,54606.1,28465.8)">
                            <path d="M14.81,18.638C14.291,18.402 13.745,18.105 13.184,17.753L13.547,17.39C14.056,17.704 14.549,17.97 15.017,18.183C15.822,18.548 16.54,18.752 17.128,18.788C17.716,18.823 18.144,18.689 18.416,18.416C18.689,18.144 18.823,17.716 18.788,17.128C18.759,16.642 18.614,16.067 18.359,15.428C17.328,15.759 16.112,16.01 14.779,16.158L15.414,15.523C16.419,15.379 17.339,15.174 18.138,14.921C17.933,14.481 17.683,14.021 17.39,13.547L17.753,13.184C18.093,13.726 18.382,14.255 18.615,14.759L18.668,14.74C19.516,14.427 20.183,14.06 20.632,13.668C21.083,13.274 21.29,12.879 21.29,12.5C21.29,12.121 21.083,11.725 20.632,11.332C20.183,10.939 19.516,10.573 18.668,10.26C18.511,10.202 18.349,10.146 18.181,10.092C18.049,10.33 17.906,10.572 17.753,10.817L17.39,10.454C17.496,10.282 17.596,10.113 17.69,9.945C17.496,9.891 17.295,9.839 17.088,9.79C16.936,9.755 16.781,9.72 16.624,9.687L15.937,9.001C16.66,9.12 17.338,9.271 17.957,9.45C18.038,9.292 18.113,9.136 18.183,8.983C18.548,8.179 18.753,7.46 18.788,6.872C18.823,6.284 18.689,5.856 18.416,5.584C18.144,5.311 17.716,5.177 17.128,5.212C16.54,5.248 15.822,5.452 15.017,5.817C14.549,6.03 14.055,6.296 13.547,6.61L13.184,6.247C13.745,5.895 14.291,5.598 14.81,5.362C15.647,4.982 16.427,4.753 17.098,4.713C17.768,4.673 18.36,4.82 18.77,5.23C19.18,5.64 19.327,6.232 19.287,6.902C19.247,7.573 19.018,8.354 18.638,9.19C18.609,9.254 18.578,9.319 18.547,9.385C18.513,9.456 18.478,9.527 18.442,9.599C18.585,9.646 18.724,9.694 18.859,9.744C19.742,10.07 20.476,10.465 20.994,10.918C21.512,11.37 21.84,11.903 21.84,12.5C21.84,13.096 21.512,13.63 20.994,14.082C20.476,14.535 19.742,14.929 18.859,15.256L18.832,15.265C19.096,15.93 19.254,16.55 19.287,17.098C19.327,17.768 19.18,18.36 18.77,18.77C18.36,19.18 17.768,19.327 17.098,19.287C16.427,19.247 15.647,19.018 14.81,18.638Z" style="fill:rgb(124,227,203);fill-rule:nonzero;"/>
                        </g>
                        <g transform="matrix(1,0,0,1,54606.1,28465.8)">
                            <path d="M17.982,11.682L12.318,6.018C12.143,5.843 11.858,5.843 11.682,6.018L6.018,11.682C5.842,11.858 5.842,12.143 6.018,12.318L9.341,15.641C10.26,15.753 10.95,15.758 12,15.758C13.095,15.758 13.716,15.741 14.682,15.617L17.982,12.318C18.158,12.143 18.158,11.858 17.982,11.682ZM12.608,12C12.608,12.336 12.336,12.608 12,12.608C11.665,12.608 11.393,12.336 11.393,12C11.393,11.665 11.665,11.393 12,11.393C12.336,11.393 12.608,11.665 12.608,12ZM14.987,12.608C15.322,12.608 15.594,12.336 15.594,12C15.594,11.665 15.322,11.393 14.987,11.393C14.651,11.393 14.379,11.665 14.379,12C14.379,12.336 14.651,12.608 14.987,12.608ZM9.621,12C9.621,12.336 9.349,12.608 9.014,12.608C8.678,12.608 8.406,12.336 8.406,12C8.406,11.665 8.678,11.393 9.014,11.393C9.349,11.393 9.621,11.665 9.621,12Z" style="fill:rgb(124,227,203);"/>
                        </g>
                        <g transform="matrix(1,0,0,1,54606.1,28465.8)">
                            <path d="M14.061,16.239C13.403,16.298 12.831,16.308 12,16.308C11.211,16.308 10.61,16.305 9.955,16.255L11.682,17.982C11.858,18.158 12.143,18.158 12.318,17.982L14.061,16.239Z" style="fill:rgb(124,227,203);fill-rule:nonzero;"/>
                        </g>
                    </g>
                </g>
            </g>
        </g>
    </g>
</svg>
