<?xml version="1.0" encoding="UTF-8" standalone="no"?>
<!DOCTYPE svg PUBLIC "-//W3C//DTD SVG 1.1//EN" "http://www.w3.org/Graphics/SVG/1.1/DTD/svg11.dtd">
<svg width="100%" height="100%" viewBox="0 0 74 55" version="1.1" xmlns="http://www.w3.org/2000/svg" xmlns:xlink="http://www.w3.org/1999/xlink" xml:space="preserve" xmlns:serif="http://www.serif.com/" style="fill-rule:evenodd;clip-rule:evenodd;stroke-linejoin:round;stroke-miterlimit:2;">
    <g transform="matrix(1,0,0,1,-19348,-18091.8)">
        <g transform="matrix(1,0,0,1,19344.9,18078.9)">
            <g>
                <g transform="matrix(1.04171,1.04331,-1.13221,1.13047,425.079,-40616.6)">
                    <path d="M19329.7,18102.5C19334.7,18102.5 19338.8,18112.5 19338.8,18124.8C19338.8,18137.2 19334.7,18147.2 19329.7,18147.2C19324.7,18147.2 19320.6,18137.2 19320.6,18124.8C19320.6,18112.5 19324.7,18102.5 19329.7,18102.5ZM19329.7,18103.1C19328.8,18103.1 19328,18103.5 19327.3,18104.1C19326.4,18104.8 19325.6,18105.8 19324.9,18107.1C19322.7,18111.1 19321.3,18117.6 19321.3,18124.8C19321.3,18132.1 19322.7,18138.6 19324.9,18142.6C19325.6,18143.9 19326.4,18144.9 19327.3,18145.6C19328,18146.2 19328.8,18146.6 19329.7,18146.6C19330.5,18146.6 19331.4,18146.2 19332.1,18145.6C19333,18144.9 19333.8,18143.9 19334.5,18142.6C19336.7,18138.6 19338.1,18132.1 19338.1,18124.8C19338.1,18117.6 19336.7,18111.1 19334.5,18107.1C19333.8,18105.8 19333,18104.8 19332.1,18104.1C19331.4,18103.5 19330.5,18103.1 19329.7,18103.1Z" style="fill:rgb(74,231,191);"/>
                </g>
                <g transform="matrix(-1.04251,1.04251,-1.13134,-1.13134,40696.8,393.889)">
                    <path d="M19329.7,18102.5C19334.7,18102.5 19338.8,18112.5 19338.8,18124.8C19338.8,18137.2 19334.7,18147.2 19329.7,18147.2C19324.7,18147.2 19320.6,18137.2 19320.6,18124.8C19320.6,18112.5 19324.7,18102.5 19329.7,18102.5ZM19329.7,18103.1C19328.8,18103.1 19328,18103.5 19327.3,18104.1C19326.4,18104.8 19325.6,18105.8 19324.9,18107.1C19322.7,18111.1 19321.3,18117.6 19321.3,18124.8C19321.3,18132.1 19322.7,18138.6 19324.9,18142.6C19325.6,18143.9 19326.4,18144.9 19327.3,18145.6C19328,18146.2 19328.8,18146.6 19329.7,18146.6C19330.5,18146.6 19331.4,18146.2 19332.1,18145.6C19333,18144.9 19333.8,18143.9 19334.5,18142.6C19336.7,18138.6 19338.1,18132.1 19338.1,18124.8C19338.1,18117.6 19336.7,18111.1 19334.5,18107.1C19333.8,18105.8 19333,18104.8 19332.1,18104.1C19331.4,18103.5 19330.5,18103.1 19329.7,18103.1Z" style="fill:rgb(74,231,191);"/>
                </g>
                <g transform="matrix(-7.61894e-17,1.52656,-1.64986,-1.14078e-15,29943.4,-29468.1)">
                    <path d="M19329.7,18102.5C19334.7,18102.5 19338.8,18112.5 19338.8,18124.8C19338.8,18137.2 19334.7,18147.2 19329.7,18147.2C19324.7,18147.2 19320.6,18137.2 19320.6,18124.8C19320.6,18112.5 19324.7,18102.5 19329.7,18102.5ZM19329.7,18103.1C19328.8,18103.1 19328,18103.5 19327.2,18104.1C19326.4,18104.8 19325.6,18105.8 19324.9,18107.1C19322.7,18111.1 19321.2,18117.6 19321.2,18124.8C19321.2,18132.1 19322.7,18138.6 19324.9,18142.6C19325.6,18143.9 19326.4,18144.9 19327.2,18145.6C19328,18146.2 19328.8,18146.6 19329.7,18146.6C19330.5,18146.6 19331.4,18146.2 19332.1,18145.6C19333,18144.9 19333.8,18143.9 19334.5,18142.6C19336.7,18138.6 19338.2,18132.1 19338.2,18124.8C19338.2,18117.6 19336.7,18111.1 19334.5,18107.1C19333.8,18105.8 19333,18104.8 19332.1,18104.1C19331.4,18103.5 19330.5,18103.1 19329.7,18103.1Z" style="fill:rgb(74,231,191);"/>
                </g>
            </g>
            <g transform="matrix(0.691822,0.691822,-0.691822,0.691822,-789.336,-25859.7)">
                <rect x="19300.1" y="18101.3" width="35.585" height="35.585"/>
                <path d="M19335.7,18101.3L19335.7,18136.9L19300.1,18136.9L19300.1,18101.3L19335.7,18101.3ZM19334.6,18102.3C19334.6,18102.3 19301.1,18102.3 19301.1,18102.3C19301.1,18102.3 19301.1,18135.9 19301.1,18135.9C19301.1,18135.9 19334.6,18135.9 19334.6,18135.9L19334.6,18102.3Z" style="fill:white;"/>
            </g>
            <g>
                <g transform="matrix(0.832987,0,0,0.832987,-16074.9,-15049.9)">
                    <path d="M19332.4,18111.7C19334.4,18111.7 19336,18113.3 19336,18115.3C19336,18117.3 19334.4,18118.9 19332.4,18118.9C19330.5,18118.9 19328.8,18117.3 19328.8,18115.3C19328.8,18113.3 19330.5,18111.7 19332.4,18111.7ZM19332.4,18112.9C19331.1,18112.9 19330,18114 19330,18115.3C19330,18116.6 19331.1,18117.7 19332.4,18117.7C19333.8,18117.7 19334.8,18116.6 19334.8,18115.3C19334.8,18114 19333.8,18112.9 19332.4,18112.9Z" style="fill:white;"/>
                </g>
                <g transform="matrix(0.832987,0,0,0.832987,-16063.7,-15049.9)">
                    <path d="M19332.4,18111.7C19334.4,18111.7 19336,18113.3 19336,18115.3C19336,18117.3 19334.4,18118.9 19332.4,18118.9C19330.5,18118.9 19328.8,18117.3 19328.8,18115.3C19328.8,18113.3 19330.5,18111.7 19332.4,18111.7ZM19332.4,18112.9C19331.1,18112.9 19330,18114 19330,18115.3C19330,18116.6 19331.1,18117.7 19332.4,18117.7C19333.8,18117.7 19334.8,18116.6 19334.8,18115.3C19334.8,18114 19333.8,18112.9 19332.4,18112.9Z" style="fill:white;"/>
                </g>
                <g transform="matrix(0.832987,0,0,0.832987,-16052.4,-15049.9)">
                    <path d="M19332.4,18111.7C19334.4,18111.7 19336,18113.3 19336,18115.3C19336,18117.3 19334.4,18118.9 19332.4,18118.9C19330.5,18118.9 19328.8,18117.3 19328.8,18115.3C19328.8,18113.3 19330.5,18111.7 19332.4,18111.7ZM19332.4,18112.9C19331.1,18112.9 19330,18114 19330,18115.3C19330,18116.6 19331.1,18117.7 19332.4,18117.7C19333.8,18117.7 19334.8,18116.6 19334.8,18115.3C19334.8,18114 19333.8,18112.9 19332.4,18112.9Z" style="fill:white;"/>
                </g>
            </g>
        </g>
    </g>
</svg>
