<?xml version="1.0" encoding="UTF-8" standalone="no"?>
<!DOCTYPE svg PUBLIC "-//W3C//DTD SVG 1.1//EN" "http://www.w3.org/Graphics/SVG/1.1/DTD/svg11.dtd">
<svg width="100%" height="100%" viewBox="0 0 25 25" version="1.1" xmlns="http://www.w3.org/2000/svg" xmlns:xlink="http://www.w3.org/1999/xlink" xml:space="preserve" xmlns:serif="http://www.serif.com/" style="fill-rule:evenodd;clip-rule:evenodd;stroke-linejoin:round;stroke-miterlimit:2;">
    <g transform="matrix(1,0,0,1,-54824.6,-28420.9)">
        <g transform="matrix(1,0,0,1,55129.1,27259.2)">
            <g transform="matrix(1.07975,0,0,1.07975,-59226.1,-29561.5)">
                <rect x="54569.6" y="28453.9" width="23.153" height="23.153" style="fill:none;"/>
                <clipPath id="_clip1">
                    <rect x="54569.6" y="28453.9" width="23.153" height="23.153"/>
                </clipPath>
                <g clip-path="url(#_clip1)">
                    <g transform="matrix(0.911086,0,0,0.911086,54350.4,28446.4)">
                        <path d="M265.145,18.992C265.693,19.534 265.967,20.184 265.967,20.942C265.967,21.479 265.828,21.967 265.549,22.407C265.27,22.846 264.894,23.182 264.422,23.413C264.535,23.839 264.592,24.283 264.592,24.746C264.592,26.18 264.088,27.508 263.082,28.729C262.075,29.951 260.701,30.915 258.962,31.623C257.222,32.331 255.331,32.685 253.289,32.685C251.247,32.685 249.359,32.331 247.624,31.623C245.889,30.915 244.518,29.951 243.511,28.729C242.504,27.508 242.001,26.18 242.001,24.746C242.001,24.311 242.053,23.876 242.157,23.441C241.675,23.209 241.287,22.869 240.994,22.421C240.701,21.972 240.554,21.479 240.554,20.942C240.554,20.184 240.828,19.534 241.377,18.992C241.925,18.451 242.592,18.18 243.376,18.18C244.18,18.18 244.865,18.472 245.433,19.055C247.494,17.648 249.928,16.899 252.736,16.806L254.381,9.575C254.41,9.454 254.48,9.357 254.594,9.283C254.707,9.209 254.83,9.186 254.963,9.214L260.196,10.338C260.366,9.996 260.621,9.72 260.961,9.512C261.302,9.304 261.675,9.2 262.082,9.2C262.668,9.2 263.169,9.401 263.585,9.804C264.001,10.206 264.209,10.694 264.209,11.268C264.209,11.842 264.001,12.332 263.585,12.739C263.169,13.147 262.668,13.35 262.082,13.35C261.496,13.35 260.997,13.149 260.586,12.746C260.174,12.344 259.969,11.856 259.969,11.282L255.232,10.255L253.757,16.806C256.593,16.89 259.047,17.63 261.117,19.027C261.666,18.463 262.342,18.18 263.145,18.18C263.93,18.18 264.597,18.451 265.145,18.992ZM247.106,22.247C246.69,22.654 246.482,23.14 246.482,23.705C246.482,24.278 246.688,24.769 247.099,25.176C247.51,25.583 248.009,25.787 248.595,25.787C249.181,25.787 249.682,25.583 250.098,25.176C250.514,24.769 250.722,24.278 250.722,23.705C250.722,23.131 250.514,22.643 250.098,22.24C249.682,21.838 249.181,21.636 248.595,21.636C248.018,21.636 247.522,21.84 247.106,22.247ZM256.289,29.576C257.002,29.344 257.563,29.03 257.969,28.632C258.073,28.53 258.125,28.41 258.125,28.271C258.125,28.132 258.073,28.012 257.969,27.91C257.875,27.818 257.756,27.771 257.615,27.771C257.473,27.771 257.35,27.818 257.246,27.91C256.858,28.299 256.286,28.586 255.53,28.771C254.774,28.956 254.017,29.048 253.261,29.048C252.504,29.048 251.748,28.956 250.992,28.771C250.235,28.586 249.663,28.299 249.276,27.91C249.172,27.818 249.049,27.771 248.907,27.771C248.765,27.771 248.647,27.818 248.553,27.91C248.449,28.003 248.397,28.121 248.397,28.264C248.397,28.408 248.449,28.53 248.553,28.632C248.959,29.03 249.519,29.344 250.233,29.576C250.947,29.807 251.526,29.944 251.97,29.985C252.415,30.027 252.845,30.048 253.261,30.048C253.677,30.048 254.107,30.027 254.551,29.985C254.996,29.944 255.575,29.807 256.289,29.576ZM256.423,25.176C256.839,25.583 257.34,25.787 257.927,25.787C258.513,25.787 259.011,25.583 259.423,25.176C259.834,24.769 260.04,24.278 260.04,23.705C260.04,23.14 259.832,22.654 259.416,22.247C259,21.84 258.503,21.636 257.927,21.636C257.34,21.636 256.839,21.838 256.423,22.24C256.007,22.643 255.799,23.131 255.799,23.705C255.799,24.278 256.007,24.769 256.423,25.176Z" style="fill:rgb(243,243,243);"/>
                    </g>
                </g>
            </g>
        </g>
    </g>
</svg>
