<?xml version="1.0" encoding="UTF-8" standalone="no"?>
<!DOCTYPE svg PUBLIC "-//W3C//DTD SVG 1.1//EN" "http://www.w3.org/Graphics/SVG/1.1/DTD/svg11.dtd">
<svg width="100%" height="100%" viewBox="0 0 25 25" version="1.1" xmlns="http://www.w3.org/2000/svg" xmlns:xlink="http://www.w3.org/1999/xlink" xml:space="preserve" xmlns:serif="http://www.serif.com/" style="fill-rule:evenodd;clip-rule:evenodd;stroke-linejoin:round;stroke-miterlimit:2;">
    <g transform="matrix(1,0,0,1,-54592.7,-28420.9)">
        <g transform="matrix(1,0,0,1,55129.1,27259.2)">
            <g transform="matrix(1.07975,0,0,1.07975,-59458,-29561.5)">
                <rect x="54569.6" y="28453.9" width="23.153" height="23.153" style="fill:none;"/>
                <g transform="matrix(0.930008,0,0,0.930008,54561.5,28446)">
                    <path d="M30.576,14.357C31.556,14.257 32.535,14.004 33.515,13.601C32.809,14.589 31.956,15.432 30.956,16.128C30.966,16.27 30.971,16.482 30.971,16.764C30.971,18.076 30.771,19.385 30.371,20.692C29.971,21.999 29.363,23.252 28.547,24.453C27.73,25.654 26.759,26.716 25.632,27.639C24.505,28.563 23.147,29.299 21.556,29.849C19.966,30.399 18.265,30.674 16.454,30.674C13.6,30.674 10.988,29.943 8.619,28.479C8.987,28.52 9.398,28.54 9.851,28.54C12.22,28.54 14.332,27.844 16.185,26.451C15.08,26.431 14.09,26.106 13.216,25.475C12.342,24.844 11.741,24.04 11.415,23.061C11.762,23.111 12.084,23.136 12.378,23.136C12.831,23.136 13.279,23.081 13.721,22.97C12.542,22.738 11.565,22.175 10.791,21.282C10.017,20.389 9.63,19.352 9.63,18.172L9.63,18.111C10.346,18.495 11.115,18.702 11.936,18.732C11.241,18.288 10.688,17.708 10.277,16.991C9.867,16.275 9.661,15.498 9.661,14.66C9.661,13.772 9.893,12.95 10.356,12.193C11.631,13.697 13.181,14.9 15.009,15.803C16.836,16.706 18.792,17.208 20.877,17.309C20.793,16.926 20.751,16.552 20.751,16.189C20.751,14.837 21.248,13.684 22.244,12.73C23.239,11.777 24.442,11.3 25.853,11.3C27.328,11.3 28.57,11.815 29.581,12.844C30.729,12.632 31.809,12.238 32.82,11.663C32.43,12.824 31.682,13.722 30.576,14.357Z" style="fill:rgb(243,243,243);fill-rule:nonzero;"/>
                </g>
            </g>
        </g>
    </g>
</svg>
