<?xml version="1.0" encoding="UTF-8" standalone="no"?>
<!DOCTYPE svg PUBLIC "-//W3C//DTD SVG 1.1//EN" "http://www.w3.org/Graphics/SVG/1.1/DTD/svg11.dtd">
<svg width="100%" height="100%" viewBox="0 0 25 25" version="1.1" xmlns="http://www.w3.org/2000/svg" xmlns:xlink="http://www.w3.org/1999/xlink" xml:space="preserve" xmlns:serif="http://www.serif.com/" style="fill-rule:evenodd;clip-rule:evenodd;stroke-linejoin:round;stroke-miterlimit:2;">
    <g transform="matrix(1,0,0,1,-55053,-28420.9)">
        <g transform="matrix(1,0,0,1,55129.1,27259.2)">
            <g transform="matrix(1.07975,0,0,1.07975,-58997.7,-29561.5)">
                <rect x="54569.6" y="28453.9" width="23.153" height="23.153" style="fill:none;"/>
                <g transform="matrix(0.834645,0,0,0.834645,54178.2,28448)">
                    <path d="M479.868,16.822L479.868,24.557L487.402,20.712L479.868,16.822ZM473.068,11.578C475.658,11.394 478.893,11.302 482.774,11.302C484.507,11.302 486.182,11.325 487.797,11.371C489.412,11.417 490.596,11.466 491.349,11.517L492.479,11.578C492.489,11.578 492.577,11.586 492.742,11.601C492.907,11.617 493.026,11.632 493.098,11.648C493.17,11.663 493.292,11.686 493.462,11.717C493.632,11.747 493.779,11.788 493.903,11.84C494.027,11.891 494.171,11.958 494.336,12.04C494.502,12.122 494.662,12.222 494.816,12.339C494.971,12.457 495.121,12.593 495.265,12.747C495.327,12.808 495.407,12.903 495.505,13.031C495.603,13.16 495.753,13.459 495.954,13.931C496.155,14.402 496.292,14.92 496.364,15.484C496.447,16.14 496.511,16.84 496.558,17.583C496.604,18.326 496.633,18.908 496.643,19.328L496.643,22.034C496.653,23.521 496.56,25.007 496.364,26.493C496.292,27.057 496.163,27.567 495.977,28.023C495.792,28.48 495.626,28.795 495.482,28.969L495.265,29.23C495.121,29.384 494.971,29.52 494.816,29.638C494.662,29.756 494.502,29.853 494.336,29.93C494.171,30.007 494.027,30.071 493.903,30.122C493.779,30.173 493.632,30.215 493.462,30.245C493.292,30.276 493.168,30.299 493.09,30.314C493.013,30.33 492.894,30.345 492.734,30.36C492.574,30.376 492.489,30.384 492.479,30.384C489.889,30.578 486.654,30.676 482.774,30.676C480.637,30.655 478.782,30.622 477.209,30.576C475.635,30.53 474.6,30.491 474.105,30.461L473.347,30.399L472.789,30.337C472.418,30.286 472.137,30.235 471.946,30.184C471.755,30.133 471.492,30.025 471.156,29.861C470.821,29.697 470.529,29.487 470.282,29.23C470.22,29.169 470.14,29.074 470.042,28.946C469.944,28.818 469.794,28.518 469.593,28.046C469.392,27.575 469.255,27.057 469.183,26.493C469.1,25.837 469.036,25.138 468.989,24.395C468.943,23.651 468.914,23.07 468.904,22.649L468.904,19.943C468.894,18.457 468.987,16.97 469.183,15.484C469.255,14.92 469.384,14.41 469.57,13.954C469.755,13.498 469.921,13.182 470.065,13.008L470.282,12.747C470.426,12.593 470.576,12.457 470.731,12.339C470.885,12.222 471.045,12.122 471.211,12.04C471.376,11.958 471.52,11.891 471.644,11.84C471.768,11.788 471.915,11.747 472.085,11.717C472.255,11.686 472.377,11.663 472.449,11.648C472.521,11.632 472.64,11.617 472.805,11.601C472.97,11.586 473.058,11.578 473.068,11.578Z" style="fill:rgb(243,243,243);"/>
                </g>
            </g>
        </g>
    </g>
</svg>
