<svg width="20" height="24" viewBox="0 0 20 24" fill="none" xmlns="http://www.w3.org/2000/svg">
<path d="M19.0012 5.6395C19.5781 6.00364 19.9464 6.62917 19.9736 7.31244V16.6608C19.948 17.2742 19.6642 17.8405 19.1817 18.2159L10.776 23.1059C10.5361 23.2003 10.2827 23.2482 10.0227 23.2482C9.7391 23.2482 9.42447 23.1861 9.20576 23.0794C9.17803 23.0659 9.09956 23.0226 8.98433 22.9577C8.90996 22.9156 8.81927 22.8641 8.71752 22.806L5.64048 21.0264L0.0262756 16.9817V7.30825C0.0585236 6.67525 0.372454 6.09915 0.887449 5.72837C0.985235 5.65814 1.08914 5.59621 1.197 5.54427C1.197 5.54427 8.99274 1.00262 9.06029 0.96841C9.63186 0.679591 10.3448 0.679941 10.9155 0.96862L19.0012 5.6395Z" fill="#2D374B"/>
<path d="M10.0598 15.2593L13.149 20.1296L16.0027 18.4684L11.9456 12.0449L10.0598 15.2593Z" fill="#28A0F0"/>
<path d="M18.6047 16.5207L18.6026 15.1897L14.1695 8.25391L12.5248 11.0572L16.8043 18.0097L18.3517 17.1091C18.5035 16.9853 18.5953 16.8036 18.6049 16.6074L18.6047 16.5207Z" fill="#28A0F0"/>
<path d="M0.0263456 17.7714L2.21142 19.0362L9.48278 7.32238L8.24867 7.28964C7.19721 7.2747 6.06457 7.54927 5.54464 8.40177L1.41544 14.8307L0.0262756 16.9747V17.7714H0.0263456Z" fill="#F3F3F3"/>
<path d="M13.6792 7.32812L10.4268 7.33999L3.06833 19.5377L5.64031 21.0253L6.33976 19.8336L13.6792 7.32812Z" fill="#F3F3F3"/>
<path d="M19.9736 7.31244C19.9464 6.62917 19.5781 6.00364 19.0012 5.6395L10.9155 0.96862C10.3448 0.679941 9.63186 0.679591 9.06029 0.96841C8.99274 1.00262 1.197 5.54427 1.197 5.54427C1.08914 5.59621 0.985235 5.65814 0.887449 5.72837C0.372454 6.09915 0.0585236 6.67525 0.0262756 7.30825V16.9817L1.41544 14.8376L1.40328 7.37367C1.40494 7.34637 1.40835 7.31956 1.41315 7.29303C1.44449 7.11738 1.54214 6.96072 1.68913 6.85488C1.72583 6.82849 9.65466 2.21828 9.67988 2.20558C9.86628 2.11154 10.1031 2.11056 10.2897 2.20271L18.2708 6.81432C18.4597 6.9351 18.578 7.13993 18.5885 7.36382V16.6099C18.5789 16.806 18.5017 16.9876 18.3499 17.1115L16.8026 18.0121L16.0042 18.4769L13.1506 20.1381L10.2566 21.8228C10.1007 21.8794 9.91848 21.8762 9.76391 21.8131L6.33993 19.8348L5.64048 21.0264L8.71752 22.806C8.81927 22.8641 8.90996 22.9156 8.98433 22.9577C9.09956 23.0226 9.17803 23.0659 9.20576 23.0794C9.42447 23.1861 9.7391 23.2482 10.0227 23.2482C10.2827 23.2482 10.5361 23.2003 10.776 23.1059L19.1817 18.2159C19.6642 17.8405 19.948 17.2742 19.9736 16.6608V7.31244Z" fill="#96BEDC"/>
</svg>
