<?xml version="1.0" encoding="UTF-8" standalone="no"?>
<!DOCTYPE svg PUBLIC "-//W3C//DTD SVG 1.1//EN" "http://www.w3.org/Graphics/SVG/1.1/DTD/svg11.dtd">
<svg width="100%" height="100%" viewBox="0 0 240 227" version="1.1" xmlns="http://www.w3.org/2000/svg" xmlns:xlink="http://www.w3.org/1999/xlink" xml:space="preserve" xmlns:serif="http://www.serif.com/" style="fill-rule:evenodd;clip-rule:evenodd;stroke-miterlimit:10;">
    <g transform="matrix(1,0,0,1,-12714.8,-19300.3)">
        <g transform="matrix(5.66657,0,0,3.22938,52953.8,2199.47)">
            <g transform="matrix(0.176473,0,0,0.309657,-7100.61,5295.39)">
                <path d="M235.4,141.5L122.2,225.2C120.7,226.3 118.5,226.4 117,225.3L2,144C-0.2,142.4 -0.7,139.2 1.1,137.1L114.2,1.5C115.8,-0.5 118.8,-0.5 120.5,1.5L236,136.3C237.3,137.9 237.1,140.3 235.4,141.5Z" style="fill:rgb(255,244,252);fill-rule:nonzero;"/>
            </g>
        </g>
        <g transform="matrix(5.66657,0,0,3.22938,52953.8,2199.47)">
            <g transform="matrix(0.176473,0,0,0.309657,-7100.61,5295.39)">
                <path d="M229.3,138.7L121.7,218.2L121.1,137.2L120.3,10L226.8,135.7L229.3,138.7Z" style="fill:url(#_Linear1);fill-rule:nonzero;"/>
            </g>
        </g>
        <g transform="matrix(5.66657,0,0,3.22938,52953.8,2199.47)">
            <g transform="matrix(0.176473,0,0,0.309657,-7100.61,5295.39)">
                <path d="M6.4,140.4L116.8,218.2L114.3,10L6.4,140.4Z" style="fill:url(#_Linear2);fill-rule:nonzero;"/>
            </g>
        </g>
        <g transform="matrix(5.66657,0,0,3.22938,52953.8,2199.47)">
            <g transform="matrix(0.176473,0,0,0.309657,-7100.61,5295.39)">
                <path d="M115.9,137.4L7.2,139.5L6.4,140.4L116.8,218.2L115.9,137.4Z" style="fill:url(#_Linear3);fill-rule:nonzero;"/>
            </g>
        </g>
        <g transform="matrix(5.66657,0,0,3.22938,52953.8,2199.47)">
            <g transform="matrix(0.176473,0,0,0.309657,-7100.61,5295.39)">
                <path d="M121.1,137.2L226.8,135.7L229.3,138.7L121.7,218.2L121.1,137.2Z" style="fill:url(#_Linear4);fill-rule:nonzero;"/>
            </g>
        </g>
        <g transform="matrix(5.66657,0,0,3.22938,52953.8,2199.47)">
            <g transform="matrix(0.176473,0,0,0.309657,-7100.61,5295.39)">
                <path d="M121.1,136.2L226.8,134.7M115.9,136.4L7.2,138.5M115.4,100.9C92,83 82.1,80.2 78.4,83.2C68.2,91.7 106,147 90.9,160.9C86.5,164.9 77.4,165.8 59.9,167.5C54.5,168 50,168.2 47.1,168.2M156.8,135.7L120.9,104.3M97.2,29.7C96.9,34.6 97.1,44.3 102.1,55C106.1,63.6 111.6,69.2 115.1,72.3M200.9,158.7C201.8,157.4 213,140.9 206.1,125.4C201,113.9 188.5,108.6 186.6,107.8C184.1,106.7 184,107 172.3,103.2C165.2,100.8 161.6,99.7 158.5,98.5C153.7,96.7 144.4,93.1 133.8,86.3C130.3,84.1 125.8,80.9 120.7,76.7" style="fill:none;fill-rule:nonzero;stroke:rgb(152,201,192);stroke-width:2px;"/>
            </g>
        </g>
    </g>
    <defs>
        <linearGradient id="_Linear1" x1="0" y1="0" x2="1" y2="0" gradientUnits="userSpaceOnUse" gradientTransform="matrix(109.042,0,0,109.042,120.283,114.105)"><stop offset="0" style="stop-color:rgb(59,130,112);stop-opacity:1"/><stop offset="1" style="stop-color:rgb(48,92,110);stop-opacity:1"/></linearGradient>
        <linearGradient id="_Linear2" x1="0" y1="0" x2="1" y2="0" gradientUnits="userSpaceOnUse" gradientTransform="matrix(110.382,0,0,110.382,6.4424,114.105)"><stop offset="0" style="stop-color:rgb(78,127,152);stop-opacity:1"/><stop offset="1" style="stop-color:rgb(59,192,181);stop-opacity:1"/></linearGradient>
        <linearGradient id="_Linear3" x1="0" y1="0" x2="1" y2="0" gradientUnits="userSpaceOnUse" gradientTransform="matrix(110.382,0,0,110.382,6.4424,177.791)"><stop offset="0" style="stop-color:rgb(48,67,92);stop-opacity:1"/><stop offset="1" style="stop-color:rgb(41,154,169);stop-opacity:1"/></linearGradient>
        <linearGradient id="_Linear4" x1="0" y1="0" x2="1" y2="0" gradientUnits="userSpaceOnUse" gradientTransform="matrix(108.202,0,0,108.202,121.123,176.984)"><stop offset="0" style="stop-color:rgb(46,44,41);stop-opacity:1"/><stop offset="1" style="stop-color:rgb(50,50,50);stop-opacity:1"/></linearGradient>
    </defs>
</svg>
