<svg width="24" height="24" viewBox="0 0 24 24" fill="none" xmlns="http://www.w3.org/2000/svg">
<path fill-rule="evenodd" clip-rule="evenodd" d="M23.1111 11.9998C23.1111 18.1363 18.1365 23.1109 12 23.1109C5.8635 23.1109 0.888885 18.1363 0.888885 11.9998C0.888885 5.86329 5.8635 0.888672 12 0.888672C18.1365 0.888672 23.1111 5.86329 23.1111 11.9998ZM8.85145 16.4212H6.6951C6.242 16.4212 6.01817 16.4212 5.88167 16.3339C5.73429 16.2383 5.6442 16.08 5.63328 15.9053C5.6251 15.7443 5.737 15.5477 5.96084 15.1547L11.2851 5.76987C11.5117 5.37134 11.6263 5.1721 11.771 5.09839C11.9266 5.01926 12.1122 5.01926 12.2678 5.09839C12.4125 5.1721 12.5271 5.37134 12.7537 5.76987L13.8482 7.68057L13.8538 7.69032C14.0985 8.11787 14.2226 8.33466 14.2768 8.56221C14.3368 8.8106 14.3368 9.07263 14.2768 9.32103C14.2222 9.55032 14.0993 9.7687 13.8509 10.2027L11.0542 15.1465L11.047 15.1592C10.8006 15.5902 10.6758 15.8087 10.5028 15.9736C10.3145 16.1537 10.088 16.2847 9.83956 16.3584C9.61301 16.4212 9.35916 16.4212 8.85145 16.4212ZM14.297 16.4215H17.3868C17.8427 16.4215 18.072 16.4215 18.2084 16.3314C18.3558 16.2358 18.4486 16.0748 18.4568 15.9001C18.4647 15.7444 18.3552 15.5554 18.1407 15.1853C18.1334 15.1726 18.1259 15.1598 18.1184 15.1468L16.5707 12.4991L16.5531 12.4693C16.3356 12.1015 16.2258 11.9158 16.0848 11.844C15.9292 11.7648 15.7464 11.7648 15.5908 11.844C15.4488 11.9177 15.3342 12.1115 15.1076 12.5018L13.5654 15.1495L13.5602 15.1586C13.3344 15.5483 13.2216 15.743 13.2297 15.9029C13.2406 16.0775 13.3307 16.2386 13.4781 16.3341C13.6118 16.4215 13.8411 16.4215 14.297 16.4215Z" fill="#E84142"/>
</svg>
