<svg width="24" height="24" viewBox="0 0 24 24" fill="none" xmlns="http://www.w3.org/2000/svg">
<circle cx="12" cy="11.9998" r="11.1111" fill="white"/>
<path fill-rule="evenodd" clip-rule="evenodd" d="M12 23.1109C18.1365 23.1109 23.1111 18.1363 23.1111 11.9998C23.1111 5.86329 18.1365 0.888672 12 0.888672C5.8635 0.888672 0.888889 5.86329 0.888889 11.9998C0.888889 18.1363 5.8635 23.1109 12 23.1109ZM20.0219 12C20.0219 16.4183 16.4402 20 12.0219 20C7.82755 20 4.3871 16.7721 4.04916 12.6649H15.7997V11.3316H4.04944C4.38904 7.22607 7.82873 4 12.0219 4C16.4402 4 20.0219 7.58172 20.0219 12Z" fill="#0052FF"/>
</svg>
