<?xml version="1.0" encoding="UTF-8" standalone="no"?>
<!DOCTYPE svg PUBLIC "-//W3C//DTD SVG 1.1//EN" "http://www.w3.org/Graphics/SVG/1.1/DTD/svg11.dtd">
<svg width="100%" height="100%" viewBox="0 0 400 400" version="1.1" xmlns="http://www.w3.org/2000/svg" xmlns:xlink="http://www.w3.org/1999/xlink" xml:space="preserve" xmlns:serif="http://www.serif.com/" style="fill-rule:evenodd;clip-rule:evenodd;">
    <g transform="matrix(1,0,0,1,-14139.1,-16936.8)">
        <g transform="matrix(5.66657,0,0,3.22938,52953.8,2199.47)">
            <g transform="matrix(0.6147,0,0,0.6147,-2283,1712.64)">
                <g transform="matrix(0.67277,0,0,1.18051,-7556,4637.05)">
                    <g>
                        <path d="M245.62,118.96C242.47,118.96 239.81,116.71 239.28,113.6L221.35,8.18C221.06,6.48 221.45,4.78 222.45,3.38C223.45,1.98 224.93,1.05 226.62,0.76C230.12,0.17 233.45,2.53 234.05,6.03L251.98,111.45C252.27,113.15 251.88,114.85 250.88,116.25C249.88,117.65 248.4,118.58 246.71,118.87C246.36,118.92 245.99,118.96 245.62,118.96Z" style="fill:rgb(203,255,0);fill-rule:nonzero;"/>
                        <path d="M275.67,70.33C265.42,70.33 255.89,73.4 247.92,78.67L250.09,91.43C256.94,85.46 265.89,81.83 275.67,81.83C297.18,81.83 314.68,99.33 314.68,120.84C314.68,142.35 297.18,159.85 275.67,159.85C254.16,159.85 236.66,142.35 236.66,120.84C236.66,117.97 236.98,115.18 237.57,112.49L234.11,92.18C228.47,100.33 225.16,110.21 225.16,120.85C225.16,148.7 247.82,171.36 275.67,171.36C303.52,171.36 326.18,148.7 326.18,120.85C326.18,93 303.53,70.33 275.67,70.33Z" style="fill:rgb(203,255,0);fill-rule:nonzero;"/>
                    </g>
                    <g transform="matrix(2.41807,0,0,1.37806,16751.6,-6288.14)">
                        <g transform="matrix(0.683756,0.118123,-0.0383649,0.683756,-1952.24,2294.55)">
                            <g transform="matrix(0.483384,0,0,0.84819,-6854.76,4639.98)">
                                <path d="M8.992,10.611L1.03,14.24L8.992,18.954L16.951,14.24L8.992,10.611Z" style="fill:rgb(135,171,247);fill-rule:nonzero;stroke:rgb(32,49,131);stroke-width:0.16px;"/>
                            </g>
                            <g transform="matrix(0.483384,0,0,0.84819,-6854.76,4639.98)">
                                <path d="M16.951,14.24L8.992,18.954L8.992,10.611L16.951,14.24Z" style="fill:rgb(205,176,249);fill-rule:nonzero;stroke:rgb(32,49,131);stroke-width:0.16px;"/>
                            </g>
                            <g transform="matrix(0.483384,0,0,0.84819,-6854.76,4639.98)">
                                <path d="M1.03,14.251L8.992,10.611L8.992,1.012L1.03,14.251Z" style="fill:rgb(209,196,250);fill-rule:nonzero;stroke:rgb(32,49,131);stroke-width:0.16px;"/>
                            </g>
                            <g transform="matrix(0.483384,0,0,0.84819,-6854.76,4639.98)">
                                <path d="M8.982,1.012L8.982,10.611L16.941,14.251L8.982,1.012Z" style="fill:rgb(168,253,244);fill-rule:nonzero;stroke:rgb(32,49,131);stroke-width:0.16px;"/>
                            </g>
                            <g transform="matrix(0.483384,0,0,0.84819,-6854.76,4639.98)">
                                <path d="M1.03,15.752L8.992,26.993L8.992,20.466L1.03,15.752Z" style="fill:rgb(135,171,247);fill-rule:nonzero;stroke:rgb(32,49,131);stroke-width:0.16px;"/>
                            </g>
                            <g transform="matrix(0.483384,0,0,0.84819,-6854.76,4639.98)">
                                <path d="M9.005,20.466L9.005,26.993L16.971,15.752L9.005,20.466Z" style="fill:rgb(205,176,249);fill-rule:nonzero;stroke:rgb(32,49,131);stroke-width:0.16px;"/>
                            </g>
                        </g>
                        <g transform="matrix(0.686334,-0.0554555,0.0180112,0.686334,-2203.95,1082.94)">
                            <g transform="matrix(0.483384,0,0,0.84819,-6854.76,4639.98)">
                                <path d="M8.992,10.611L1.03,14.24L8.992,18.954L16.951,14.24L8.992,10.611Z" style="fill:rgb(135,171,247);fill-rule:nonzero;stroke:rgb(32,49,131);stroke-width:0.16px;"/>
                            </g>
                            <g transform="matrix(0.483384,0,0,0.84819,-6854.76,4639.98)">
                                <path d="M16.951,14.24L8.992,18.954L8.992,10.611L16.951,14.24Z" style="fill:rgb(205,176,249);fill-rule:nonzero;stroke:rgb(32,49,131);stroke-width:0.16px;"/>
                            </g>
                            <g transform="matrix(0.483384,0,0,0.84819,-6854.76,4639.98)">
                                <path d="M1.03,14.251L8.992,10.611L8.992,1.012L1.03,14.251Z" style="fill:rgb(209,196,250);fill-rule:nonzero;stroke:rgb(32,49,131);stroke-width:0.16px;"/>
                            </g>
                            <g transform="matrix(0.483384,0,0,0.84819,-6854.76,4639.98)">
                                <path d="M8.982,1.012L8.982,10.611L16.941,14.251L8.982,1.012Z" style="fill:rgb(168,253,244);fill-rule:nonzero;stroke:rgb(32,49,131);stroke-width:0.16px;"/>
                            </g>
                            <g transform="matrix(0.483384,0,0,0.84819,-6854.76,4639.98)">
                                <path d="M1.03,15.752L8.992,26.993L8.992,20.466L1.03,15.752Z" style="fill:rgb(135,171,247);fill-rule:nonzero;stroke:rgb(32,49,131);stroke-width:0.16px;"/>
                            </g>
                            <g transform="matrix(0.483384,0,0,0.84819,-6854.76,4639.98)">
                                <path d="M9.005,20.466L9.005,26.993L16.971,15.752L9.005,20.466Z" style="fill:rgb(205,176,249);fill-rule:nonzero;stroke:rgb(32,49,131);stroke-width:0.16px;"/>
                            </g>
                        </g>
                        <g transform="matrix(0.66365,0.312028,-0.101342,0.66365,-1795.18,3700.51)">
                            <g transform="matrix(0.483384,0,0,0.84819,-6854.76,4639.98)">
                                <path d="M8.992,10.611L1.03,14.24L8.992,18.954L16.951,14.24L8.992,10.611Z" style="fill:rgb(135,171,247);fill-rule:nonzero;stroke:rgb(32,49,131);stroke-width:0.16px;"/>
                            </g>
                            <g transform="matrix(0.483384,0,0,0.84819,-6854.76,4639.98)">
                                <path d="M16.951,14.24L8.992,18.954L8.992,10.611L16.951,14.24Z" style="fill:rgb(205,176,249);fill-rule:nonzero;stroke:rgb(32,49,131);stroke-width:0.16px;"/>
                            </g>
                            <g transform="matrix(0.483384,0,0,0.84819,-6854.76,4639.98)">
                                <path d="M1.03,14.251L8.992,10.611L8.992,1.012L1.03,14.251Z" style="fill:rgb(209,196,250);fill-rule:nonzero;stroke:rgb(32,49,131);stroke-width:0.16px;"/>
                            </g>
                            <g transform="matrix(0.483384,0,0,0.84819,-6854.76,4639.98)">
                                <path d="M8.982,1.012L8.982,10.611L16.941,14.251L8.982,1.012Z" style="fill:rgb(168,253,244);fill-rule:nonzero;stroke:rgb(32,49,131);stroke-width:0.16px;"/>
                            </g>
                            <g transform="matrix(0.483384,0,0,0.84819,-6854.76,4639.98)">
                                <path d="M1.03,15.752L8.992,26.993L8.992,20.466L1.03,15.752Z" style="fill:rgb(135,171,247);fill-rule:nonzero;stroke:rgb(32,49,131);stroke-width:0.16px;"/>
                            </g>
                            <g transform="matrix(0.483384,0,0,0.84819,-6854.76,4639.98)">
                                <path d="M9.005,20.466L9.005,26.993L16.971,15.752L9.005,20.466Z" style="fill:rgb(205,176,249);fill-rule:nonzero;stroke:rgb(32,49,131);stroke-width:0.16px;"/>
                            </g>
                        </g>
                        <g transform="matrix(0.682322,-0.141353,0.0459096,0.682322,-2345.42,518.645)">
                            <g transform="matrix(0.483384,0,0,0.84819,-6854.76,4639.98)">
                                <path d="M8.992,10.611L1.03,14.24L8.992,18.954L16.951,14.24L8.992,10.611Z" style="fill:rgb(135,171,247);fill-rule:nonzero;stroke:rgb(32,49,131);stroke-width:0.16px;"/>
                            </g>
                            <g transform="matrix(0.483384,0,0,0.84819,-6854.76,4639.98)">
                                <path d="M16.951,14.24L8.992,18.954L8.992,10.611L16.951,14.24Z" style="fill:rgb(205,176,249);fill-rule:nonzero;stroke:rgb(32,49,131);stroke-width:0.16px;"/>
                            </g>
                            <g transform="matrix(0.483384,0,0,0.84819,-6854.76,4639.98)">
                                <path d="M1.03,14.251L8.992,10.611L8.992,1.012L1.03,14.251Z" style="fill:rgb(209,196,250);fill-rule:nonzero;stroke:rgb(32,49,131);stroke-width:0.16px;"/>
                            </g>
                            <g transform="matrix(0.483384,0,0,0.84819,-6854.76,4639.98)">
                                <path d="M8.982,1.012L8.982,10.611L16.941,14.251L8.982,1.012Z" style="fill:rgb(168,253,244);fill-rule:nonzero;stroke:rgb(32,49,131);stroke-width:0.16px;"/>
                            </g>
                            <g transform="matrix(0.483384,0,0,0.84819,-6854.76,4639.98)">
                                <path d="M1.03,15.752L8.992,26.993L8.992,20.466L1.03,15.752Z" style="fill:rgb(135,171,247);fill-rule:nonzero;stroke:rgb(32,49,131);stroke-width:0.16px;"/>
                            </g>
                            <g transform="matrix(0.483384,0,0,0.84819,-6854.76,4639.98)">
                                <path d="M9.005,20.466L9.005,26.993L16.971,15.752L9.005,20.466Z" style="fill:rgb(205,176,249);fill-rule:nonzero;stroke:rgb(32,49,131);stroke-width:0.16px;"/>
                            </g>
                        </g>
                        <g transform="matrix(0.682322,-0.141353,0.0459096,0.682322,-2359.13,497.042)">
                            <g transform="matrix(0.483384,0,0,0.84819,-6854.76,4639.98)">
                                <path d="M8.992,10.611L1.03,14.24L8.992,18.954L16.951,14.24L8.992,10.611Z" style="fill:rgb(135,171,247);fill-rule:nonzero;stroke:rgb(32,49,131);stroke-width:0.16px;"/>
                            </g>
                            <g transform="matrix(0.483384,0,0,0.84819,-6854.76,4639.98)">
                                <path d="M16.951,14.24L8.992,18.954L8.992,10.611L16.951,14.24Z" style="fill:rgb(205,176,249);fill-rule:nonzero;stroke:rgb(32,49,131);stroke-width:0.16px;"/>
                            </g>
                            <g transform="matrix(0.483384,0,0,0.84819,-6854.76,4639.98)">
                                <path d="M1.03,14.251L8.992,10.611L8.992,1.012L1.03,14.251Z" style="fill:rgb(209,196,250);fill-rule:nonzero;stroke:rgb(32,49,131);stroke-width:0.16px;"/>
                            </g>
                            <g transform="matrix(0.483384,0,0,0.84819,-6854.76,4639.98)">
                                <path d="M8.982,1.012L8.982,10.611L16.941,14.251L8.982,1.012Z" style="fill:rgb(168,253,244);fill-rule:nonzero;stroke:rgb(32,49,131);stroke-width:0.16px;"/>
                            </g>
                            <g transform="matrix(0.483384,0,0,0.84819,-6854.76,4639.98)">
                                <path d="M1.03,15.752L8.992,26.993L8.992,20.466L1.03,15.752Z" style="fill:rgb(135,171,247);fill-rule:nonzero;stroke:rgb(32,49,131);stroke-width:0.16px;"/>
                            </g>
                            <g transform="matrix(0.483384,0,0,0.84819,-6854.76,4639.98)">
                                <path d="M9.005,20.466L9.005,26.993L16.971,15.752L9.005,20.466Z" style="fill:rgb(205,176,249);fill-rule:nonzero;stroke:rgb(32,49,131);stroke-width:0.16px;"/>
                            </g>
                        </g>
                        <g transform="matrix(0.66365,0.312028,-0.101342,0.66365,-1786.45,3695.27)">
                            <g transform="matrix(0.483384,0,0,0.84819,-6854.76,4639.98)">
                                <path d="M8.992,10.611L1.03,14.24L8.992,18.954L16.951,14.24L8.992,10.611Z" style="fill:rgb(135,171,247);fill-rule:nonzero;stroke:rgb(32,49,131);stroke-width:0.16px;"/>
                            </g>
                            <g transform="matrix(0.483384,0,0,0.84819,-6854.76,4639.98)">
                                <path d="M16.951,14.24L8.992,18.954L8.992,10.611L16.951,14.24Z" style="fill:rgb(205,176,249);fill-rule:nonzero;stroke:rgb(32,49,131);stroke-width:0.16px;"/>
                            </g>
                            <g transform="matrix(0.483384,0,0,0.84819,-6854.76,4639.98)">
                                <path d="M1.03,14.251L8.992,10.611L8.992,1.012L1.03,14.251Z" style="fill:rgb(209,196,250);fill-rule:nonzero;stroke:rgb(32,49,131);stroke-width:0.16px;"/>
                            </g>
                            <g transform="matrix(0.483384,0,0,0.84819,-6854.76,4639.98)">
                                <path d="M8.982,1.012L8.982,10.611L16.941,14.251L8.982,1.012Z" style="fill:rgb(168,253,244);fill-rule:nonzero;stroke:rgb(32,49,131);stroke-width:0.16px;"/>
                            </g>
                            <g transform="matrix(0.483384,0,0,0.84819,-6854.76,4639.98)">
                                <path d="M1.03,15.752L8.992,26.993L8.992,20.466L1.03,15.752Z" style="fill:rgb(135,171,247);fill-rule:nonzero;stroke:rgb(32,49,131);stroke-width:0.16px;"/>
                            </g>
                            <g transform="matrix(0.483384,0,0,0.84819,-6854.76,4639.98)">
                                <path d="M9.005,20.466L9.005,26.993L16.971,15.752L9.005,20.466Z" style="fill:rgb(205,176,249);fill-rule:nonzero;stroke:rgb(32,49,131);stroke-width:0.16px;"/>
                            </g>
                        </g>
                        <g transform="matrix(0.687061,0,0,0.687061,-2104.36,1438.46)">
                            <g transform="matrix(0.483384,0,0,0.84819,-6854.76,4639.98)">
                                <path d="M8.992,10.611L1.03,14.24L8.992,18.954L16.951,14.24L8.992,10.611Z" style="fill:rgb(135,171,247);fill-rule:nonzero;stroke:rgb(32,49,131);stroke-width:0.16px;"/>
                            </g>
                            <g transform="matrix(0.483384,0,0,0.84819,-6854.76,4639.98)">
                                <path d="M16.951,14.24L8.992,18.954L8.992,10.611L16.951,14.24Z" style="fill:rgb(205,176,249);fill-rule:nonzero;stroke:rgb(32,49,131);stroke-width:0.16px;"/>
                            </g>
                            <g transform="matrix(0.483384,0,0,0.84819,-6854.76,4639.98)">
                                <path d="M1.03,14.251L8.992,10.611L8.992,1.012L1.03,14.251Z" style="fill:rgb(209,196,250);fill-rule:nonzero;stroke:rgb(32,49,131);stroke-width:0.16px;"/>
                            </g>
                            <g transform="matrix(0.483384,0,0,0.84819,-6854.76,4639.98)">
                                <path d="M8.982,1.012L8.982,10.611L16.941,14.251L8.982,1.012Z" style="fill:rgb(168,253,244);fill-rule:nonzero;stroke:rgb(32,49,131);stroke-width:0.16px;"/>
                            </g>
                            <g transform="matrix(0.483384,0,0,0.84819,-6854.76,4639.98)">
                                <path d="M1.03,15.752L8.992,26.993L8.992,20.466L1.03,15.752Z" style="fill:rgb(135,171,247);fill-rule:nonzero;stroke:rgb(32,49,131);stroke-width:0.16px;"/>
                            </g>
                            <g transform="matrix(0.483384,0,0,0.84819,-6854.76,4639.98)">
                                <path d="M9.005,20.466L9.005,26.993L16.971,15.752L9.005,20.466Z" style="fill:rgb(205,176,249);fill-rule:nonzero;stroke:rgb(32,49,131);stroke-width:0.16px;"/>
                            </g>
                        </g>
                    </g>
                </g>
                <g transform="matrix(0.176473,0,0,0.309657,-7468,-681.082)">
                    <rect x="219.5" y="17176.8" width="650.724" height="650.724" style="fill:none;"/>
                </g>
            </g>
        </g>
    </g>
</svg>
