<svg width="22" height="24" viewBox="0 0 22 24" fill="none" xmlns="http://www.w3.org/2000/svg">
<path d="M4.71788 3.76672L11 0.130859L17.2822 3.76672L14.9725 5.1099L11 2.81723L7.0275 5.1099L4.71788 3.76672ZM17.2822 8.35208L14.9725 7.00889L11 9.30157L7.0275 7.00889L4.71788 8.35208V11.0384L8.6904 13.3311V17.9164L11 19.2597L13.3096 17.9164V13.3311L17.2822 11.0384V8.35208ZM17.2822 15.6239V12.9374L14.9725 14.2806V16.9669L17.2822 15.6239ZM18.9219 16.5734L14.9494 18.8659V21.5524L21.2316 17.9164V10.6447L18.9219 11.9879V16.5734ZM16.6124 6.0594L18.9219 7.40258V10.089L21.2316 8.74576V6.0594L18.9219 4.71622L16.6124 6.0594ZM8.6904 19.8386V22.525L11 23.8681L13.3096 22.525V19.8386L11 21.1818L8.6904 19.8386ZM4.71788 15.6239L7.0275 16.9669V14.2806L4.71788 12.9374V15.6239ZM8.6904 6.0594L11 7.40258L13.3096 6.0594L11 4.71622L8.6904 6.0594ZM3.07804 7.40258L5.38764 6.0594L3.07804 4.71622L0.768433 6.0594V8.74576L3.07804 10.089V7.40258ZM3.07804 11.9879L0.768433 10.6447V17.9164L7.05056 21.5524V18.8659L3.07804 16.5734V11.9879Z" fill="#F0B90B"/>
</svg>
