<svg width="22" height="26" viewBox="0 0 22 26" fill="none" xmlns="http://www.w3.org/2000/svg">
<path fill-rule="evenodd" clip-rule="evenodd" d="M18.2633 4.03824L12.0972 0.777044C11.5043 0.480569 10.6149 0.480569 10.022 0.777044L3.85588 4.03824C3.61873 4.15683 3.44085 4.33472 3.35192 4.5126H3.29263V4.83872V12.8138V21.1447V21.4708H3.38157C3.47051 21.6487 3.64838 21.8266 3.88554 21.9452L10.0517 25.2064C10.3481 25.3546 10.7039 25.4436 11.0893 25.4436C11.445 25.4436 11.8304 25.3546 12.1268 25.2064L18.293 21.9452C18.5301 21.8266 18.708 21.6487 18.7969 21.4708H18.8859V4.5126H18.7969C18.6784 4.33472 18.5005 4.15683 18.2633 4.03824H18.2633ZM10.4079 9.46307C10.4672 9.43343 10.5561 9.40378 10.645 9.37413V16.2226C10.5561 16.193 10.4968 16.1634 10.4079 16.1337L4.24172 12.8725C4.18243 12.8429 4.15279 12.8132 4.12315 12.7836C4.15279 12.7539 4.18243 12.7243 4.24172 12.6946L10.4079 9.46307ZM11.4746 16.2226V9.37413C11.5635 9.40378 11.6228 9.43343 11.7117 9.46307L17.8779 12.7243C17.9372 12.7539 17.9668 12.7836 17.9964 12.8132C17.9668 12.8428 17.9372 12.8725 17.8779 12.9021L11.7117 16.1633C11.6524 16.193 11.5635 16.2226 11.4746 16.2226V16.2226ZM12.2756 8.83912L18.0268 5.8151V11.8928L12.2756 8.83912ZM4.12315 11.865V5.78733L9.87427 8.81135L4.12315 11.865ZM4.12315 13.7648L10.0521 16.8777C10.1114 16.9074 10.2004 16.937 10.2596 16.9667C10.2004 16.9963 10.1114 17.026 10.0521 17.0556L4.12315 20.1686V13.7648ZM12.0981 16.8777L18.027 13.7648V20.1982L12.0981 17.0853C12.0388 17.0556 11.9498 17.026 11.8905 16.9963C11.9498 16.9667 12.0388 16.937 12.0981 16.8777ZM4.24299 4.77916L10.4091 1.51796C10.7649 1.34008 11.3578 1.34008 11.7135 1.51796L17.8797 4.77916C17.939 4.80881 17.9686 4.83846 17.9983 4.8681C17.9686 4.89775 17.939 4.92739 17.8797 4.95704L11.7135 8.21824C11.3578 8.39612 10.7649 8.39612 10.4091 8.21824L4.24299 4.95704C4.1837 4.92739 4.15405 4.89774 4.12441 4.8681C4.15406 4.83845 4.1837 4.8088 4.24299 4.77916ZM17.8784 21.2348L11.7123 24.496C11.3565 24.6739 10.7636 24.6739 10.4079 24.496L4.24172 21.2348C4.18243 21.2052 4.15279 21.1755 4.12315 21.1459C4.15279 21.1162 4.18243 21.0866 4.24172 21.0569L10.4079 17.7957C10.7636 17.6179 11.3565 17.6179 11.7123 17.7957L17.8784 21.0569C17.9377 21.0866 17.9673 21.1162 17.997 21.1459C17.9673 21.1755 17.9377 21.2052 17.8784 21.2348Z" fill="#336BFE"/>
<path d="M19.5373 1.753L19.3891 1.66406L18.9444 2.37559L19.0926 2.46453C20.1896 3.11678 20.5454 3.3243 20.5454 4.86597H21.3755C21.3755 2.8796 20.6936 2.46454 19.5373 1.753H19.5373Z" fill="#336BFE"/>
<path d="M1.45448 20.8516H0.624329C0.624329 22.8379 1.33588 23.253 2.46251 23.9645L2.61075 24.0535L3.05546 23.3419L2.90722 23.253C1.81024 22.6007 1.45448 22.3636 1.45448 20.8516V20.8516Z" fill="#336BFE"/>
</svg>
