<svg width="22" height="22" viewBox="0 0 22 22" fill="none" xmlns="http://www.w3.org/2000/svg">
<path d="M19.6582 5.66551L18.8709 6.45063C19.4966 7.43205 19.6935 8.66308 19.2645 9.83971C18.5489 11.8377 16.3314 12.8906 14.3096 12.177C14.023 12.0703 13.7555 11.9455 13.5223 11.7844L11 14.2998L8.79959 12.0874C7.78016 12.7647 6.47405 12.961 5.23961 12.5333C3.16438 11.7844 2.09158 9.51861 2.8424 7.46725C2.94937 7.14616 3.1109 6.86027 3.28954 6.59358L2.34178 5.64844L2.16314 5.9514C1.17065 7.56745 0.644655 9.42531 0.643089 11.3204C0.624904 17.0104 5.27598 21.6668 10.9818 21.6668H11C16.7058 21.6668 21.3397 17.0467 21.357 11.3556C21.3568 9.46265 20.837 7.60591 19.854 5.9866L19.6582 5.66551Z" fill="#00A6C4"/>
<path d="M4.44897 7.74805C4.17012 8.11846 4.01957 8.56923 4.02002 9.03241C4.02002 10.192 4.96778 11.1371 6.13055 11.1371C6.61405 11.1371 7.06119 10.976 7.41847 10.6912L4.44897 7.74805Z" fill="#00A6C4"/>
<path d="M14.808 10.512C15.1481 10.7435 15.5418 10.8683 15.9889 10.8683C17.1517 10.8683 18.0995 9.92319 18.0995 8.76363C18.0995 8.33586 17.9743 7.92516 17.7422 7.58594L14.808 10.512Z" fill="#00A6C4"/>
<path d="M11.0347 12.7298L2.48459 4.16701L2.82475 3.81071C4.93528 1.5812 7.81493 0.332031 10.9096 0.332031H10.9278C14.0577 0.332031 17.0636 1.66974 19.1559 3.98886L19.4779 4.34515L11.0347 12.7298ZM3.88055 4.16701L11.0358 11.3206L18.1012 4.30995C16.2046 2.41967 13.6288 1.33051 10.946 1.33051H10.9278C8.26206 1.33051 5.77607 2.33006 3.88055 4.16701Z" fill="#00A6C4"/>
</svg>
