<?xml version="1.0" encoding="UTF-8" standalone="no"?>
<!DOCTYPE svg PUBLIC "-//W3C//DTD SVG 1.1//EN" "http://www.w3.org/Graphics/SVG/1.1/DTD/svg11.dtd">
<svg width="100%" height="100%" viewBox="0 0 313 281" version="1.1" xmlns="http://www.w3.org/2000/svg" xmlns:xlink="http://www.w3.org/1999/xlink" xml:space="preserve" xmlns:serif="http://www.serif.com/" style="fill-rule:evenodd;clip-rule:evenodd;stroke-linejoin:round;stroke-miterlimit:2;">
    <g transform="matrix(1,0,0,1,-14998.1,-19136.6)">
        <g transform="matrix(5.66657,0,0,3.22938,52953.8,2199.47)">
            <g transform="matrix(1,0,0,1,97.6207,30.689)">
                <g transform="matrix(0.314176,6.09202e-34,0,-0.551283,-6807.55,5315.92)">
                    <path d="M212.766,184.894L212.766,161.489L159.894,161.489C95.532,161.489 94.255,161.277 80.106,150.745C73.83,146.064 67.128,136.915 64.255,129.043C62.66,124.574 62.234,119.149 61.702,96.064L61.17,68.404L37.766,68.404L37.872,96.596C37.979,124.362 37.979,124.894 40.957,133.83C45.213,146.915 49.255,153.511 59.468,163.617C69.787,173.936 78.936,179.255 92.553,182.766C99.894,184.574 104.681,184.787 156.702,184.787L212.766,184.894Z" style="fill:rgb(89,208,176);fill-rule:nonzero;"/>
                </g>
                <g transform="matrix(0.314176,6.09202e-34,0,-0.551283,-6807.45,5315.94)">
                    <path d="M212.766,118.085C212.766,86.915 211.702,80.106 204.787,67.021C193.298,45 172.979,31.383 147.553,28.511C141.596,27.766 117.979,27.447 87.766,27.66L37.766,27.979L37.447,40.532L37.128,52.979L92.447,52.979C143.511,52.979 148.191,53.085 154.149,55C162.979,57.766 168.723,61.383 175.213,68.085C185,78.617 188.298,88.191 188.298,106.915L188.298,118.936L106.489,118.936L104.894,116.596C103.936,115.319 103.191,113.511 103.191,112.66C103.191,111.809 112.34,101.915 123.511,90.638C135.213,78.936 143.511,69.681 143.191,69.043C142.66,68.191 132.234,67.872 109.468,67.872L76.383,67.872L76.809,94.255C77.128,120.319 77.128,120.638 80,126.383C83.191,132.979 85.106,135.319 90.532,139.468C98.404,145.426 98.085,145.426 157.766,145.426L212.766,145.532L212.766,118.085Z" style="fill:white;fill-rule:nonzero;"/>
                </g>
            </g>
        </g>
    </g>
</svg>
