<?xml version="1.0" encoding="UTF-8" standalone="no"?>
<!DOCTYPE svg PUBLIC "-//W3C//DTD SVG 1.1//EN" "http://www.w3.org/Graphics/SVG/1.1/DTD/svg11.dtd">
<svg width="100%" height="100%" viewBox="0 0 30 31" version="1.1" xmlns="http://www.w3.org/2000/svg" xmlns:xlink="http://www.w3.org/1999/xlink" xml:space="preserve" xmlns:serif="http://www.serif.com/" style="fill-rule:evenodd;clip-rule:evenodd;stroke-linejoin:round;stroke-miterlimit:2;">
    <g transform="matrix(1,0,0,1,-15522.6,-19932.3)">
        <g transform="matrix(5.66657,0,0,3.22938,52953.8,2199.47)">
            <g transform="matrix(0.176473,0,0,0.309657,-6605.61,5490.92)">
                <clipPath id="_clip1">
                    <rect x="0" y="0.523" width="29.061" height="30.689"/>
                </clipPath>
                <g clip-path="url(#_clip1)">
                    <path d="M24.135,31.212L0,31.212L0,5.503L5.522,5.503L5.522,26.23L24.135,26.23L24.135,31.212Z" style="fill:white;fill-rule:nonzero;"/>
                    <path d="M24.135,10.483C26.856,10.483 29.061,8.253 29.061,5.503C29.061,2.753 26.856,0.523 24.135,0.523C21.415,0.523 19.209,2.753 19.209,5.503C19.209,8.253 21.415,10.483 24.135,10.483Z" style="fill:white;fill-rule:nonzero;"/>
                </g>
            </g>
        </g>
    </g>
</svg>
