<?xml version="1.0" encoding="UTF-8" standalone="no"?>
<!DOCTYPE svg PUBLIC "-//W3C//DTD SVG 1.1//EN" "http://www.w3.org/Graphics/SVG/1.1/DTD/svg11.dtd">
<svg width="100%" height="100%" viewBox="0 0 270 269" version="1.1" xmlns="http://www.w3.org/2000/svg" xmlns:xlink="http://www.w3.org/1999/xlink" xml:space="preserve" xmlns:serif="http://www.serif.com/" style="fill-rule:evenodd;clip-rule:evenodd;stroke-linejoin:round;stroke-miterlimit:2;">
    <g transform="matrix(1,0,0,1,-15435.4,-19606.5)">
        <g transform="matrix(5.66657,0,0,3.22938,52953.8,2199.47)">
            <g transform="matrix(0.176473,0,0,0.309657,-6624.68,5383.79)">
                <path d="M155.5,289.1L155.5,243.4C150.9,243.4 146.2,243 141.6,242.3L134.4,287.4C141.4,288.6 148.5,289.1 155.5,289.1ZM176.5,287.5C183.5,286.4 190.4,284.8 197.1,282.6L183,239.1C178.6,240.5 174,241.6 169.4,242.3L176.5,287.5ZM113.9,282.6L128,239.2C123.6,237.8 119.3,236 115.1,233.9L94.3,274.6C100.6,277.7 107.2,280.4 113.9,282.6ZM216.6,274.6C222.9,271.4 228.9,267.7 234.6,263.6L207.6,226.7C203.9,229.4 199.9,231.9 195.7,233.9L216.6,274.6ZM76.3,263.5L103.3,226.6C99.6,223.9 96,220.9 92.7,217.6L60.3,249.9C65.3,254.8 70.7,259.4 76.3,263.5ZM250.5,250.1L250.8,249.8C255.8,244.9 260.4,239.5 264.5,233.9L227.5,207C224.8,210.7 221.7,214.3 218.5,217.5L218,218L233.6,232.7L250.5,250.1ZM46.6,233.8L83.6,206.9C80.9,203.2 78.4,199.2 76.3,195.1L35.5,215.8C38.7,222.1 42.4,228.1 46.6,233.8ZM275.5,215.9C278.7,209.7 281.4,203.1 283.6,196.4L240,182.4C238.6,186.8 236.8,191.1 234.7,195.2L275.5,215.9ZM27.4,196.4L71,182.3C69.6,177.9 68.5,173.4 67.8,168.8L22.5,175.9C23.6,182.8 25.3,189.7 27.4,196.4ZM288.5,176C289.6,169.1 290.2,162 290.2,155L244.4,155C244.4,159.6 244,164.3 243.3,168.9L288.5,176ZM66.7,154.9C66.7,150.3 67.1,145.6 67.8,141L22.5,133.9C21.4,140.8 20.9,147.9 20.8,154.9L66.7,154.9ZM243.3,141.1L288.6,134C287.5,127.1 285.9,120.2 283.7,113.5L240.1,127.5C241.5,132 242.6,136.5 243.3,141.1ZM71,127.5C72.4,123.1 74.2,118.8 76.3,114.7L35.5,94C32.3,100.2 29.6,106.8 27.4,113.5L71,127.5ZM234.8,114.8L275.7,94.1C272.5,87.8 268.8,81.8 264.6,76.1L227.5,103C230.2,106.7 232.7,110.7 234.8,114.8ZM83.6,102.9C86.3,99.2 89.4,95.6 92.7,92.3L92.8,92.2L60.4,59.9L60.3,60C55.3,65 50.7,70.3 46.6,76L83.6,102.9ZM218.5,92.5L228.3,82.6L250.8,60.2L250.7,60.1C245.7,55.2 240.4,50.6 234.8,46.5L207.8,83.4C211.5,86.1 215.1,89.1 218.3,92.4L218.5,92.5ZM103.4,83.2C107.1,80.5 111.1,78.1 115.3,76L94.5,35.3C88.2,38.5 82.2,42.2 76.5,46.3L103.4,83.2ZM196,76.1L216.9,35.4C210.6,32.2 204.1,29.5 197.4,27.3L183.2,70.7C187.5,72.2 191.8,74 196,76.1ZM128.2,70.7C132.6,69.3 137.2,68.2 141.8,67.5L134.7,22.4C127.8,23.5 120.8,25.1 114.1,27.3L128.2,70.7ZM169.5,67.5L176.7,22.4C169.8,21.3 162.7,20.7 155.7,20.7L155.7,66.4C160.3,66.4 165,66.8 169.5,67.5Z" style="fill:white;fill-rule:nonzero;"/>
            </g>
            <g transform="matrix(0.176473,0,0,0.309657,-6624.68,5383.79)">
                <path d="M155.5,245.5L155.5,199.6C151.6,199.6 147.8,199.1 144,198.1L132,242.4C139.7,244.4 147.6,245.5 155.5,245.5ZM179,242.4C186.7,240.4 194,237.4 200.9,233.4L177.7,193.7C174.4,195.6 170.8,197.1 167.1,198.1L179,242.4ZM110.2,233.4L133.4,193.7C130.1,191.8 127,189.4 124.2,186.7L123.8,186.3L109.2,201.6L91.2,218.9L91.5,219.2C97.1,224.7 103.4,229.5 110.2,233.4ZM219.6,219.2C225.2,213.6 230.1,207.4 234,200.6L193.9,177.6C192,180.9 189.6,183.9 186.8,186.7L219.6,219.2ZM77,200.5L117.1,177.6C115.2,174.3 113.7,170.8 112.7,167.1L68,178.9C70,186.4 73.1,193.7 77,200.5ZM243.1,179C245.1,171.4 246.2,163.6 246.2,155.8L199.9,155.8C199.9,159.6 199.4,163.5 198.4,167.2L243.1,179ZM111.3,155.7C111.3,151.9 111.8,148 112.8,144.3L68,132.5C66,140.1 64.9,147.9 64.9,155.7L111.3,155.7ZM198.3,144.4L243.1,132.6C241.1,125 238,117.7 234.1,110.9L194,133.8C195.8,137.2 197.3,140.7 198.3,144.4ZM117.2,133.8C119.1,130.6 121.4,127.5 124.2,124.8L124.3,124.7L107.7,108.3L91.8,92L91.5,92.3C85.9,97.8 81.1,104.1 77.1,110.8L117.2,133.8ZM107.7,108.3L107.9,108.5L107.7,108.3ZM186.8,124.8L203.2,108.5L220,92.7L219.6,92.3C214,86.7 207.7,82 200.9,78L177.7,117.7C181,119.6 184,121.9 186.8,124.6L186.8,124.8ZM133.4,117.7C136.7,115.8 140.3,114.3 144,113.3L132.2,69C124.5,71 117.2,74 110.3,78L133.4,117.7ZM167,113.4L179,69.1C171.4,67.1 163.5,66 155.6,66L155.6,111.9C159.4,111.9 163.3,112.4 167,113.4Z" style="fill:white;fill-rule:nonzero;"/>
            </g>
        </g>
    </g>
</svg>
