<svg width="30" height="30" viewBox="0 0 30 30" fill="none" xmlns="http://www.w3.org/2000/svg">
<g opacity="0.8">
<path d="M15 29.2218C22.8547 29.2218 29.2222 22.8543 29.2222 14.9996C29.2222 7.14485 22.8547 0.777344 15 0.777344C7.14528 0.777344 0.777771 7.14485 0.777771 14.9996C0.777771 22.8543 7.14528 29.2218 15 29.2218Z" fill="#313042"/>
<path d="M12.1547 21.7202C12.2562 21.4154 12.4594 21.1107 12.561 20.7043C12.561 20.6027 12.561 20.3995 12.4594 20.298C11.8499 19.4853 11.6467 18.571 11.8499 17.6567C11.8499 17.5551 11.8499 17.4535 11.9515 17.4535C11.9515 17.3519 12.0531 17.3519 12.0531 17.2503C12.7642 17.9615 12.9673 18.8757 13.0689 19.79C13.2721 19.3837 13.5769 18.9773 13.78 18.4694C13.78 18.3678 13.6785 18.2662 13.6785 18.1646C13.0689 17.2503 12.9673 16.2345 13.3737 15.117C14.0848 15.8281 14.288 16.7424 14.288 17.6567C14.5927 17.2503 14.7959 16.844 15.1007 16.5392C15.1007 16.4376 15.1007 16.3361 14.9991 16.2345C14.6943 15.3202 14.6943 14.4059 15.2023 13.4916C15.3039 13.39 15.3039 13.2884 15.4054 13.1868C15.9134 13.9995 15.8118 14.8122 15.7102 15.6249H15.8118C16.015 15.3202 16.2181 15.117 16.3197 14.8122C16.7261 13.6948 17.3356 12.8821 18.4531 12.3742C18.6562 12.2726 18.7578 12.2726 18.961 12.171C18.961 12.3741 18.961 12.4757 18.8594 12.6789C18.5547 13.6948 17.8435 14.5075 16.8277 15.0154C16.4213 15.2186 16.1166 15.5234 15.9134 15.9297C16.7261 15.5234 17.5388 15.3202 18.5547 15.6249C18.3515 15.8281 18.2499 15.9297 18.0467 16.0313C17.3356 16.5392 16.5229 16.7424 15.7102 16.6408C15.4054 16.6408 15.3039 16.6408 15.2023 16.844C14.9991 17.1488 14.7959 17.5551 14.5927 17.9615C15.507 17.5551 16.4213 17.3519 17.4372 17.8599C17.1324 18.063 16.9293 18.2662 16.7261 18.3678C16.015 18.6726 15.3039 18.7741 14.4912 18.571C14.288 18.4694 14.1864 18.571 14.0848 18.7741C13.8816 19.1805 13.6785 19.5868 13.3737 20.0948C14.288 19.6884 15.2023 19.3837 16.2181 19.79L16.3197 19.8916C16.2181 19.9932 16.1166 19.9932 15.9134 20.0948C15.1007 20.6027 14.288 20.8059 13.3737 20.7043C13.1705 20.6027 12.9673 20.7043 12.9673 20.9075C12.6626 21.7202 12.3578 22.5329 12.0531 23.244C11.9515 23.5487 11.7483 23.8535 11.5451 24.1583C11.4435 24.3614 11.2404 24.463 11.0372 24.3614C8.29433 22.9392 6.36417 20.8059 5.65306 17.8599C4.23084 12.4757 7.17687 7.09161 12.4594 5.5678C18.5547 3.73923 24.5483 7.80272 25.4626 13.6948C26.1737 18.4694 23.4308 23.0408 18.961 24.6662C18.6562 24.7678 18.4531 24.8694 18.2499 24.6662C18.0467 24.3614 18.0467 24.1583 18.1483 23.8535C18.5547 22.8376 18.8594 21.8218 19.1642 20.8059C19.3673 20.1964 19.5705 19.9932 20.18 19.9932C20.7896 19.8916 21.3991 19.8916 22.0086 19.79C22.5166 19.6884 22.7197 19.4853 22.7197 18.9773C22.7197 18.8757 22.7197 18.6726 22.7197 18.571C22.6181 18.3678 22.7197 18.1646 22.9229 17.9615C23.1261 17.7583 23.1261 17.6567 22.9229 17.4535C22.8213 17.3519 22.8213 17.1488 22.9229 17.1488C23.1261 16.9456 23.1261 16.7424 22.9229 16.5392C22.7197 16.3361 22.8213 16.1329 23.0245 16.0313C23.2277 15.9297 23.3293 15.8281 23.4308 15.6249C23.7356 15.4218 23.634 15.2186 23.4308 15.0154C23.0245 14.6091 22.5166 14.3043 22.1102 13.898C21.8054 13.6948 21.7039 13.2884 21.8054 12.9837C21.907 12.3741 21.8054 11.8662 21.5007 11.3583C21.1959 10.9519 20.9927 10.444 20.7896 10.0376C20.4848 9.32653 19.9769 8.81859 19.2658 8.61542C18.5547 8.41224 17.8435 8.31066 17.0308 8.20907C16.5229 8.10748 16.015 8.10748 15.507 8.00589C14.1864 7.80272 12.9673 8.10748 11.9515 9.02177C11.6467 9.22494 11.342 9.52971 10.9356 9.63129C10.6308 9.73288 10.4277 10.0376 10.2245 10.2408C10.1229 10.5456 9.91973 10.7488 9.61497 10.8503C9.10703 11.2567 8.5991 11.5615 8.19275 12.0694C8.09116 12.2726 7.7864 12.3741 7.68481 12.4757C7.07529 12.8821 6.9737 13.2884 7.17687 13.898C7.27846 14.3043 7.38005 14.7107 7.27846 15.117C7.17687 15.4218 7.17687 15.8281 7.27846 16.1329C7.27846 16.5392 7.58322 16.9456 7.98957 17.0472C8.29433 17.1488 8.49751 17.3519 8.49751 17.6567C8.59909 18.063 8.80227 18.4694 9.10703 18.7741C9.41179 19.0789 9.61497 19.4853 9.81814 19.8916C10.0213 20.3995 10.3261 20.7043 10.834 20.9075C11.342 21.1107 11.7483 21.3138 12.2562 21.517C11.9515 21.6186 12.0531 21.6186 12.1547 21.7202Z" fill="#00DACC"/>
</g>
</svg>
