<svg width="26" height="16" viewBox="0 0 26 16" fill="none" xmlns="http://www.w3.org/2000/svg">
<path d="M24.0555 5.625L25.864 8.75574L16.3381 14.2562C16.3381 14.2562 10.5042 17.7821 6.30978 10.5128L9.27599 8.80125C9.27599 8.80125 11.2035 13.0618 14.5443 11.1269C17.8851 9.19205 24.0555 5.625 24.0555 5.625Z" fill="#F3F3F3"/>
<path d="M1.94462 10.4908L0.136108 7.36009L9.86472 1.74359C9.86472 1.74359 15.6987 -1.78234 19.8916 5.48696L16.9254 7.1985C16.9254 7.1985 14.9979 2.938 11.6571 4.87286C8.31629 6.80771 1.94462 10.4908 1.94462 10.4908Z" fill="#F3F3F3"/>
<path d="M13.1832 10.4143C14.4961 10.4143 15.5603 9.35001 15.5603 8.03721C15.5603 6.7244 14.4961 5.66016 13.1832 5.66016C11.8704 5.66016 10.8062 6.7244 10.8062 8.03721C10.8062 9.35001 11.8704 10.4143 13.1832 10.4143Z" fill="#FF931E"/>
<path d="M4.7908 14.1273C5.47642 14.1273 6.03223 13.5715 6.03223 12.886C6.03223 12.2003 5.47642 11.6445 4.7908 11.6445C4.10518 11.6445 3.54938 12.2003 3.54938 12.886C3.54938 13.5715 4.10518 14.1273 4.7908 14.1273Z" fill="#F3F3F3"/>
<path d="M21.3603 4.55901C22.0458 4.55901 22.6017 4.00321 22.6017 3.31759C22.6017 2.63198 22.0458 2.07617 21.3603 2.07617C20.6746 2.07617 20.1188 2.63198 20.1188 3.31759C20.1188 4.00321 20.6746 4.55901 21.3603 4.55901Z" fill="#F3F3F3"/>
</svg>
