<svg width="20" height="24" viewBox="0 0 20 24" fill="none" xmlns="http://www.w3.org/2000/svg">
<path d="M9.83756 0.443359C7.53814 0.443964 5.33307 1.35458 3.70713 2.975C2.08119 4.59542 1.16748 6.79302 1.16687 9.08464C1.16742 9.63052 1.21878 10.1752 1.32027 10.7116L2.44218 9.94717C4.41123 8.60089 7.60521 8.60089 9.57426 9.94717L10.7488 10.7504L11.3876 11.1862C13.1621 12.3979 16.0378 12.3979 17.8099 11.1862L18.332 10.8302C18.5903 9.5744 18.5652 8.27703 18.2585 7.03205C17.9517 5.78707 17.371 4.62565 16.5584 3.6319C15.7458 2.63814 14.7216 1.83691 13.56 1.28623C12.3984 0.735554 11.1285 0.449203 9.84214 0.447921L9.83756 0.443359Z" fill="#F2B705"/>
<path d="M14.712 14.277C13.4737 14.3005 12.2565 13.9558 11.2158 13.2866L9.40471 12.0499C8.41892 11.447 7.2849 11.1279 6.1283 11.1279C4.9717 11.1279 3.83768 11.447 2.85189 12.0499L1.68191 12.8485C1.62673 12.8861 1.56467 12.9126 1.49925 12.9263C1.43384 12.94 1.36636 12.9407 1.30066 12.9284C1.23497 12.9161 1.17234 12.891 1.11636 12.8546C1.06039 12.8182 1.01216 12.7712 0.974421 12.7162C0.936687 12.6612 0.910191 12.5993 0.896443 12.5342C0.882695 12.469 0.881963 12.4017 0.894294 12.3362C0.906626 12.2708 0.931777 12.2084 0.968311 12.1526C1.00484 12.0968 1.05204 12.0487 1.10722 12.0111L2.2772 11.2125C3.43328 10.4966 4.76722 10.1172 6.1283 10.1172C7.48937 10.1172 8.82332 10.4966 9.9794 11.2125L11.7905 12.4492C12.6693 12.9863 13.68 13.2705 14.7108 13.2705C15.7417 13.2705 16.7524 12.9863 17.6312 12.4492L18.3181 11.9814C18.3733 11.9438 18.4353 11.9174 18.5008 11.9037C18.5662 11.89 18.6336 11.8893 18.6993 11.9016C18.765 11.9139 18.8277 11.9389 18.8836 11.9754C18.9396 12.0118 18.9879 12.0588 19.0256 12.1138C19.0633 12.1688 19.0898 12.2306 19.1036 12.2958C19.1173 12.361 19.118 12.4283 19.1057 12.4937C19.0934 12.5592 19.0682 12.6216 19.0317 12.6774C18.9952 12.7332 18.948 12.7813 18.8928 12.8189L18.2059 13.2866C17.1653 13.954 15.9493 14.2987 14.712 14.277Z" fill="#53CBC8"/>
<path d="M6.09149 17.908V13.0249C6.0873 12.9221 6.09112 12.8191 6.10293 12.7168C6.11863 12.5825 6.18325 12.4586 6.28454 12.3686C6.38583 12.2786 6.51673 12.2287 6.65243 12.2285C6.78376 12.2325 6.90903 12.2845 7.00443 12.3745C7.09984 12.4645 7.15872 12.5864 7.16989 12.7168C7.19074 12.8864 7.19687 13.0574 7.1882 13.228V22.9645C7.19095 23.0402 7.17856 23.1157 7.15174 23.1865C7.12492 23.2574 7.08422 23.3222 7.03201 23.3772C6.97979 23.4322 6.91711 23.4763 6.84762 23.5069C6.77813 23.5375 6.70322 23.554 6.62725 23.5555C6.55114 23.5513 6.47668 23.5317 6.40839 23.498C6.3401 23.4642 6.27939 23.417 6.22994 23.3592C6.18049 23.3014 6.14333 23.2342 6.12072 23.1616C6.0981 23.0891 6.09049 23.0127 6.09836 22.9371V19.6901L6.09149 17.908Z" fill="#53CBC8"/>
<path d="M5.06111 15.4485V17.8741C5.06111 18.2894 4.83215 18.5587 4.52305 18.5587C4.21396 18.5587 3.96896 18.2689 3.96667 17.8741V13.0184C3.96667 12.594 4.21624 12.3064 4.53907 12.3338C4.86191 12.3612 5.05423 12.6054 5.05652 13.0321C5.0611 13.8307 5.06111 14.6385 5.06111 15.4485Z" fill="#53CBC8"/>
<path d="M8.22312 15.4444V13.7421C8.22312 13.3474 8.43375 13.0918 8.74743 13.0918C8.8266 13.0955 8.9042 13.1151 8.97558 13.1494C9.04696 13.1837 9.11064 13.2321 9.16282 13.2915C9.21499 13.351 9.25458 13.4203 9.2792 13.4954C9.30382 13.5705 9.31296 13.6497 9.30609 13.7284C9.31678 14.8876 9.31678 16.0475 9.30609 17.2082C9.30609 17.603 9.07713 17.8426 8.74972 17.838C8.42231 17.8334 8.22311 17.5916 8.22083 17.1877V15.4466L8.22312 15.4444Z" fill="#53CBC8"/>
<path d="M1.84442 15.7946V14.0901C1.84442 13.6931 2.05507 13.4375 2.36874 13.4375C2.44791 13.4412 2.52551 13.4608 2.59689 13.4951C2.66826 13.5294 2.73195 13.5778 2.78412 13.6372C2.8363 13.6967 2.87588 13.766 2.9005 13.8411C2.92512 13.9162 2.93428 13.9954 2.92741 14.0741C2.93809 15.2348 2.93809 16.3955 2.92741 17.5562C2.92741 17.951 2.69844 18.1883 2.37332 18.186C2.0482 18.1837 1.84442 17.9395 1.84213 17.5334V15.7946H1.84442Z" fill="#53CBC8"/>
<path d="M11.4193 14.8858C11.4193 14.5897 11.1784 14.3496 10.8812 14.3496C10.5841 14.3496 10.3432 14.5897 10.3432 14.8858V15.8123C10.3432 16.1084 10.5841 16.3485 10.8812 16.3485C11.1784 16.3485 11.4193 16.1084 11.4193 15.8123V14.8858Z" fill="#53CBC8"/>
<path d="M13.5491 15.6983C13.5491 15.4022 13.3082 15.1621 13.011 15.1621C12.7139 15.1621 12.473 15.4022 12.473 15.6983V20.8986C12.473 21.1948 12.7139 21.4349 13.011 21.4349C13.3082 21.4349 13.5491 21.1948 13.5491 20.8986V15.6983Z" fill="#53CBC8"/>
<path d="M15.6643 15.8976C15.6643 15.6014 15.4234 15.3613 15.1263 15.3613C14.8291 15.3613 14.5882 15.6014 14.5882 15.8976V20.3175C14.5882 20.6136 14.8291 20.8537 15.1263 20.8537C15.4234 20.8537 15.6643 20.6136 15.6643 20.3175V15.8976Z" fill="#53CBC8"/>
<path d="M17.8099 15.3936C17.8099 15.0975 17.569 14.8574 17.2718 14.8574C16.9746 14.8574 16.7337 15.0975 16.7337 15.3936V17.299C16.7337 17.5951 16.9746 17.8352 17.2718 17.8352C17.569 17.8352 17.8099 17.5951 17.8099 17.299V15.3936Z" fill="#53CBC8"/>
</svg>
