<svg width="28" height="24" viewBox="0 0 28 24" fill="none" xmlns="http://www.w3.org/2000/svg">
<path d="M19.4554 1.13381C22.6002 2.47528 24.6968 5.78107 24.4585 9.13476C18.836 9.13476 13.2134 9.18266 7.59091 9.08684C7.59091 6.83508 8.35329 4.53541 9.97334 2.95438C12.3558 0.510979 16.3106 -0.255581 19.4554 1.13381Z" fill="#5FC0C1"/>
<path d="M19.2158 22.6934C19.5494 22.6934 19.8352 22.885 19.8352 23.1246C19.8352 23.3641 19.5494 23.5557 19.2158 23.5557H10.1626C9.82904 23.5557 9.54315 23.3641 9.54315 23.1246C9.54315 22.885 9.82904 22.6934 10.1626 22.6934H19.2158Z" fill="#E1177C"/>
<path d="M8.21046 23.5542C8.55264 23.5542 8.83003 23.2754 8.83003 22.9314C8.83003 22.5874 8.55264 22.3086 8.21046 22.3086C7.86828 22.3086 7.59088 22.5874 7.59088 22.9314C7.59088 23.2754 7.86828 23.5542 8.21046 23.5542Z" fill="#E1177C"/>
<path d="M13.6412 21.2593C13.9834 21.2593 14.2608 20.9805 14.2608 20.6365C14.2608 20.2925 13.9834 20.0137 13.6412 20.0137C13.2991 20.0137 13.0217 20.2925 13.0217 20.6365C13.0217 20.9805 13.2991 21.2593 13.6412 21.2593Z" fill="#E1177C"/>
<path d="M24.267 20.0137C24.6005 20.0137 24.8864 20.3011 24.8864 20.6365C24.8864 20.9719 24.6005 21.2593 24.267 21.2593H15.4043C15.0708 21.2593 14.7849 20.9719 14.7849 20.6365C14.7849 20.3011 15.0708 20.0137 15.4043 20.0137H24.267Z" fill="#E1177C"/>
<path d="M2.01515 18.9566C2.35733 18.9566 2.63471 18.6777 2.63471 18.3338C2.63471 17.9898 2.35733 17.7109 2.01515 17.7109C1.67296 17.7109 1.39557 17.9898 1.39557 18.3338C1.39557 18.6777 1.67296 18.9566 2.01515 18.9566Z" fill="#E1177C"/>
<path d="M10.8315 17.7109C11.1651 17.7109 11.4509 17.9984 11.4509 18.3338C11.4509 18.6691 11.1651 18.9566 10.8315 18.9566H3.54128C3.20774 18.9566 2.92184 18.6691 2.92184 18.3338C2.92184 17.9984 3.20774 17.7109 3.54128 17.7109H10.8315Z" fill="#E1177C"/>
<path d="M27.1755 17.7109C27.5091 17.7109 27.795 17.9984 27.795 18.3338C27.795 18.6691 27.5091 18.9566 27.1755 18.9566H12.6904C12.3568 18.9566 12.0709 18.6691 12.0709 18.3338C12.0709 17.9984 12.3568 17.7109 12.6904 17.7109H27.1755Z" fill="#E1177C"/>
<path d="M24.457 15.4141C24.7905 15.4141 25.0764 15.7015 25.0764 16.0369C25.0764 16.3723 24.7905 16.6597 24.457 16.6597H6.68406C6.35052 16.6597 6.06464 16.3723 6.06464 16.0369C6.06464 15.7015 6.35052 15.4141 6.68406 15.4141H24.457Z" fill="#E1177C"/>
<path d="M4.73194 16.6597C5.07412 16.6597 5.35152 16.3809 5.35152 16.0369C5.35152 15.6929 5.07412 15.4141 4.73194 15.4141C4.38976 15.4141 4.11237 15.6929 4.11237 16.0369C4.11237 16.3809 4.38976 16.6597 4.73194 16.6597Z" fill="#E1177C"/>
<path d="M20.7415 13.1582C21.075 13.1582 21.3609 13.4457 21.3609 13.781C21.3609 14.1164 21.075 14.4039 20.7415 14.4039H2.96858C2.63504 14.4039 2.34915 14.1164 2.34915 13.781C2.34915 13.4457 2.63504 13.1582 2.96858 13.1582H20.7415Z" fill="#E1177C"/>
<path d="M0.824624 14.4039C1.16681 14.4039 1.44419 14.125 1.44419 13.781C1.44419 13.4371 1.16681 13.1582 0.824624 13.1582C0.482442 13.1582 0.205048 13.4371 0.205048 13.781C0.205048 14.125 0.482442 14.4039 0.824624 14.4039Z" fill="#E1177C"/>
<path d="M4.73194 12.107C5.07412 12.107 5.35152 11.8281 5.35152 11.4842C5.35152 11.1402 5.07412 10.8613 4.73194 10.8613C4.38976 10.8613 4.11237 11.1402 4.11237 11.4842C4.11237 11.8281 4.38976 12.107 4.73194 12.107Z" fill="#E1177C"/>
<path d="M26.1733 10.8613C26.5068 10.8613 26.7927 11.1488 26.7927 11.4842C26.7927 11.8195 26.5068 12.107 26.1733 12.107H6.82796C6.49442 12.107 6.20853 11.8195 6.20853 11.4842C6.20853 11.1488 6.49442 10.8613 6.82796 10.8613H26.1733Z" fill="#E1177C"/>
</svg>
