<svg width="24" height="24" viewBox="0 0 24 24" fill="none" xmlns="http://www.w3.org/2000/svg">
<path fill-rule="evenodd" clip-rule="evenodd" d="M23.1111 11.9998C23.1111 18.1363 18.1365 23.1109 12 23.1109C5.8635 23.1109 0.888885 18.1363 0.888885 11.9998C0.888885 5.86329 5.8635 0.888672 12 0.888672C18.1365 0.888672 23.1111 5.86329 23.1111 11.9998ZM8.59952 14.8773C7.93718 14.8773 7.3945 14.723 6.97149 14.4143C6.55405 14.1002 6.34533 13.6538 6.34533 13.075C6.34533 12.9538 6.35925 12.805 6.38708 12.6286C6.45943 12.2318 6.5624 11.7551 6.69598 11.1984C7.07447 9.68274 8.05128 8.92491 9.62643 8.92491C10.055 8.92491 10.4391 8.99656 10.7786 9.13986C11.1181 9.27765 11.3852 9.48708 11.5801 9.76817C11.7749 10.0437 11.8723 10.3744 11.8723 10.7602C11.8723 10.876 11.8584 11.022 11.8305 11.1984C11.747 11.6889 11.6468 12.1657 11.53 12.6286C11.3352 13.3837 10.9984 13.9486 10.5198 14.3234C10.0411 14.6927 9.40102 14.8773 8.59952 14.8773ZM8.71641 13.6868C9.0281 13.6868 9.29247 13.5959 9.50956 13.414C9.73218 13.2321 9.89081 12.9538 9.98542 12.579C10.1135 12.0609 10.2108 11.609 10.2777 11.2232C10.2999 11.1075 10.311 10.989 10.311 10.8677C10.311 10.3662 10.0466 10.1154 9.51789 10.1154C9.2062 10.1154 8.93904 10.2063 8.71641 10.3882C8.49933 10.5701 8.34349 10.8484 8.24887 11.2232C8.14868 11.5925 8.0485 12.0444 7.94831 12.579C7.92605 12.6892 7.91491 12.805 7.91491 12.9262C7.91491 13.4333 8.18208 13.6868 8.71641 13.6868ZM12.2799 14.7357C12.3133 14.7743 12.3606 14.7935 12.4218 14.7935H13.5572C13.6129 14.7935 13.6658 14.7743 13.7159 14.7357C13.7659 14.6971 13.7966 14.6475 13.8077 14.5869L14.1918 12.7763H15.3188C16.048 12.7763 16.6213 12.6248 17.0387 12.3217C17.4617 12.0185 17.7428 11.55 17.882 10.9162C17.9154 10.7674 17.932 10.6241 17.932 10.4863C17.932 10.0068 17.7428 9.64033 17.3643 9.3868C16.9914 9.13327 16.496 9.00651 15.8782 9.00651H13.6574C13.6018 9.00651 13.5489 9.0258 13.4988 9.06438C13.4487 9.10296 13.4181 9.15256 13.407 9.21319L12.2548 14.5869C12.2437 14.642 12.252 14.6916 12.2799 14.7357ZM15.9868 11.4453C15.8142 11.5721 15.6111 11.6355 15.3773 11.6355H14.4172L14.7344 10.1557H15.7363C15.9645 10.1557 16.1259 10.1997 16.2205 10.2879C16.3151 10.3706 16.3625 10.4919 16.3625 10.6517C16.3625 10.7233 16.3541 10.806 16.3374 10.8997C16.2818 11.1367 16.1649 11.3186 15.9868 11.4453Z" fill="#FF0420"/>
</svg>
