<svg width="24" height="20" viewBox="0 0 24 20" fill="none" xmlns="http://www.w3.org/2000/svg">
<path d="M17.7151 6.20337C17.309 5.97149 16.7868 5.97149 16.3226 6.20337L13.0734 8.11639L10.8686 9.33377L7.6774 11.2468C7.27125 11.4787 6.74905 11.4787 6.28488 11.2468L3.78996 9.73956C3.38381 9.50768 3.0937 9.04392 3.0937 8.52219V5.62367C3.0937 5.1599 3.32579 4.69614 3.78996 4.40629L6.28488 2.95703C6.69103 2.72515 7.21323 2.72515 7.6774 2.95703L10.1723 4.46426C10.5785 4.69614 10.8686 5.1599 10.8686 5.68164V7.59466L13.0734 6.31931V4.34832C13.0734 3.88456 12.8413 3.42079 12.3771 3.13094L7.73542 0.406333C7.32927 0.174451 6.80708 0.174451 6.3429 0.406333L1.58514 3.18891C1.12097 3.42079 0.888885 3.88456 0.888885 4.34832V9.79754C0.888885 10.2613 1.12097 10.7251 1.58514 11.0149L6.28488 13.7395C6.69103 13.9714 7.21323 13.9714 7.6774 13.7395L10.8686 11.8845L13.0734 10.6091L16.2646 8.75407C16.6707 8.52219 17.1929 8.52219 17.6571 8.75407L20.152 10.2033C20.5582 10.4352 20.8483 10.899 20.8483 11.4207V14.3192C20.8483 14.783 20.6162 15.2468 20.152 15.5366L17.7151 16.9859C17.309 17.2177 16.7868 17.2177 16.3226 16.9859L13.8277 15.5366C13.4215 15.3047 13.1314 14.841 13.1314 14.3192V12.4642L10.9266 13.7395V15.6525C10.9266 16.1163 11.1587 16.5801 11.6229 16.8699L16.3226 19.5945C16.7287 19.8264 17.2509 19.8264 17.7151 19.5945L22.4148 16.8699C22.821 16.638 23.1111 16.1743 23.1111 15.6525V10.1454C23.1111 9.68159 22.879 9.21783 22.4148 8.92798L17.7151 6.20337Z" fill="#6845A3"/>
</svg>
