<svg width="22" height="24" viewBox="0 0 22 24" fill="none" xmlns="http://www.w3.org/2000/svg">
<path d="M21.5214 11.9959C21.5214 13.5467 21.5231 15.0975 21.5197 16.6474C21.5197 16.9542 21.4317 17.2447 21.3078 17.5249C21.0754 18.0521 20.6798 18.4229 20.1851 18.6998C19.6434 19.0031 19.1042 19.3098 18.5642 19.6157C18.0516 19.9062 17.538 20.195 17.0254 20.4864C16.7767 20.6282 16.5298 20.7735 16.2812 20.9153C15.8753 21.1452 15.4678 21.3733 15.061 21.6023C14.5595 21.8851 14.0571 22.1671 13.5564 22.4516C13.0856 22.719 12.6217 22.9993 12.1449 23.2565C11.9586 23.3573 11.745 23.4051 11.5468 23.4846C11.3665 23.5572 11.1802 23.5487 10.9931 23.5555C10.5736 23.57 10.1934 23.4402 9.83365 23.2428C9.52606 23.0736 9.22615 22.8916 8.92112 22.719C8.55884 22.5148 8.194 22.3166 7.83172 22.1124C7.44552 21.8945 7.06188 21.6715 6.67654 21.4528C6.20233 21.1845 5.72555 20.9187 5.25135 20.6504C4.86856 20.4343 4.48834 20.2138 4.10556 19.9977C3.74157 19.7909 3.37587 19.5867 3.01103 19.3808C2.54195 19.1159 2.06262 18.8672 1.60806 18.5802C1.22613 18.3392 0.924517 18.0094 0.723726 17.595C0.590435 17.319 0.495594 17.0294 0.489613 16.726C0.475087 16.0297 0.481068 15.3333 0.480214 14.6361C0.480214 12.4402 0.479359 10.2435 0.480214 8.04761C0.480214 7.76052 0.468252 7.47172 0.498157 7.18805C0.53746 6.80954 0.6511 6.44897 0.873251 6.13112C1.13898 5.7509 1.4816 5.46467 1.89088 5.24679C2.25486 5.05369 2.60945 4.84008 2.96831 4.63672C3.32974 4.43166 3.69287 4.23002 4.05429 4.02495C4.45758 3.79596 4.85916 3.56441 5.26331 3.33543C5.75631 3.05688 6.25018 2.7809 6.74318 2.50236C7.10546 2.2973 7.46432 2.08711 7.82574 1.88204C8.40077 1.55565 8.9758 1.22926 9.5534 0.907993C9.76103 0.79179 9.97036 0.673879 10.1908 0.585873C10.3591 0.518373 10.5437 0.479069 10.7248 0.460272C10.9239 0.439765 11.129 0.44062 11.328 0.461126C11.4921 0.478215 11.6647 0.510683 11.8108 0.582455C12.1944 0.771284 12.5678 0.983182 12.9429 1.19081C13.4257 1.45825 13.9076 1.72825 14.3886 1.99995C14.6612 2.15461 14.9303 2.31609 15.2029 2.4716C15.6104 2.70486 16.018 2.93726 16.4264 3.16881C17.0698 3.53365 17.7141 3.89764 18.3583 4.26077C18.9427 4.59058 19.5263 4.92296 20.1141 5.24593C20.5132 5.46467 20.8592 5.74321 21.1155 6.1183C21.2727 6.34815 21.3744 6.60704 21.4505 6.88131C21.5265 7.15814 21.5205 7.43413 21.5214 7.71267C21.5231 9.14042 21.5214 10.5682 21.5214 11.9959ZM19.8655 11.7832C19.8245 11.8011 19.8117 11.8045 19.8006 11.8114C19.5801 11.9464 19.3674 12.0959 19.1375 12.2121C18.9359 12.3146 18.7172 12.3813 18.5044 12.4616C18.2643 12.5513 18.0148 12.606 17.7593 12.6111C17.3663 12.6188 16.9741 12.618 16.5811 12.618C12.5166 12.618 8.45204 12.6197 4.38752 12.6111C3.99106 12.6111 3.64417 12.7196 3.31692 12.9213C2.87518 13.1938 2.52486 13.5672 2.20274 13.9679C2.16515 14.0149 2.1361 14.0842 2.13524 14.1431C2.13097 14.9898 2.13268 15.8374 2.13439 16.6842C2.13439 16.7346 2.13524 16.7893 2.15404 16.8354C2.23265 17.0328 2.36679 17.1815 2.55306 17.2848C3.12724 17.6044 3.70056 17.9248 4.27303 18.2486C4.76005 18.5238 5.24366 18.804 5.72897 19.08C6.22369 19.3611 6.72011 19.6405 7.21483 19.9216C7.59163 20.1352 7.96758 20.3488 8.34353 20.5633C8.63062 20.7265 8.91856 20.8897 9.20565 21.0537C9.33894 21.1298 9.47052 21.2075 9.60381 21.2836C9.89432 21.4476 10.1882 21.6065 10.4745 21.7757C10.7487 21.9381 11.0333 22.0098 11.3315 21.8723C11.557 21.768 11.7698 21.6365 11.986 21.5143C12.3653 21.299 12.743 21.0802 13.1223 20.8641C13.4957 20.6513 13.8708 20.442 14.2451 20.2292C14.6099 20.0216 14.9713 19.8097 15.3362 19.6029C15.7719 19.356 16.2103 19.1142 16.646 18.8672C17.2279 18.5383 17.808 18.2068 18.3891 17.877C18.7479 17.6736 19.1093 17.4745 19.4656 17.2669C19.7356 17.1097 19.8715 16.8824 19.8698 16.5543C19.8612 15.1129 19.8655 13.6715 19.8655 12.23C19.8655 12.0882 19.8655 11.9464 19.8655 11.784V11.7832ZM2.13695 11.7721C2.28733 11.6789 2.42233 11.5952 2.55733 11.5123C3.13663 11.1611 3.76464 10.9868 4.44306 10.9868C8.54774 10.9868 12.6533 10.9868 16.7579 10.9868C16.9929 10.9868 17.2304 10.9569 17.4628 10.9792C17.896 11.0202 18.2797 10.8946 18.6377 10.6741C19.1051 10.3862 19.4844 9.99912 19.8296 9.57703C19.8527 9.54884 19.8647 9.5027 19.8647 9.46511C19.8664 8.74824 19.8655 8.03052 19.8647 7.31365C19.8647 7.2658 19.8681 7.21368 19.851 7.17182C19.7715 6.98213 19.6536 6.82663 19.4673 6.72324C19.0111 6.47118 18.5591 6.21144 18.1054 5.95511C17.6935 5.72185 17.2809 5.48944 16.869 5.25619C16.253 4.90758 15.6361 4.55812 15.02 4.20865C14.6227 3.98308 14.2271 3.75581 13.8307 3.52938C13.4163 3.29271 13.0019 3.05603 12.5866 2.82106C12.2098 2.60831 11.8253 2.40837 11.4554 2.18451C11.1614 2.00679 10.8778 2.00337 10.5838 2.16315C10.401 2.26226 10.2233 2.36992 10.0421 2.4716C9.66277 2.68606 9.28169 2.89796 8.90232 3.11242C8.64429 3.25853 8.38967 3.40976 8.13163 3.55587C7.53524 3.89337 6.93799 4.22831 6.3416 4.56581C5.98872 4.76574 5.63755 4.9691 5.28467 5.16818C4.80704 5.43732 4.32771 5.70305 3.85008 5.97305C3.41432 6.21913 2.98027 6.46947 2.54537 6.71726C2.26853 6.87533 2.1267 7.09663 2.12926 7.43242C2.14037 8.81574 2.1361 10.1982 2.13781 11.5815C2.13781 11.6413 2.13781 11.7011 2.13781 11.7729L2.13695 11.7721Z" fill="#7F3CE0"/>
<path d="M10.4369 15.0199C10.4369 15.4019 10.4394 15.7846 10.436 16.1666C10.4334 16.4562 10.3104 16.7023 10.1472 16.9356C9.93957 17.232 9.65761 17.4277 9.32438 17.5482C9.1928 17.596 9.04755 17.6285 8.90742 17.6302C8.22815 17.6387 7.54802 17.6481 6.86961 17.6293C6.2997 17.6131 5.846 17.3559 5.52645 16.8757C5.34189 16.5972 5.26328 16.2939 5.26755 15.9581C5.2761 15.2549 5.26755 14.5517 5.26755 13.8485C5.26755 13.7058 5.28379 13.6896 5.42562 13.6887C5.87932 13.687 6.33388 13.687 6.78758 13.6836C6.87986 13.6836 6.91746 13.7195 6.9166 13.8109C6.91489 14.5004 6.9166 15.19 6.91575 15.8795C6.91575 16.0017 6.92087 16.0068 7.03964 16.0068C7.5822 16.0068 8.12562 16.0068 8.66818 16.0068C8.80916 16.0068 8.8066 15.9991 8.80575 15.8632C8.80233 15.2899 8.80489 14.7166 8.80489 14.1433C8.80489 14.0442 8.8066 13.9459 8.80233 13.8468C8.79635 13.7203 8.82796 13.6853 8.95185 13.6862C9.35087 13.6879 9.75074 13.6904 10.1498 13.6904C10.442 13.6904 10.442 13.6887 10.442 13.9758C10.442 14.3244 10.442 14.6722 10.442 15.0208C10.4403 15.0208 10.4386 15.0208 10.4369 15.0208V15.0199Z" fill="#7F3CE0"/>
<path d="M11.5587 15.0413C11.5587 14.6482 11.5587 14.2561 11.5587 13.863C11.5587 13.6947 11.574 13.6862 11.7389 13.687C12.1627 13.6896 12.5857 13.6896 13.0095 13.6853C13.1778 13.6836 13.2051 13.7109 13.1966 13.8793C13.1898 14.0151 13.2 14.1518 13.2 14.2885C13.2 14.773 13.2 15.2583 13.2 15.7428C13.2 15.7804 13.1975 15.818 13.1923 15.8547C13.1752 15.9931 13.1863 16.0068 13.3307 16.0068C13.8571 16.0068 14.3825 16.0042 14.9089 16.0025C15.0823 16.0025 15.0832 16 15.0832 15.8282C15.0832 15.1626 15.084 14.4962 15.0849 13.8306C15.0849 13.7015 15.0951 13.6904 15.225 13.6904C15.6864 13.6879 16.1469 13.6862 16.6083 13.6836C16.7109 13.6836 16.7348 13.7067 16.7348 13.822C16.7348 14.3723 16.7348 14.9217 16.7331 15.4719C16.7331 15.6428 16.7288 15.8137 16.7331 15.9846C16.7425 16.4443 16.5665 16.8279 16.2546 17.1534C16.0675 17.3491 15.8325 17.4824 15.577 17.561C15.4181 17.6106 15.2447 17.6302 15.0772 17.6319C14.4355 17.6396 13.793 17.6362 13.1513 17.6345C12.8933 17.6345 12.66 17.5465 12.431 17.4345C12.0978 17.2713 11.8628 17.0159 11.7048 16.6869C11.633 16.5374 11.5664 16.3844 11.5681 16.211C11.5715 15.8214 11.5689 15.4326 11.5689 15.043C11.5664 15.043 11.5629 15.043 11.5604 15.043L11.5587 15.0413Z" fill="#7F3CE0"/>
<path d="M7.87609 5.99757C8.23495 5.99757 8.59295 5.99415 8.95181 5.99757C9.32776 6.00184 9.64134 6.16333 9.91732 6.40513C10.0865 6.55295 10.2155 6.73409 10.3146 6.93488C10.412 7.13311 10.4428 7.34842 10.4419 7.56887C10.4411 8.23105 10.4419 8.89409 10.4419 9.55627C10.4419 9.63146 10.4479 9.70579 10.4505 9.78098C10.4539 9.86472 10.4163 9.90829 10.3292 9.90829C9.8652 9.90658 9.40039 9.90829 8.93643 9.90488C8.82279 9.90488 8.79631 9.86472 8.80058 9.75193C8.80571 9.62975 8.79887 9.50671 8.79887 9.38367C8.79887 8.85478 8.79887 8.32504 8.79887 7.79614C8.79887 7.58595 8.79973 7.58852 8.58526 7.58766C8.05637 7.58681 7.52662 7.58425 6.99773 7.58083C6.93792 7.58083 6.91058 7.59963 6.91058 7.66285C6.91314 8.35921 6.91314 9.05557 6.91485 9.75279C6.91485 9.90317 6.90973 9.90744 6.76106 9.90659C6.33042 9.90402 5.90065 9.90488 5.47001 9.90402C5.429 9.90402 5.38799 9.90402 5.34697 9.9006C5.28289 9.89377 5.25299 9.85959 5.25384 9.79124C5.25982 9.03336 5.25128 8.27548 5.27179 7.5176C5.28546 6.99469 5.52982 6.57858 5.96046 6.27868C6.2484 6.07874 6.56625 5.98048 6.92169 5.9933C7.23868 6.00526 7.55653 5.99586 7.87438 5.99586L7.87609 5.99757Z" fill="#7F3CE0"/>
<path d="M14.128 5.99792C14.4732 5.99792 14.8175 5.99792 15.1627 5.99792C15.6899 5.99877 16.1 6.23289 16.411 6.64387C16.628 6.93096 16.7365 7.25735 16.7323 7.6239C16.7246 8.27241 16.7306 8.92178 16.7323 9.57029C16.7323 9.63864 16.7374 9.707 16.7434 9.7745C16.7511 9.85909 16.7186 9.90608 16.6297 9.90608C16.1513 9.90608 15.6736 9.90523 15.1952 9.90437C15.108 9.90437 15.079 9.86079 15.0798 9.7745C15.0824 9.07472 15.0815 8.37409 15.0832 7.67431C15.0832 7.60339 15.0567 7.57861 14.985 7.57947C14.4321 7.58374 13.8785 7.5863 13.3257 7.58716C13.177 7.58716 13.1838 7.58374 13.1932 7.73327C13.2026 7.89304 13.1992 8.05368 13.1984 8.21346C13.1958 8.64665 13.1907 9.0807 13.1881 9.5139C13.1881 9.60617 13.1941 9.6976 13.2001 9.78988C13.2052 9.86421 13.1796 9.90693 13.0975 9.90693C12.619 9.90608 12.1414 9.90608 11.6629 9.90608C11.592 9.90608 11.5527 9.87447 11.5536 9.80184C11.5587 8.98586 11.5433 8.16902 11.5784 7.3539C11.598 6.88909 11.874 6.53621 12.2516 6.27219C12.5362 6.07311 12.8515 5.97912 13.2035 5.99365C13.5102 6.00646 13.8178 5.99621 14.1254 5.99621L14.128 5.99792Z" fill="#7F3CE0"/>
</svg>
