<?xml version="1.0" encoding="UTF-8" standalone="no"?>
<!DOCTYPE svg PUBLIC "-//W3C//DTD SVG 1.1//EN" "http://www.w3.org/Graphics/SVG/1.1/DTD/svg11.dtd">
<svg width="100%" height="100%" viewBox="0 0 400 400" version="1.1" xmlns="http://www.w3.org/2000/svg" xmlns:xlink="http://www.w3.org/1999/xlink" xml:space="preserve" xmlns:serif="http://www.serif.com/" style="fill-rule:evenodd;clip-rule:evenodd;stroke-linejoin:round;stroke-miterlimit:2;">
    <g transform="matrix(1,0,0,1,-1266.7,-17281.9)">
        <g transform="matrix(5.66657,0,0,3.22938,42318,2199.47)">
            <g transform="matrix(0.176473,0,0,0.309657,-7468,-681.082)">
                <g id="zkevm">
                    <rect x="1266.7" y="17281.9" width="400" height="400" style="fill:none;"/>
                    <clipPath id="_clip1">
                        <rect x="1266.7" y="17281.9" width="400" height="400"/>
                    </clipPath>
                    <g clip-path="url(#_clip1)">
                        <g transform="matrix(0.156467,1.45728e-33,4.17233e-33,-0.156467,1267.02,17682.1)">
                            <path d="M1175,2547C1121,2529 1139,2539 678,2273C411,2119 321.167,2071.67 229,1997C176.941,1954.83 130.503,1891.77 125,1825C107.667,1614.67 101,951 125,735C134.252,651.732 199.881,576.347 269,529C444.667,408.667 1129,28 1179,13C1250,-7 1358,-1 1423,28C1534,77 2162.33,446.167 2331,564C2385.69,602.207 2430.21,668.458 2435,735C2450.94,956.287 2440.01,1681.27 2426.61,1891.72C2423.9,1934.35 2390.62,1974.75 2354.61,1997.72C2187.34,2104.44 1534,2482 1423,2532C1364,2559 1234,2566 1175,2547ZM1763,2117C2267,1826 2245,1846 2245,1687C2245,1605 2240,1576 2223,1539C2198,1484 2147,1431 2094,1404C2057,1386 2021,1385 1270,1380C411,1374 465,1378 352,1315L309,1291L312,1540L315,1788C315,1788 431,1905 790,2113C1018,2245 1216,2356 1230,2361C1295,2383 1327,2368 1763,2117ZM2240,782C2235,761 2218,730 2203,713C2174,679 1391,222 1325,200C1305,193 1273,191 1252,195C1231,199 1040,303 795,444C293,734 315,715 315,873C315,965 318,981 344,1034C374,1094 428,1143 493,1167C516,1175 724,1179 1260,1179C1688,1180 2020,1184 2055,1190C2088,1195 2144,1214 2180,1232L2245,1265L2248,1042C2249,916 2246,802 2240,782Z" style="fill:none;fill-rule:nonzero;stroke:rgb(116,213,191);stroke-width:6.39px;"/>
                        </g>
                        <g transform="matrix(0.156467,1.45728e-33,4.17233e-33,-0.156467,1267.02,17682.1)">
                            <path d="M775,1951C680,1907 660,1857 660,1660L660,1510L850,1510L850,1780L1030,1780L1030,1510L1220,1510L1220,1660C1220,1857 1200,1907 1105,1951C1047,1978 833,1978 775,1951Z" style="fill:none;fill-rule:nonzero;stroke:rgb(116,213,191);stroke-width:6.39px;"/>
                        </g>
                        <g transform="matrix(0.156467,1.45728e-33,4.17233e-33,-0.156467,1267.02,17682.1)">
                            <path d="M1515,1959C1477,1948 1421,1895 1404,1853C1394,1830 1390,1773 1390,1665L1390,1510L1580,1510L1580,1780L1750,1780L1750,1510L1950,1510L1950,1660C1950,1820 1941,1860 1897,1909C1852,1957 1806,1970 1670,1969C1601,1969 1531,1964 1515,1959Z" style="fill:none;fill-rule:nonzero;stroke:rgb(116,213,191);stroke-width:6.39px;"/>
                        </g>
                        <g transform="matrix(0.156467,1.45728e-33,4.17233e-33,-0.156467,1267.02,17682.1)">
                            <path d="M660,898C660,771 664,738 679,705C721,614 776,590 942,590C1075,590 1123,603 1167,651C1211,700 1220,740 1220,900L1220,1050L1030,1050L1030,780L850,780L850,1050L660,1050L660,898Z" style="fill:none;fill-rule:nonzero;stroke:rgb(116,213,191);stroke-width:6.39px;"/>
                        </g>
                        <g transform="matrix(0.156467,1.45728e-33,4.17233e-33,-0.156467,1267.02,17682.1)">
                            <path d="M1392,882C1395,721 1396,712 1420,677C1434,655 1466,629 1494,615C1539,592 1555,590 1669,590C1811,590 1856,604 1903,659C1942,705 1950,749 1950,908L1950,1050L1750,1050L1750,780L1580,780L1580,1050L1389,1050L1392,882Z" style="fill:none;fill-rule:nonzero;stroke:rgb(116,213,191);stroke-width:6.39px;"/>
                        </g>
                    </g>
                </g>
            </g>
        </g>
    </g>
</svg>
