<svg width="34" height="34" viewBox="0 0 34 34" fill="none" xmlns="http://www.w3.org/2000/svg">
<path d="M8.10321 11.8341H15.6943C15.7163 11.8325 15.737 11.823 15.7526 11.8073C15.7683 11.7917 15.7777 11.771 15.7794 11.749V9.29428C15.7777 9.27225 15.7683 9.25153 15.7526 9.23591C15.737 9.22028 15.7163 9.21079 15.6943 9.20915H8.10321C8.08117 9.21079 8.06046 9.22028 8.04484 9.23591C8.02921 9.25153 8.01972 9.27225 8.01808 9.29428V11.749C8.01768 11.7602 8.01961 11.7715 8.02375 11.782C8.02789 11.7925 8.03414 11.8021 8.04213 11.81C8.05012 11.818 8.05966 11.8243 8.07017 11.8284C8.08068 11.8326 8.09192 11.8345 8.10321 11.8341ZM13.2396 7.33622H15.6943C15.7163 7.33458 15.737 7.32508 15.7526 7.30946C15.7683 7.29384 15.7777 7.27312 15.7794 7.25109V4.79641C15.7777 4.77438 15.7683 4.75366 15.7526 4.73804C15.737 4.72241 15.7163 4.71292 15.6943 4.71128H13.2396C13.2175 4.71292 13.1968 4.72241 13.1812 4.73804C13.1656 4.75366 13.1561 4.77438 13.1544 4.79641V7.25109C13.1561 7.27312 13.1656 7.29384 13.1812 7.30946C13.1968 7.32508 13.2175 7.33458 13.2396 7.33622ZM2.73982 18.2191H0.285145C0.26311 18.2207 0.242395 18.2302 0.226771 18.2458C0.211147 18.2615 0.201651 18.2822 0.200012 18.3042V20.7589C0.201651 20.7809 0.211147 20.8016 0.226771 20.8173C0.242395 20.8329 0.26311 20.8424 0.285145 20.844H2.73982C2.76185 20.8424 2.78257 20.8329 2.79819 20.8173C2.81382 20.8016 2.82331 20.7809 2.82495 20.7589V18.3042C2.82331 18.2822 2.81382 18.2615 2.79819 18.2458C2.78257 18.2302 2.76185 18.2207 2.73982 18.2191ZM11.7497 18.2191H9.29507C9.27304 18.2207 9.25233 18.2302 9.2367 18.2458C9.22108 18.2615 9.21158 18.2822 9.20994 18.3042V25.8953C9.21158 25.9173 9.22108 25.938 9.2367 25.9536C9.25233 25.9693 9.27304 25.9788 9.29507 25.9804H11.7497C11.7718 25.9788 11.7925 25.9693 11.8081 25.9536C11.8237 25.938 11.8332 25.9173 11.8349 25.8953V18.3042C11.8332 18.2822 11.8237 18.2615 11.8081 18.2458C11.7925 18.2302 11.7718 18.2207 11.7497 18.2191ZM26.7616 15.7644H29.2162C29.2383 15.7628 29.259 15.7533 29.2746 15.7376C29.2902 15.722 29.2997 15.7013 29.3014 15.6793V13.2246C29.2997 13.2026 29.2902 13.1818 29.2746 13.1662C29.259 13.1506 29.2383 13.1411 29.2162 13.1395H26.7616C26.7395 13.1411 26.7188 13.1506 26.7032 13.1662C26.6876 13.1818 26.6781 13.2026 26.6764 13.2246V15.6793C26.6748 15.6908 26.6758 15.7026 26.6795 15.7137C26.6832 15.7248 26.6894 15.7349 26.6977 15.7431C26.706 15.7514 26.716 15.7576 26.7271 15.7613C26.7382 15.765 26.75 15.7661 26.7616 15.7644ZM22.2495 15.7644H24.7042C24.7262 15.7628 24.7469 15.7533 24.7626 15.7376C24.7782 15.722 24.7877 15.7013 24.7893 15.6793V8.08823C24.7877 8.06619 24.7782 8.04548 24.7626 8.02985C24.7469 8.01423 24.7262 8.00473 24.7042 8.0031H22.2495C22.2275 8.00473 22.2068 8.01423 22.1911 8.02985C22.1755 8.04548 22.166 8.06619 22.1644 8.08823V15.6793C22.164 15.6906 22.1659 15.7018 22.17 15.7123C22.1742 15.7228 22.1804 15.7324 22.1884 15.7404C22.1964 15.7483 22.206 15.7546 22.2165 15.7587C22.227 15.7629 22.2382 15.7648 22.2495 15.7644ZM13.2396 2.82416H15.6943C15.7163 2.82252 15.737 2.81302 15.7526 2.7974C15.7683 2.78178 15.7777 2.76106 15.7794 2.73903V0.284352C15.7777 0.262317 15.7683 0.241602 15.7526 0.225978C15.737 0.210353 15.7163 0.200858 15.6943 0.199219H13.2396C13.2175 0.200858 13.1968 0.210353 13.1812 0.225978C13.1656 0.241602 13.1561 0.262317 13.1544 0.284352V2.73903C13.1541 2.75031 13.156 2.76156 13.1601 2.77207C13.1643 2.78258 13.1705 2.79212 13.1785 2.80011C13.1865 2.80809 13.196 2.81435 13.2065 2.81849C13.217 2.82262 13.2283 2.82456 13.2396 2.82416ZM7.25188 18.2191H4.7972C4.77517 18.2207 4.75445 18.2302 4.73883 18.2458C4.72321 18.2615 4.71371 18.2822 4.71207 18.3042V20.7589C4.71371 20.7809 4.72321 20.8016 4.73883 20.8173C4.75445 20.8329 4.77517 20.8424 4.7972 20.844H7.25188C7.27391 20.8424 7.29463 20.8329 7.31025 20.8173C7.32588 20.8016 7.33537 20.7809 7.33701 20.7589V18.3042C7.33327 18.283 7.32309 18.2635 7.30786 18.2482C7.29263 18.233 7.27309 18.2228 7.25188 18.2191ZM25.9102 22.1636H18.3192C18.2972 22.1652 18.2764 22.1747 18.2608 22.1903C18.2452 22.206 18.2357 22.2267 18.2341 22.2487V24.7034C18.2357 24.7254 18.2452 24.7461 18.2608 24.7618C18.2764 24.7774 18.2972 24.7869 18.3192 24.7885H25.9102C25.9323 24.7869 25.953 24.7774 25.9686 24.7618C25.9842 24.7461 25.9937 24.7254 25.9954 24.7034V22.2487C25.994 22.2266 25.9846 22.2057 25.9689 22.19C25.9533 22.1743 25.9324 22.1649 25.9102 22.1636ZM31.0892 17.6941H20.334C20.312 17.6957 20.2913 17.7052 20.2756 17.7208C20.26 17.7365 20.2505 17.7572 20.2489 17.7792V20.163C20.2505 20.185 20.26 20.2057 20.2756 20.2213C20.2913 20.237 20.312 20.2464 20.334 20.2481H31.0892C31.1112 20.2464 31.1319 20.237 31.1475 20.2213C31.1632 20.2057 31.1727 20.185 31.1743 20.163V17.7792C31.1747 17.7679 31.1728 17.7567 31.1686 17.7462C31.1645 17.7357 31.1582 17.7261 31.1503 17.7181C31.1423 17.7102 31.1327 17.7039 31.1222 17.6998C31.1117 17.6956 31.1005 17.6937 31.0892 17.6941ZM20.7597 26.6615H18.305C18.283 26.6631 18.2623 26.6726 18.2466 26.6882C18.231 26.7038 18.2215 26.7246 18.2199 26.7466V29.2013C18.2215 29.2233 18.231 29.244 18.2466 29.2596C18.2623 29.2753 18.283 29.2848 18.305 29.2864H20.7597C20.7817 29.2848 20.8024 29.2753 20.8181 29.2596C20.8337 29.244 20.8432 29.2233 20.8448 29.2013V26.7466C20.8452 26.7353 20.8433 26.7241 20.8391 26.7135C20.835 26.703 20.8287 26.6935 20.8208 26.6855C20.8128 26.6775 20.8032 26.6713 20.7927 26.6671C20.7822 26.663 20.771 26.6611 20.7597 26.6615ZM13.7504 13.8347C13.7487 13.8127 13.7392 13.792 13.7236 13.7763C13.708 13.7607 13.6873 13.7512 13.6652 13.7496H2.91009C2.88805 13.7512 2.86734 13.7607 2.85171 13.7763C2.83609 13.792 2.82659 13.8127 2.82495 13.8347V16.2184C2.82659 16.2405 2.83609 16.2612 2.85171 16.2768C2.86734 16.2924 2.88805 16.3019 2.91009 16.3036H13.6652C13.6873 16.3019 13.708 16.2924 13.7236 16.2768C13.7392 16.2612 13.7487 16.2405 13.7504 16.2184V13.8347ZM33.7141 13.1537H31.2594C31.2374 13.1553 31.2167 13.1648 31.2011 13.1804C31.1854 13.196 31.1759 13.2168 31.1743 13.2388V15.6935C31.1759 15.7155 31.1854 15.7362 31.2011 15.7518C31.2167 15.7675 31.2374 15.777 31.2594 15.7786H33.7141C33.7361 15.777 33.7569 15.7675 33.7725 15.7518C33.7881 15.7362 33.7976 15.7155 33.7992 15.6935V13.2388C33.8009 13.2272 33.7999 13.2154 33.7962 13.2043C33.7925 13.1933 33.7862 13.1832 33.778 13.1749C33.7697 13.1667 33.7596 13.1604 33.7486 13.1567C33.7375 13.153 33.7257 13.152 33.7141 13.1537ZM16.2192 20.2481H13.8355C13.8135 20.2497 13.7928 20.2592 13.7771 20.2748C13.7615 20.2905 13.752 20.3112 13.7504 20.3332V31.0884C13.752 31.1104 13.7615 31.1311 13.7771 31.1468C13.7928 31.1624 13.8135 31.1719 13.8355 31.1735H16.2192C16.2413 31.1719 16.262 31.1624 16.2776 31.1468C16.2932 31.1311 16.3027 31.1104 16.3044 31.0884V20.3332C16.3027 20.3112 16.2932 20.2905 16.2776 20.2748C16.262 20.2592 16.2413 20.2497 16.2192 20.2481ZM20.2489 13.6786V2.90929C20.2472 2.88726 20.2377 2.86654 20.2221 2.85092C20.2065 2.83529 20.1858 2.8258 20.1637 2.82416H17.78C17.758 2.8258 17.7373 2.83529 17.7216 2.85092C17.706 2.86654 17.6965 2.88726 17.6949 2.90929V13.6786C17.6965 13.7007 17.706 13.7214 17.7216 13.737C17.7373 13.7526 17.758 13.7621 17.78 13.7638H20.1637C20.1858 13.7621 20.2065 13.7526 20.2221 13.737C20.2377 13.7214 20.2472 13.7007 20.2489 13.6786ZM20.7597 31.1735H18.305C18.283 31.1752 18.2623 31.1847 18.2466 31.2003C18.231 31.2159 18.2215 31.2366 18.2199 31.2586V33.7133C18.2215 33.7354 18.231 33.7561 18.2466 33.7717C18.2623 33.7873 18.283 33.7968 18.305 33.7985H20.7597C20.7817 33.7968 20.8024 33.7873 20.8181 33.7717C20.8337 33.7561 20.8432 33.7354 20.8448 33.7133V31.2586C20.8465 31.2471 20.8454 31.2353 20.8417 31.2242C20.838 31.2131 20.8318 31.203 20.8236 31.1948C20.8153 31.1865 20.8052 31.1803 20.7941 31.1766C20.783 31.1729 20.7712 31.1719 20.7597 31.1735Z" fill="#F3F3F3"/>
</svg>
