<svg width="20" height="22" viewBox="0 0 20 22" fill="none" xmlns="http://www.w3.org/2000/svg">
<path fill-rule="evenodd" clip-rule="evenodd" d="M10.0358 6.11068C11.6315 6.11068 12.9251 4.81708 12.9251 3.22135C12.9251 1.62563 11.6315 0.332031 10.0358 0.332031C8.44008 0.332031 7.14649 1.62563 7.14649 3.22135C7.14649 4.81708 8.44008 6.11068 10.0358 6.11068ZM6.15864 7.16371C6.17942 7.57358 6.38269 8.294 6.97774 8.59153C7.44887 8.82709 8.03522 8.83219 8.3986 8.6181C8.86397 8.29751 9.42797 8.10981 10.0358 8.10981C10.6916 8.10981 11.2964 8.3283 11.7813 8.69646C12.1415 8.82602 12.6299 8.79341 13.0336 8.59153C13.5848 8.31595 13.7998 7.6776 13.845 7.25922C13.8421 7.20588 13.8406 7.15216 13.8406 7.09809C13.8406 5.50236 15.1342 4.20877 16.73 4.20877C18.3257 4.20877 19.6193 5.50236 19.6193 7.09809C19.6193 8.69382 18.3257 9.98741 16.73 9.98741C16.1384 9.98741 15.5883 9.80961 15.1303 9.50453C14.6698 9.3063 14.0925 9.22755 13.5152 9.60279C13.1513 9.8393 12.962 10.2087 12.8912 10.5552C12.9136 10.6999 12.9251 10.8482 12.9251 10.9991C12.9251 12.1187 12.2884 13.0895 11.3573 13.5692C10.9384 13.8642 10.5549 14.3279 10.5857 15.0359C10.6061 15.5036 10.8628 15.8748 11.1517 16.1109C11.3652 16.2004 11.5656 16.3148 11.7494 16.4504C12.1137 16.6051 12.633 16.5802 13.0583 16.3676C13.5606 16.1164 13.7837 15.5638 13.8536 15.1512C13.845 15.0606 13.8406 14.9687 13.8406 14.8759C13.8406 13.2801 15.1342 11.9865 16.73 11.9865C18.3257 11.9865 19.6193 13.2801 19.6193 14.8759C19.6193 16.4716 18.3257 17.7652 16.73 17.7652C16.1191 17.7652 15.5525 17.5756 15.0858 17.2521C14.6374 17.0757 14.0886 17.0221 13.5398 17.3788C13.1486 17.6331 12.9592 18.0411 12.9019 18.4089C12.9172 18.5294 12.9251 18.6522 12.9251 18.7769C12.9251 20.3726 11.6315 21.6662 10.0358 21.6662C8.44008 21.6662 7.14649 20.3726 7.14649 18.7769C7.14649 18.7313 7.14754 18.6859 7.14963 18.6408L7.14176 18.6549C7.14176 18.2377 6.966 17.6918 6.48444 17.3788C5.91062 17.0058 5.3368 17.0814 4.87766 17.277C4.41807 17.5853 3.86506 17.7652 3.27005 17.7652C1.67432 17.7652 0.380724 16.4716 0.380724 14.8759C0.380724 13.2801 1.67432 11.9865 3.27005 11.9865C4.86578 11.9865 6.15937 13.2801 6.15937 14.8759C6.15937 14.9304 6.15786 14.9845 6.15489 15.0382C6.20083 15.4567 6.41616 16.0927 6.966 16.3676C7.44755 16.6083 8.04949 16.6083 8.41066 16.3796L8.40343 16.3926C8.51445 16.3164 8.63104 16.2478 8.75249 16.1875L8.74646 16.1874C9.12696 15.9925 9.43277 15.474 9.47003 14.9369C9.51292 14.3186 9.09613 13.8398 8.74382 13.5842C7.7967 13.1099 7.14649 12.1305 7.14649 10.9991C7.14649 10.9376 7.14841 10.8765 7.1522 10.816C7.13534 10.4081 6.95388 9.90028 6.49619 9.60279C5.90457 9.21824 5.31296 9.31049 4.84702 9.51951C4.39358 9.81542 3.8519 9.98741 3.27005 9.98741C1.67432 9.98741 0.380724 8.69382 0.380724 7.09809C0.380724 5.50236 1.67432 4.20877 3.27005 4.20877C4.84211 4.20877 6.12094 5.46428 6.15852 7.0273L6.15896 7.02648L6.15862 7.03175C6.15912 7.0538 6.15937 7.07592 6.15937 7.09809C6.15937 7.12002 6.15913 7.14189 6.15864 7.16371Z" fill="#E39530"/>
</svg>
